VelekaWorld-MediumItalic.ufo
<glyph name="percent" format="2">
  <advance width="872"/>
  <unicode hex="0025"/>
  <outline>
    <contour>
      <point x="834.333" y="263.667" type="curve" smooth="yes" name="n00"/>
      <point x="834.333" y="141.333"/>
      <point x="767.333" y="-16"/>
      <point x="625.667" y="-16" type="curve" smooth="yes" name="n03"/>
      <point x="538.667" y="-16"/>
      <point x="501.667" y="42.6667"/>
      <point x="501.667" y="124" type="curve" smooth="yes" name="n06"/>
      <point x="501.667" y="246"/>
      <point x="568" y="403.333"/>
      <point x="710" y="403.333" type="curve" smooth="yes" name="n09"/>
      <point x="797" y="403.333"/>
      <point x="834.333" y="345"/>
    </contour>
    <contour>
      <point x="761.667" y="671" type="line" name="n12"/>
      <point x="206" y="0" type="line" name="n13"/>
      <point x="140" y="0" type="line" name="hr01"/>
      <point x="696" y="671" type="line"/>
    </contour>
    <contour>
      <point x="400.667" y="547.333" type="curve" smooth="yes" name="n16"/>
      <point x="400.667" y="425.333"/>
      <point x="334" y="267.333"/>
      <point x="192.333" y="267.333" type="curve" smooth="yes" name="n19"/>
      <point x="105" y="267.333"/>
      <point x="67" y="326.667"/>
      <point x="67" y="408" type="curve" smooth="yes" name="n22"/>
      <point x="67" y="530"/>
      <point x="134.667" y="687"/>
      <point x="276.333" y="687" type="curve" smooth="yes" name="n25"/>
      <point x="363.333" y="687"/>
      <point x="400.667" y="628.667"/>
    </contour>
    <contour>
      <point x="750.667" y="284.333" type="curve" smooth="yes" name="n28"/>
      <point x="750.667" y="317"/>
      <point x="743.667" y="362.333"/>
      <point x="701.333" y="362.333" type="curve" smooth="yes" name="n31"/>
      <point x="614.333" y="362.333"/>
      <point x="582.667" y="173"/>
      <point x="582.667" y="108.333" type="curve" smooth="yes" name="n34"/>
      <point x="582.667" y="74"/>
      <point x="590" y="24.3333"/>
      <point x="634" y="24.3333" type="curve" smooth="yes" name="n37"/>
      <point x="719.333" y="24.3333"/>
      <point x="750.667" y="221.333"/>
    </contour>
    <contour>
      <point x="316.667" y="567.667" type="curve" smooth="yes" name="n40"/>
      <point x="316.667" y="600.667"/>
      <point x="310.333" y="646"/>
      <point x="268" y="646" type="curve" smooth="yes" name="n43"/>
      <point x="180" y="646"/>
      <point x="148.333" y="457"/>
      <point x="148.333" y="392.667" type="curve" smooth="yes" name="n46"/>
      <point x="148.333" y="358"/>
      <point x="156.333" y="308.333"/>
      <point x="200.667" y="308.333" type="curve" smooth="yes" name="n49"/>
      <point x="285.667" y="308.333"/>
      <point x="316.667" y="505"/>
    </contour>
  </outline>
</glyph>
<glyph name="asterisk" format="2">
  <advance width="500"/>
  <unicode hex="002A"/>
  <outline>
    <contour>
      <point x="510" y="570.333" type="line"/>
      <point x="465.333" y="510.667" type="line"/>
      <point x="336.333" y="506.333" type="line"/>
      <point x="331.667" y="520.667" type="line"/>
      <point x="438.333" y="594" type="line"/>
    </contour>
    <contour>
      <point x="357.667" y="656" type="line"/>
      <point x="320.333" y="531" type="line"/>
      <point x="306.333" y="531" type="line"/>
      <point x="269.333" y="656" type="line"/>
      <point x="313" y="716.667" type="line"/>
    </contour>
    <contour>
      <point x="436" y="363.333" type="line"/>
      <point x="388.667" y="354.667" type="line"/>
      <point x="332.333" y="441.333" type="line"/>
      <point x="327.667" y="488.667" type="line"/>
      <point x="399.333" y="438.667" type="line"/>
    </contour>
    <contour>
      <point x="295" y="520.333" type="line"/>
      <point x="291.333" y="506.333" type="line"/>
      <point x="161.333" y="510.667" type="line"/>
      <point x="117" y="570.333" type="line"/>
      <point x="187.333" y="594" type="line"/>
    </contour>
    <contour>
      <point x="308" y="482.667" type="line"/>
      <point x="264" y="361.333" type="line"/>
      <point x="191.667" y="337.333" type="line"/>
      <point x="192" y="412.667" type="line"/>
      <point x="295" y="492.667" type="line"/>
    </contour>
  </outline>
</glyph>
<glyph name="comma" format="2">
  <advance width="293"/>
  <unicode hex="002C"/>
  <outline>
    <contour>
      <point x="172.667" y="59.3333" type="curve" smooth="yes" name="n00"/>
      <point x="172.667" y="-54.6667"/>
      <point x="55.3333" y="-162.667"/>
      <point x="-55" y="-172" type="curve"/>
      <point x="-47.3333" y="-131.667" type="line"/>
      <point x="32" y="-116"/>
      <point x="79.6667" y="-73.3333"/>
      <point x="93.6667" y="7" type="curve" name="n07"/>
      <point x="31.3333" y="7" type="line"/>
      <point x="22.3333" y="17"/>
      <point x="18" y="30.6667"/>
      <point x="18" y="44" type="curve" smooth="yes" name="n11"/>
      <point x="18" y="88.6667"/>
      <point x="58.3333" y="133"/>
      <point x="103.667" y="133" type="curve" smooth="yes" name="n14"/>
      <point x="150" y="133"/>
      <point x="172.667" y="104"/>
    </contour>
  </outline>
</glyph>
<glyph name="zero" format="2">
  <advance width="570"/>
  <unicode hex="0030"/>
  <outline>
    <contour>
      <point x="565" y="461.333" type="curve" smooth="yes" name="n00"/>
      <point x="565" y="230"/>
      <point x="441.333" y="-16"/>
      <point x="235" y="-16" type="curve" smooth="yes" name="n03"/>
      <point x="102" y="-16"/>
      <point x="34" y="68.6667"/>
      <point x="34" y="208.667" type="curve" smooth="yes" name="n06"/>
      <point x="34" y="417"/>
      <point x="140.667" y="687"/>
      <point x="366" y="687" type="curve" smooth="yes" name="n09"/>
      <point x="507" y="687"/>
      <point x="565" y="586.333"/>
    </contour>
    <contour>
      <point x="443" y="478.667" type="curve" smooth="yes" name="n12"/>
      <point x="443" y="588.667"/>
      <point x="399" y="632.667"/>
      <point x="356" y="632.667" type="curve" smooth="yes" name="n15"/>
      <point x="241.333" y="632.667"/>
      <point x="157" y="380.667"/>
      <point x="157" y="192.667" type="curve" smooth="yes" name="n18"/>
      <point x="157" y="55"/>
      <point x="217" y="39.3333"/>
      <point x="245" y="39.3333" type="curve" smooth="yes" name="n21"/>
      <point x="353.667" y="39.3333"/>
      <point x="443" y="289.333"/>
    </contour>
  </outline>
</glyph>
<glyph name="five" format="2">
  <advance width="570"/>
  <unicode hex="0035"/>
  <outline>
    <contour>
      <point x="556.333" y="671" type="line" name="n00"/>
      <point x="540.667" y="587" type="line" name="n01"/>
      <point x="249.667" y="587" type="line"/>
      <point x="212" y="400" type="line"/>
      <point x="235" y="406"/>
      <point x="267.333" y="412.333"/>
      <point x="307" y="412.333" type="curve" smooth="yes" name="n06"/>
      <point x="406.333" y="412.333"/>
      <point x="503" y="370"/>
      <point x="503" y="250" type="curve" smooth="yes" name="n09"/>
      <point x="503" y="108"/>
      <point x="364.333" y="-16"/>
      <point x="184" y="-16" type="curve" smooth="yes" name="n12"/>
      <point x="70.3333" y="-16"/>
      <point x="10" y="22"/>
      <point x="10" y="78.3333" type="curve" smooth="yes"/>
      <point x="10" y="111.333"/>
      <point x="37" y="144" name="hr01"/>
      <point x="82.3333" y="144" type="curve" smooth="yes" name="n18"/>
      <point x="96.3333" y="144"/>
      <point x="108" y="138.333"/>
      <point x="118.667" y="136" type="curve"/>
      <point x="145.667" y="51" type="line"/>
      <point x="162.333" y="45.6667"/>
      <point x="186.667" y="38.3333" name="hr02"/>
      <point x="207" y="38.3333" type="curve" smooth="yes" name="n25"/>
      <point x="299" y="38.3333"/>
      <point x="383" y="124.667"/>
      <point x="383" y="224.333" type="curve" smooth="yes" name="n28"/>
      <point x="383" y="324.667"/>
      <point x="299" y="349"/>
      <point x="224" y="349" type="curve" smooth="yes" name="n31"/>
      <point x="196" y="349"/>
      <point x="134.667" y="342.333"/>
      <point x="108.333" y="339.333" type="curve"/>
      <point x="176.333" y="671" type="line"/>
    </contour>
  </outline>
</glyph>
<glyph name="eight" format="2">
  <advance width="570"/>
  <unicode hex="0038"/>
  <outline>
    <contour>
      <point x="544" y="545" type="curve" smooth="yes" name="n00"/>
      <point x="544" y="440.333"/>
      <point x="475.667" y="393.667"/>
      <point x="395" y="356.667" type="curve"/>
      <point x="447.333" y="333.333"/>
      <point x="519" y="290.667" name="hr01"/>
      <point x="519" y="209.667" type="curve" smooth="yes" name="n06"/>
      <point x="519" y="88"/>
      <point x="399.667" y="-16"/>
      <point x="235" y="-16" type="curve" smooth="yes" name="n09"/>
      <point x="89.6667" y="-16"/>
      <point x="15" y="52.3333"/>
      <point x="15" y="149" type="curve" smooth="yes" name="n12"/>
      <point x="15" y="213.333"/>
      <point x="55.6667" y="297.667"/>
      <point x="183.333" y="354" type="curve"/>
      <point x="116" y="390.333"/>
      <point x="103" y="438" name="hr02"/>
      <point x="103" y="477.333" type="curve" smooth="yes" name="n18"/>
      <point x="103" y="585.667"/>
      <point x="194.333" y="687"/>
      <point x="354" y="687" type="curve" smooth="yes" name="n21"/>
      <point x="483.667" y="687"/>
      <point x="544" y="622.667"/>
    </contour>
    <contour>
      <point x="435" y="536" type="curve" smooth="yes" name="n24"/>
      <point x="435" y="595.333"/>
      <point x="403.667" y="635.667"/>
      <point x="345" y="635.667" type="curve" smooth="yes" name="n27"/>
      <point x="279" y="635.667"/>
      <point x="217" y="576"/>
      <point x="217" y="499.333" type="curve" smooth="yes" name="n30"/>
      <point x="217" y="446.667"/>
      <point x="263.667" y="413.667"/>
      <point x="337" y="381.667" type="curve"/>
      <point x="395.667" y="414.333"/>
      <point x="435" y="466"/>
    </contour>
    <contour>
      <point x="398" y="182.667" type="curve" smooth="yes" name="n36"/>
      <point x="398" y="242.333"/>
      <point x="319" y="285.333" name="hr03"/>
      <point x="236.667" y="323" type="curve"/>
      <point x="175" y="288.667"/>
      <point x="129" y="237.333"/>
      <point x="129" y="166.667" type="curve" smooth="yes" name="n42"/>
      <point x="129" y="98"/>
      <point x="171.333" y="41.3333"/>
      <point x="253" y="41.3333" type="curve" smooth="yes" name="n45"/>
      <point x="329.333" y="41.3333"/>
      <point x="398" y="110"/>
    </contour>
  </outline>
</glyph>
<glyph name="nine" format="2">
  <advance width="570"/>
  <unicode hex="0039"/>
  <outline>
    <contour>
      <point x="571" y="477" type="curve" smooth="yes" name="n00"/>
      <point x="571" y="183.333"/>
      <point x="304" y="15.6667"/>
      <point x="69" y="-57.6667" type="curve"/>
      <point x="46" y="-6" type="line"/>
      <point x="185.667" y="48"/>
      <point x="298.667" y="110"/>
      <point x="395.333" y="262.333" type="curve"/>
      <point x="353.667" y="243.333"/>
      <point x="302.667" y="226.667"/>
      <point x="254" y="226.667" type="curve" smooth="yes" name="n10"/>
      <point x="162.333" y="226.667"/>
      <point x="65" y="277"/>
      <point x="65" y="404.667" type="curve" smooth="yes" name="n13"/>
      <point x="65" y="558.333"/>
      <point x="188.333" y="687"/>
      <point x="360" y="687" type="curve" smooth="yes" name="n16"/>
      <point x="437.333" y="687"/>
      <point x="571" y="661.667"/>
    </contour>
    <contour>
      <point x="451" y="476" type="curve" smooth="yes" name="n19"/>
      <point x="451" y="607.667"/>
      <point x="382.333" y="635.667"/>
      <point x="343" y="635.667" type="curve" smooth="yes" name="n22"/>
      <point x="264" y="635.667"/>
      <point x="188" y="538.333"/>
      <point x="188" y="424.667" type="curve" smooth="yes" name="n25"/>
      <point x="188" y="325"/>
      <point x="255.667" y="289.667"/>
      <point x="299" y="289.667" type="curve" smooth="yes" name="n28"/>
      <point x="368.667" y="289.667"/>
      <point x="422.667" y="339"/>
      <point x="432" y="349" type="curve"/>
      <point x="439.333" y="390.333"/>
      <point x="451" y="434"/>
    </contour>
  </outline>
</glyph>
<glyph name="A" format="2">
  <advance width="686"/>
  <unicode hex="0041"/>
  <anchor x="412.667" y="753.333" name="top"/>
  <outline>
    <contour>
      <point x="-53" y="0" type="line" name="n00"/>
      <point x="-53" y="44.6667" type="line"/>
      <point x="3.66667" y="50.6667" type="line"/>
      <point x="373" y="687" type="line" name="n03"/>
      <point x="465.667" y="687" type="line"/>
      <point x="574" y="67.6667" type="line" smooth="yes"/>
      <point x="576" y="54.6667"/>
      <point x="579.672" y="50.7814"/>
      <point x="594" y="49.3333" type="curve" smooth="yes"/>
      <point x="640" y="44.6667" type="line"/>
      <point x="640" y="0" type="line"/>
      <point x="391" y="0" type="line"/>
      <point x="391" y="44.6667" type="line"/>
      <point x="442.113" y="50.0923" type="line" smooth="yes"/>
      <point x="451.294" y="51.0721"/>
      <point x="456.34" y="55.1468"/>
      <point x="456.237" y="63.5202" type="curve"/>
      <point x="456" y="67.3333" type="line"/>
      <point x="426.333" y="255.667" type="line" name="n18"/>
      <point x="212" y="255.667" type="line"/>
      <point x="111" y="67.3333" type="line" smooth="yes"/>
      <point x="109.945" y="65.369"/>
      <point x="108.949" y="62.3659"/>
      <point x="108.966" y="60.3053" type="curve" smooth="yes"/>
      <point x="109.012" y="54.6465"/>
      <point x="114.071" y="51.1823"/>
      <point x="122.203" y="50.3333" type="curve" smooth="yes"/>
      <point x="176" y="44.6667" type="line"/>
      <point x="176" y="0" type="line"/>
    </contour>
    <contour>
      <point x="241" y="306" type="line"/>
      <point x="416.667" y="306" type="line" name="n30"/>
      <point x="377" y="544" type="line"/>
    </contour>
  </outline>
</glyph>
<glyph name="O" format="2">
  <advance width="723"/>
  <unicode hex="004F"/>
  <anchor x="420" y="760" name="top"/>
  <outline>
    <contour>
      <point x="705" y="417" type="curve" smooth="yes" name="n00"/>
      <point x="705" y="173.405"/>
      <point x="540.914" y="-16"/>
      <point x="325.278" y="-16" type="curve" smooth="yes" name="n03"/>
      <point x="158.745" y="-16"/>
      <point x="48" y="96.9513"/>
      <point x="48" y="275.529" type="curve" smooth="yes" name="n06"/>
      <point x="48" y="498.317"/>
      <point x="220.364" y="687"/>
      <point x="429.255" y="687" type="curve" smooth="yes" name="n09"/>
      <point x="590.162" y="687"/>
      <point x="705" y="575.05"/>
    </contour>
    <contour>
      <point x="577" y="406.893" type="curve" smooth="yes" name="n12"/>
      <point x="577" y="542.211"/>
      <point x="510.895" y="633.667"/>
      <point x="421.068" y="633.667" type="curve" smooth="yes" name="n15"/>
      <point x="294.197" y="633.667"/>
      <point x="176" y="451.276"/>
      <point x="176" y="267.937" type="curve" smooth="yes" name="n18"/>
      <point x="176" y="131.14"/>
      <point x="241.803" y="39.3333"/>
      <point x="330.784" y="39.3333" type="curve" smooth="yes" name="n21"/>
      <point x="457.25" y="39.3333"/>
      <point x="577" y="224.765"/>
    </contour>
  </outline>
</glyph>
<glyph name="S" format="2">
  <advance width="534"/>
  <unicode hex="0053"/>
  <outline>
    <contour>
      <point x="527.333" y="649.667" type="curve"/>
      <point x="494.667" y="495.667" type="line"/>
      <point x="430" y="495.667" type="line"/>
      <point x="434" y="597.667" type="line"/>
      <point x="426.694" y="615.506"/>
      <point x="379.177" y="634.667"/>
      <point x="339.708" y="634.667" type="curve" smooth="yes" name="n06"/>
      <point x="269.945" y="634.667"/>
      <point x="202.042" y="574.989"/>
      <point x="202" y="511.472" type="curve" smooth="yes" name="n09"/>
      <point x="201.966" y="459.335"/>
      <point x="247.648" y="411.824"/>
      <point x="339.339" y="370.229" type="curve" smooth="yes"/>
      <point x="437.594" y="325.683"/>
      <point x="481" y="275.311"/>
      <point x="481" y="200.26" type="curve" smooth="yes" name="n15"/>
      <point x="481" y="76.3325"/>
      <point x="362.589" y="-16"/>
      <point x="202.946" y="-16" type="curve" smooth="yes" name="n18"/>
      <point x="129.325" y="-16"/>
      <point x="37.1786" y="8.00873"/>
      <point x="-5" y="37.3333" type="curve"/>
      <point x="29.3333" y="199.333" type="line"/>
      <point x="103.313" y="199.333" type="line"/>
      <point x="92.1187" y="83" type="line"/>
      <point x="100.225" y="67.2558"/>
      <point x="177.083" y="39.3333"/>
      <point x="214.005" y="39.3333" type="curve" smooth="yes" name="n27"/>
      <point x="297.196" y="39.3333"/>
      <point x="362.939" y="102.097"/>
      <point x="363" y="183" type="curve" smooth="yes" name="n30"/>
      <point x="363.05" y="234.506"/>
      <point x="303.454" y="276.272"/>
      <point x="228.96" y="309.334" type="curve" smooth="yes"/>
      <point x="127.747" y="354.65"/>
      <point x="84" y="403.28"/>
      <point x="84" y="467.333" type="curve" smooth="yes" name="n36"/>
      <point x="84" y="597.471"/>
      <point x="193.807" y="687"/>
      <point x="347.592" y="687" type="curve" smooth="yes" name="n39"/>
      <point x="409.604" y="687"/>
      <point x="477.635" y="672.378"/>
    </contour>
  </outline>
</glyph>
<glyph name="underscore" format="2">
  <advance width="316"/>
  <unicode hex="005F"/>
  <outline>
    <contour>
      <point x="251.333" y="-87" type="line" name="n00"/>
      <point x="238" y="-158" type="line" name="n01"/>
      <point x="-78.6667" y="-158" type="line"/>
      <point x="-63.6667" y="-87" type="line"/>
    </contour>
  </outline>
</glyph>
<glyph name="b" format="2">
  <advance width="505"/>
  <unicode hex="0062"/>
  <outline>
    <contour>
      <point x="473.667" y="302.539" type="curve" smooth="yes" name="n00"/>
      <point x="473.667" y="130.817"/>
      <point x="344.822" y="-12"/>
      <point x="180.567" y="-12" type="curve" smooth="yes" name="n03"/>
      <point x="124.566" y="-12"/>
      <point x="66.0017" y="4.56656"/>
      <point x="18" y="35.3333" type="curve"/>
      <point x="135.667" y="665.667" type="line"/>
      <point x="47" y="674.333" type="line"/>
      <point x="47" y="706.333" type="line"/>
      <point x="207.333" y="737" type="line" name="n10"/>
      <point x="256" y="737" type="line"/>
      <point x="200.667" y="445.333" type="line"/>
      <point x="240.774" y="476.989"/>
      <point x="289.718" y="496"/>
      <point x="330.742" y="496" type="curve" smooth="yes" name="n15"/>
      <point x="415.052" y="496"/>
      <point x="473.667" y="418.123"/>
    </contour>
    <contour>
      <point x="361.333" y="297.842" type="curve" smooth="yes" name="n18"/>
      <point x="361.333" y="375.13"/>
      <point x="331.101" y="426.667"/>
      <point x="290.734" y="426.667" type="curve" smooth="yes" name="n21"/>
      <point x="264.891" y="426.667"/>
      <point x="219.86" y="404.936"/>
      <point x="187.667" y="377.333" type="curve"/>
      <point x="131.667" y="75.6667" type="line"/>
      <point x="146.449" y="53.6618"/>
      <point x="176.64" y="38"/>
      <point x="203.659" y="38" type="curve" smooth="yes" name="n28"/>
      <point x="282.039" y="38"/>
      <point x="361.333" y="172.003"/>
    </contour>
  </outline>
</glyph>
<glyph name="h" format="2">
  <advance width="537"/>
  <unicode hex="0068"/>
  <outline>
    <contour>
      <point x="535.667" y="26" type="line"/>
      <point x="507.667" y="14"/>
      <point x="440.667" y="-12" name="n02"/>
      <point x="395" y="-12" type="curve" smooth="yes"/>
      <point x="363.333" y="-12"/>
      <point x="304.333" y="1.33333"/>
      <point x="315.333" y="54.6667" type="curve" smooth="yes"/>
      <point x="376" y="348.333" type="line" smooth="yes"/>
      <point x="386.667" y="399.667"/>
      <point x="349.333" y="426.667"/>
      <point x="328" y="426.667" type="curve" smooth="yes" name="n10"/>
      <point x="296.667" y="426.667"/>
      <point x="239.333" y="394.667"/>
      <point x="196.333" y="350" type="curve"/>
      <point x="123.333" y="0" type="line" name="n14"/>
      <point x="17.6667" y="0" type="line"/>
      <point x="155.667" y="665.667" type="line"/>
      <point x="67" y="674.333" type="line"/>
      <point x="67" y="706.333" type="line"/>
      <point x="227.333" y="737" type="line" name="n19"/>
      <point x="277" y="737" type="line"/>
      <point x="212.333" y="427.333" type="line"/>
      <point x="253" y="465.667"/>
      <point x="318.667" y="496"/>
      <point x="383" y="496" type="curve" smooth="yes" name="n24"/>
      <point x="465" y="496"/>
      <point x="503" y="447"/>
      <point x="484.667" y="359" type="curve" smooth="yes"/>
      <point x="429.333" y="91.3333" type="line" smooth="yes"/>
      <point x="421.667" y="55"/>
      <point x="453.333" y="44"/>
      <point x="465" y="44" type="curve" smooth="yes"/>
      <point x="486.667" y="44"/>
      <point x="509.333" y="55.6667"/>
      <point x="534.667" y="66" type="curve"/>
    </contour>
  </outline>
</glyph>
<glyph name="p" format="2">
  <advance width="510"/>
  <unicode hex="0070"/>
  <outline>
    <contour>
      <point x="477.667" y="311.075" type="curve" smooth="yes" name="n00"/>
      <point x="477.667" y="134.934"/>
      <point x="344.877" y="-12"/>
      <point x="192.135" y="-12" type="curve" smooth="yes" name="n03"/>
      <point x="157.915" y="-12"/>
      <point x="134.423" y="-3.77133"/>
      <point x="118" y="2.66667" type="curve"/>
      <point x="86.6667" y="-154" type="line"/>
      <point x="86.2255" y="-158.283" type="line" smooth="yes"/>
      <point x="85.3272" y="-166.969"/>
      <point x="92.5984" y="-171.927"/>
      <point x="105" y="-172.667" type="curve" smooth="yes"/>
      <point x="170" y="-178" type="line"/>
      <point x="170" y="-218.333" type="line"/>
      <point x="-96" y="-218.333" type="line"/>
      <point x="-96" y="-178" type="line"/>
      <point x="-41.3333" y="-173" type="line" smooth="yes"/>
      <point x="-29.282" y="-171.879"/>
      <point x="-21.9436" y="-165.663"/>
      <point x="-19.6667" y="-154" type="curve" smooth="yes"/>
      <point x="93.3333" y="424.667" type="line"/>
      <point x="9.66667" y="433.667" type="line"/>
      <point x="9.66667" y="464.333" type="line"/>
      <point x="165.333" y="496" type="line"/>
      <point x="213.667" y="496" type="line"/>
      <point x="203.333" y="442.333" type="line"/>
      <point x="253.954" y="478.012"/>
      <point x="300.492" y="496"/>
      <point x="341.799" y="496" type="curve" smooth="yes" name="n28"/>
      <point x="424.111" y="496"/>
      <point x="477.667" y="423.393"/>
    </contour>
    <contour>
      <point x="365" y="297.801" type="curve" smooth="yes" name="n31"/>
      <point x="365" y="381.912"/>
      <point x="337.069" y="432"/>
      <point x="293.285" y="432" type="curve" smooth="yes" name="n34"/>
      <point x="265.27" y="432"/>
      <point x="227.125" y="410.853"/>
      <point x="190.333" y="375.333" type="curve"/>
      <point x="130" y="66" type="line"/>
      <point x="153.707" y="50.1969"/>
      <point x="183.961" y="37"/>
      <point x="209.37" y="37" type="curve" smooth="yes" name="n41"/>
      <point x="288.607" y="37"/>
      <point x="365" y="166.663"/>
    </contour>
  </outline>
</glyph>
<glyph name="s" format="2">
  <advance width="385"/>
  <unicode hex="0073"/>
  <outline>
    <contour>
      <point x="364" y="426.14" type="curve" smooth="yes"/>
      <point x="364" y="390.842"/>
      <point x="338.63" y="372.427"/>
      <point x="288" y="368.667" type="curve"/>
      <point x="241" y="438.333" type="line"/>
      <point x="234.458" y="442.51"/>
      <point x="225.049" y="445"/>
      <point x="215.532" y="445" type="curve" smooth="yes" name="n07"/>
      <point x="184.664" y="445"/>
      <point x="162.333" y="418.278"/>
      <point x="162.333" y="382.615" type="curve" smooth="yes" name="n10"/>
      <point x="162.333" y="350.918"/>
      <point x="188.009" y="318.166"/>
      <point x="245.902" y="272.539" type="curve" smooth="yes"/>
      <point x="313.178" y="219.534"/>
      <point x="338" y="183.08"/>
      <point x="338" y="137.666" type="curve" smooth="yes" name="n16"/>
      <point x="338" y="52.7429"/>
      <point x="251.67" y="-12"/>
      <point x="137.831" y="-12" type="curve" smooth="yes" name="n19"/>
      <point x="50.9463" y="-12"/>
      <point x="-7.66667" y="25.2651"/>
      <point x="-7.66667" y="80.4951" type="curve" smooth="yes"/>
      <point x="-7.66667" y="115.41"/>
      <point x="16.0673" y="139.667" name="hr01"/>
      <point x="49.3546" y="139.667" type="curve" smooth="yes" name="n25"/>
      <point x="69.661" y="139.667"/>
      <point x="92.1214" y="130.855"/>
      <point x="106.333" y="117.667" type="curve"/>
      <point x="87.6667" y="65.3333" type="line"/>
      <point x="102.773" y="43.7531"/>
      <point x="129.553" y="31" name="hr02"/>
      <point x="157.182" y="31" type="curve" smooth="yes" name="n32"/>
      <point x="201.23" y="31"/>
      <point x="232.333" y="62.401"/>
      <point x="232.333" y="108.1" type="curve" smooth="yes" name="n35"/>
      <point x="232.333" y="144.114"/>
      <point x="213.387" y="169.177"/>
      <point x="150.333" y="218" type="curve" smooth="yes"/>
      <point x="96.257" y="259.866"/>
      <point x="68.6667" y="304.965"/>
      <point x="68.6667" y="350.793" type="curve" smooth="yes" name="n41"/>
      <point x="68.6667" y="430.656"/>
      <point x="152.831" y="496"/>
      <point x="248.869" y="496" type="curve" smooth="yes" name="n44"/>
      <point x="315.538" y="496"/>
      <point x="364" y="464.442"/>
    </contour>
  </outline>
</glyph>
<glyph name="y" format="2">
  <advance width="512"/>
  <unicode hex="0079"/>
  <outline>
    <contour>
      <point x="540" y="444" type="line"/>
      <point x="489.333" y="412.667" type="line"/>
      <point x="473.333" y="397.667"/>
      <point x="425.333" y="322"/>
      <point x="407.333" y="280.333" type="curve" smooth="yes"/>
      <point x="379" y="216.333"/>
      <point x="329.333" y="92.6667"/>
      <point x="265.667" y="-15.3333" type="curve" smooth="yes"/>
      <point x="202" y="-124.667"/>
      <point x="121" y="-229"/>
      <point x="16.6667" y="-229" type="curve" smooth="yes" name="n10"/>
      <point x="-59" y="-229"/>
      <point x="-80.3333" y="-185.667"/>
      <point x="-80.3333" y="-159.667" type="curve" smooth="yes"/>
      <point x="-80.3333" y="-128.667"/>
      <point x="-54.6667" y="-94.6667"/>
      <point x="-7.33333" y="-92.6667" type="curve" name="n16"/>
      <point x="45.6667" y="-156.667" type="line"/>
      <point x="88.6667" y="-150.667"/>
      <point x="128.667" y="-97"/>
      <point x="192.667" y="19" type="curve"/>
      <point x="189.667" y="35"/>
      <point x="171.667" y="133.667"/>
      <point x="150.667" y="229.333" type="curve" smooth="yes"/>
      <point x="130" y="322.667"/>
      <point x="107.333" y="426"/>
      <point x="98.3333" y="426.667" type="curve" smooth="yes"/>
      <point x="2.33333" y="434" type="line"/>
      <point x="2.33333" y="461" type="line"/>
      <point x="22" y="467.667"/>
      <point x="110.667" y="496" name="n30"/>
      <point x="129.667" y="496" type="curve" smooth="yes"/>
      <point x="173.333" y="496"/>
      <point x="195.667" y="466.667"/>
      <point x="218.333" y="391.333" type="curve" smooth="yes"/>
      <point x="234.333" y="336.667"/>
      <point x="252" y="250"/>
      <point x="270.667" y="152.667" type="curve"/>
      <point x="417.667" y="496" type="line"/>
      <point x="453" y="496" type="line"/>
      <point x="540" y="468" type="line"/>
    </contour>
  </outline>
</glyph>
<glyph name="section" format="2">
  <advance width="514"/>
  <unicode hex="00A7"/>
  <outline>
    <contour>
      <point x="511.667" y="691.667" type="curve"/>
      <point x="486.333" y="559.333" type="line"/>
      <point x="421" y="559.333" type="line"/>
      <point x="425" y="642.333" type="line"/>
      <point x="397" y="660.333"/>
      <point x="362.333" y="667" name="hr01"/>
      <point x="342" y="667" type="curve" smooth="yes" name="n06"/>
      <point x="309.667" y="667"/>
      <point x="239.667" y="639.333"/>
      <point x="239.667" y="579" type="curve" smooth="yes" name="n09"/>
      <point x="239.667" y="514"/>
      <point x="348.333" y="493.667"/>
      <point x="418.333" y="436.667" type="curve" smooth="yes"/>
      <point x="449.333" y="410.667"/>
      <point x="471.667" y="378"/>
      <point x="471.667" y="331.667" type="curve" smooth="yes" name="n15"/>
      <point x="471.667" y="250.667"/>
      <point x="398.667" y="180"/>
      <point x="317.667" y="145.333" type="curve"/>
      <point x="365.333" y="118.667"/>
      <point x="397.667" y="85.3333" name="hr02"/>
      <point x="397.667" y="39" type="curve" smooth="yes" name="n21"/>
      <point x="397.667" y="-70.6667"/>
      <point x="286.667" y="-140"/>
      <point x="166" y="-140" type="curve" smooth="yes" name="n24"/>
      <point x="108.667" y="-140"/>
      <point x="57" y="-128"/>
      <point x="12" y="-106" type="curve"/>
      <point x="35.3333" y="26" type="line"/>
      <point x="104.333" y="26" type="line"/>
      <point x="101.333" y="-64.6667" type="line"/>
      <point x="128.667" y="-82.3333"/>
      <point x="165" y="-88"/>
      <point x="184" y="-88" type="curve" smooth="yes" name="n33"/>
      <point x="219" y="-88"/>
      <point x="291" y="-58.3333"/>
      <point x="291" y="3" type="curve" smooth="yes" name="n36"/>
      <point x="291" y="71.6667"/>
      <point x="169.667" y="102.333"/>
      <point x="111.333" y="150" type="curve" smooth="yes"/>
      <point x="80" y="176"/>
      <point x="58.3333" y="208.333"/>
      <point x="58.3333" y="256.333" type="curve" smooth="yes" name="n42"/>
      <point x="58.3333" y="344.667"/>
      <point x="119.667" y="404.333"/>
      <point x="206.333" y="441.667" type="curve"/>
      <point x="160.667" y="469.333"/>
      <point x="131" y="501.333" name="hr03"/>
      <point x="131" y="547" type="curve" smooth="yes" name="n48"/>
      <point x="131" y="664.667"/>
      <point x="245" y="718"/>
      <point x="368.667" y="718" type="curve" smooth="yes" name="n51"/>
      <point x="414" y="718"/>
      <point x="472" y="709.333"/>
    </contour>
    <contour>
      <point x="362" y="305" type="curve" smooth="yes" name="n54"/>
      <point x="362" y="346.333"/>
      <point x="338.333" y="379.667"/>
      <point x="261.333" y="415" type="curve"/>
      <point x="192" y="386.667"/>
      <point x="166.667" y="328.667"/>
      <point x="166.667" y="289" type="curve" smooth="yes" name="n60"/>
      <point x="166.667" y="242.667"/>
      <point x="185.333" y="216.333"/>
      <point x="267.333" y="172.667" type="curve"/>
      <point x="322" y="205.333"/>
      <point x="362" y="252.333"/>
    </contour>
  </outline>
</glyph>
<glyph name="guillemotleft" format="2">
  <advance width="408"/>
  <unicode hex="00AB"/>
  <outline>
    <contour>
      <point x="123.667" y="0" type="line" name="n00"/>
      <point x="19.3333" y="215" type="line"/>
      <point x="29.3333" y="266" type="line"/>
      <point x="221.333" y="482" type="line" name="n03"/>
      <point x="274" y="482" type="line"/>
      <point x="110.667" y="241" type="line"/>
      <point x="176" y="0" type="line"/>
    </contour>
    <contour>
      <point x="294.333" y="0" type="line"/>
      <point x="189.333" y="215" type="line"/>
      <point x="199.667" y="266" type="line"/>
      <point x="392.333" y="482" type="line"/>
      <point x="444.667" y="482" type="line"/>
      <point x="281" y="241" type="line"/>
      <point x="346.667" y="0" type="line"/>
    </contour>
  </outline>
</glyph>
<glyph name="degree" format="2">
  <advance width="319"/>
  <unicode hex="00B0"/>
  <outline>
    <contour>
      <point x="270" y="610" type="curve" smooth="yes" name="n00"/>
      <point x="270" y="549"/>
      <point x="221" y="500"/>
      <point x="160" y="500" type="curve" smooth="yes" name="n03"/>
      <point x="99" y="500"/>
      <point x="50" y="549"/>
      <point x="50" y="610" type="curve" smooth="yes" name="n06"/>
      <point x="50" y="671"/>
      <point x="99" y="720"/>
      <point x="160" y="720" type="curve" smooth="yes" name="n09"/>
      <point x="221" y="720"/>
      <point x="270" y="671"/>
    </contour>
    <contour>
      <point x="230" y="610" type="curve" smooth="yes" name="n12"/>
      <point x="230" y="649"/>
      <point x="199" y="680"/>
      <point x="160" y="680" type="curve" smooth="yes" name="n15"/>
      <point x="121" y="680"/>
      <point x="90" y="649"/>
      <point x="90" y="610" type="curve" smooth="yes" name="n18"/>
      <point x="90" y="571"/>
      <point x="121" y="540"/>
      <point x="160" y="540" type="curve" smooth="yes" name="n21"/>
      <point x="199" y="540"/>
      <point x="230" y="571"/>
    </contour>
  </outline>
</glyph>
<glyph name="twosuperior" format="2">
  <advance width="370"/>
  <unicode hex="00B2"/>
  <outline>
    <contour>
      <point x="410.333" y="702" type="curve" smooth="yes" name="n00"/>
      <point x="410.333" y="590.667"/>
      <point x="231" y="491.667"/>
      <point x="148.667" y="438" type="curve"/>
      <point x="320" y="438" type="line" name="n04"/>
      <point x="341.333" y="488" type="line"/>
      <point x="382.667" y="488" type="line"/>
      <point x="361.667" y="383" type="line" name="n07"/>
      <point x="46.6667" y="383" type="line"/>
      <point x="55.6667" y="426.333" type="line"/>
      <point x="242" y="548.333"/>
      <point x="329.667" y="610.333"/>
      <point x="329.667" y="695" type="curve" smooth="yes" name="n12"/>
      <point x="329.667" y="738"/>
      <point x="302" y="754.667"/>
      <point x="268" y="754.667" type="curve" smooth="yes" name="n15"/>
      <point x="244" y="754.667"/>
      <point x="223.333" y="745.667"/>
      <point x="216.667" y="742.333" type="curve"/>
      <point x="203.333" y="680.333" type="line"/>
      <point x="200.667" y="678.667"/>
      <point x="189" y="667.667"/>
      <point x="165.333" y="667.667" type="curve" smooth="yes"/>
      <point x="150.333" y="667.667"/>
      <point x="126.333" y="675.333"/>
      <point x="126.333" y="698.667" type="curve" smooth="yes"/>
      <point x="126.333" y="749"/>
      <point x="200.667" y="793"/>
      <point x="287.667" y="793" type="curve" smooth="yes" name="n28"/>
      <point x="356.333" y="793"/>
      <point x="410.333" y="768"/>
    </contour>
  </outline>
</glyph>
<glyph name="paragraph" format="2">
  <advance width="502"/>
  <unicode hex="00B6"/>
  <outline>
    <contour>
      <point x="499.333" y="628" type="line"/>
      <point x="437.333" y="618" type="line"/>
      <point x="437.333" y="-79" type="line" name="n02"/>
      <point x="381" y="-79" type="line" name="n03"/>
      <point x="381" y="622.333" type="line"/>
      <point x="304.333" y="622.333" type="line" name="n05"/>
      <point x="304.333" y="277.333" type="line"/>
      <point x="155.667" y="277.333"/>
      <point x="51" y="316"/>
      <point x="51" y="473" type="curve" smooth="yes" name="n09"/>
      <point x="51" y="621.667"/>
      <point x="139.667" y="671"/>
      <point x="290" y="671" type="curve" smooth="yes" name="n12"/>
      <point x="499.333" y="671" type="line"/>
    </contour>
  </outline>
</glyph>
<glyph name="onesuperior" format="2">
  <advance width="370"/>
  <unicode hex="00B9"/>
  <outline>
    <contour>
      <point x="341" y="793" type="line" name="n00"/>
      <point x="266" y="434" type="line" smooth="yes"/>
      <point x="264.165" y="425.366"/>
      <point x="269.325" y="420.225"/>
      <point x="279.667" y="419.333" type="curve" smooth="yes" name="n04"/>
      <point x="324.667" y="416" type="line"/>
      <point x="324.667" y="383" type="line" name="n06"/>
      <point x="117.667" y="383" type="line"/>
      <point x="117.667" y="416.667" type="line"/>
      <point x="176.333" y="419.333" type="line" smooth="yes"/>
      <point x="187.667" y="420"/>
      <point x="193.333" y="425.333"/>
      <point x="195" y="434.333" type="curve" smooth="yes"/>
      <point x="256.333" y="732" type="line"/>
      <point x="159" y="720.667" type="line"/>
      <point x="159" y="753" type="line"/>
      <point x="312.333" y="793" type="line"/>
    </contour>
  </outline>
</glyph>
<glyph name="ordmasculine" format="2">
  <advance width="339"/>
  <unicode hex="00BA"/>
  <outline>
    <contour>
      <point x="371" y="563.667" type="curve" smooth="yes" name="n00"/>
      <point x="371" y="467.667"/>
      <point x="299.333" y="376"/>
      <point x="192.667" y="376" type="curve" smooth="yes" name="n03"/>
      <point x="115.333" y="376"/>
      <point x="72.6667" y="421"/>
      <point x="72.6667" y="489.667" type="curve" smooth="yes" name="n06"/>
      <point x="72.6667" y="585.667"/>
      <point x="141.667" y="680.333"/>
      <point x="249.667" y="680.333" type="curve" smooth="yes" name="n09"/>
      <point x="318.333" y="680.333"/>
      <point x="371" y="643.667"/>
    </contour>
    <contour>
      <point x="331" y="341" type="line" name="n12"/>
      <point x="323.333" y="303.333" type="line" name="n13"/>
      <point x="33.6667" y="303.333" type="line"/>
      <point x="41.6667" y="341" type="line"/>
    </contour>
    <contour>
      <point x="295.667" y="565.667" type="curve" smooth="yes" name="n16"/>
      <point x="295.667" y="623.333"/>
      <point x="270" y="652.333"/>
      <point x="242.333" y="652.333" type="curve" smooth="yes" name="n19"/>
      <point x="192" y="652.333"/>
      <point x="147.667" y="571.667"/>
      <point x="147.667" y="492.667" type="curve" smooth="yes" name="n22"/>
      <point x="147.667" y="432"/>
      <point x="174" y="405"/>
      <point x="200.333" y="405" type="curve" smooth="yes" name="n25"/>
      <point x="257" y="405"/>
      <point x="295.667" y="493.667"/>
    </contour>
  </outline>
</glyph>
<glyph name="germandbls" format="2">
  <advance width="570"/>
  <unicode hex="00DF"/>
  <outline>
    <contour>
      <point x="548.333" y="604" type="curve" smooth="yes" name="n00"/>
      <point x="548.333" y="545.667"/>
      <point x="529.667" y="486.333"/>
      <point x="513.667" y="431" type="curve"/>
      <point x="481" y="434"/>
      <point x="469.333" y="434.667"/>
      <point x="457.667" y="434.667" type="curve" smooth="yes"/>
      <point x="431.333" y="434.667" name="hr01"/>
      <point x="360.333" y="425.667"/>
      <point x="360.333" y="368.667" type="curve" smooth="yes" name="n09"/>
      <point x="360.333" y="332"/>
      <point x="404.667" y="301"/>
      <point x="448.333" y="266.667" type="curve" smooth="yes"/>
      <point x="492.333" y="232.333"/>
      <point x="535.333" y="195.333"/>
      <point x="535.333" y="146" type="curve" smooth="yes" name="n15"/>
      <point x="535.333" y="48.6667"/>
      <point x="449.667" y="-12.6667"/>
      <point x="338.667" y="-12.6667" type="curve" smooth="yes" name="n18"/>
      <point x="263.667" y="-12.6667"/>
      <point x="198.333" y="14.3333"/>
      <point x="198.333" y="81.6667" type="curve" smooth="yes"/>
      <point x="198.333" y="110.667"/>
      <point x="223.333" y="139"/>
      <point x="264.667" y="139" type="curve" smooth="yes" name="n24"/>
      <point x="293.333" y="139"/>
      <point x="299.667" y="129"/>
      <point x="315.667" y="118.667" type="curve"/>
      <point x="297.667" y="63.6667" type="line"/>
      <point x="317.333" y="39.3333"/>
      <point x="333" y="31.6667" name="hr02"/>
      <point x="354.667" y="31.6667" type="curve" smooth="yes" name="n31"/>
      <point x="395.667" y="31.6667"/>
      <point x="431" y="60"/>
      <point x="431" y="113.667" type="curve" smooth="yes" name="n34"/>
      <point x="431" y="152.667"/>
      <point x="394.333" y="179.667"/>
      <point x="348.333" y="214.667" type="curve" smooth="yes"/>
      <point x="307" y="246.667"/>
      <point x="267" y="280.667"/>
      <point x="267" y="332.667" type="curve" smooth="yes" name="n40"/>
      <point x="267" y="414"/>
      <point x="338.333" y="471.667"/>
      <point x="429.333" y="481.333" type="curve"/>
      <point x="441" y="523"/>
      <point x="451" y="565.333" name="hr03"/>
      <point x="451" y="606" type="curve" smooth="yes" name="n46"/>
      <point x="451" y="659"/>
      <point x="418.667" y="685"/>
      <point x="376" y="685" type="curve" smooth="yes" name="n49"/>
      <point x="294.333" y="685"/>
      <point x="241" y="601.333"/>
      <point x="211.667" y="492" type="curve" smooth="yes"/>
      <point x="164.333" y="316"/>
      <point x="179" y="133.667"/>
      <point x="115.667" y="-40.3333" type="curve" smooth="yes"/>
      <point x="91.3333" y="-105.667"/>
      <point x="-6.33333" y="-229" name="n57"/>
      <point x="-91" y="-229" type="curve" smooth="yes"/>
      <point x="-135" y="-229"/>
      <point x="-160" y="-206.667"/>
      <point x="-160" y="-173.667" type="curve" smooth="yes"/>
      <point x="-160" y="-157.333"/>
      <point x="-151" y="-142.333"/>
      <point x="-130" y="-126.333" type="curve"/>
      <point x="-28" y="-153.333" type="line"/>
      <point x="11" y="-110.667"/>
      <point x="34" y="18.6667"/>
      <point x="41" y="63.6667" type="curve" smooth="yes"/>
      <point x="99.3333" y="454.333" type="line" smooth="yes"/>
      <point x="121" y="596.333"/>
      <point x="201.667" y="737"/>
      <point x="382" y="737" type="curve" smooth="yes" name="n72"/>
      <point x="484" y="737"/>
      <point x="548.333" y="689.667"/>
    </contour>
  </outline>
</glyph>
<glyph name="eth" format="2">
  <advance width="519"/>
  <unicode hex="00F0"/>
  <outline>
    <contour>
      <point x="499" y="655.333" type="line"/>
      <point x="387" y="610.333" type="line"/>
      <point x="433.667" y="527.667"/>
      <point x="481.667" y="399.667"/>
      <point x="481.667" y="294.333" type="curve" smooth="yes" name="n04"/>
      <point x="481.667" y="177.333"/>
      <point x="417.667" y="-12"/>
      <point x="217" y="-12" type="curve" smooth="yes" name="n07"/>
      <point x="103.333" y="-12"/>
      <point x="32" y="62.6667"/>
      <point x="32" y="180" type="curve" smooth="yes" name="n10"/>
      <point x="32" y="342.667"/>
      <point x="136.333" y="495"/>
      <point x="296" y="495" type="curve" smooth="yes" name="n13"/>
      <point x="309.333" y="495"/>
      <point x="322.333" y="490.667"/>
      <point x="334.667" y="484.333" type="curve"/>
      <point x="322" y="516.333"/>
      <point x="303.333" y="556.333"/>
      <point x="294.667" y="575" type="curve"/>
      <point x="155" y="518.333" type="line"/>
      <point x="134.667" y="568.333" type="line"/>
      <point x="265.667" y="618.333" type="line"/>
      <point x="231.667" y="666" type="line"/>
      <point x="154" y="686" type="line"/>
      <point x="158" y="717.333" type="line"/>
      <point x="300" y="738" type="line"/>
      <point x="358.333" y="655.333" type="line"/>
      <point x="477.333" y="702.333" type="line"/>
    </contour>
    <contour>
      <point x="370" y="291.333" type="curve" smooth="yes" name="n29"/>
      <point x="370" y="354"/>
      <point x="362.333" y="393.667"/>
      <point x="350" y="434.333" type="curve"/>
      <point x="340.333" y="442.333"/>
      <point x="327.333" y="449"/>
      <point x="307" y="449" type="curve" smooth="yes" name="n35"/>
      <point x="196.667" y="449"/>
      <point x="146.667" y="299"/>
      <point x="146.667" y="184" type="curve" smooth="yes" name="n38"/>
      <point x="146.667" y="78.6667"/>
      <point x="193.667" y="37"/>
      <point x="229" y="37" type="curve" smooth="yes" name="n41"/>
      <point x="317" y="37"/>
      <point x="370" y="172"/>
    </contour>
  </outline>
</glyph>
<glyph name="oslash" format="2">
  <advance width="521"/>
  <unicode hex="00F8"/>
  <outline>
    <contour>
      <point x="490.667" y="301" type="curve" smooth="yes" name="n00"/>
      <point x="490.667" y="140.667"/>
      <point x="380" y="-12"/>
      <point x="216.667" y="-12" type="curve" smooth="yes" name="n03"/>
      <point x="189.333" y="-12"/>
      <point x="165" y="-7.33333"/>
      <point x="143" y="0" type="curve"/>
      <point x="86.6667" y="-88.6667" type="line"/>
      <point x="45" y="-60.6667" type="line"/>
      <point x="98.3333" y="23.6667" type="line"/>
      <point x="54.6667" y="56.6667"/>
      <point x="31.3333" y="110.333"/>
      <point x="31.3333" y="178.333" type="curve" smooth="yes" name="n12"/>
      <point x="31.3333" y="338.667"/>
      <point x="137.667" y="496"/>
      <point x="304" y="496" type="curve" smooth="yes" name="n15"/>
      <point x="333.333" y="496"/>
      <point x="361" y="490.667"/>
      <point x="385.333" y="480.667" type="curve"/>
      <point x="432.667" y="555.667" type="line"/>
      <point x="478" y="528.333" type="line"/>
      <point x="430.667" y="454" type="line"/>
      <point x="468" y="422"/>
      <point x="490.667" y="371.667"/>
    </contour>
    <contour>
      <point x="346.667" y="418.667" type="line"/>
      <point x="331.333" y="439.333"/>
      <point x="312.333" y="449.667"/>
      <point x="293" y="449.667" type="curve" smooth="yes" name="n27"/>
      <point x="214.667" y="449.667"/>
      <point x="146.333" y="314.667"/>
      <point x="146.333" y="183" type="curve" smooth="yes" name="n30"/>
      <point x="146.333" y="155.667"/>
      <point x="150" y="133.333"/>
      <point x="156" y="114.667" type="curve"/>
    </contour>
    <contour>
      <point x="375.333" y="305" type="curve" smooth="yes" name="n34"/>
      <point x="375.333" y="325"/>
      <point x="373.333" y="343"/>
      <point x="370" y="358.333" type="curve"/>
      <point x="181.333" y="60.6667" type="line"/>
      <point x="195.667" y="44"/>
      <point x="212.333" y="36.3333"/>
      <point x="228.667" y="36.3333" type="curve" smooth="yes" name="n41"/>
      <point x="315.333" y="36.3333"/>
      <point x="375.333" y="185.333"/>
    </contour>
  </outline>
</glyph>
<glyph name="thorn" format="2">
  <advance width="510"/>
  <unicode hex="00FE"/>
  <outline>
    <contour>
      <point x="477.667" y="309.667" type="curve" smooth="yes" name="n00"/>
      <point x="477.667" y="147"/>
      <point x="356" y="-12"/>
      <point x="184" y="-12" type="curve" smooth="yes" name="n03"/>
      <point x="156" y="-12"/>
      <point x="133" y="-3.33333"/>
      <point x="118" y="2.66667" type="curve"/>
      <point x="86.6667" y="-154" type="line" smooth="yes"/>
      <point x="84.6667" y="-164.333"/>
      <point x="89.3333" y="-171.333"/>
      <point x="105" y="-172.667" type="curve" smooth="yes"/>
      <point x="170" y="-178" type="line"/>
      <point x="170" y="-218.333" type="line"/>
      <point x="-96" y="-218.333" type="line"/>
      <point x="-96" y="-178" type="line"/>
      <point x="-82.927" y="-176.749"/>
      <point x="-41.3333" y="-173"/>
      <point x="-41.3333" y="-173" type="curve"/>
      <point x="-29.3333" y="-172"/>
      <point x="-21.6667" y="-165.667"/>
      <point x="-19.6667" y="-154" type="curve" smooth="yes"/>
      <point x="140.333" y="665.667" type="line"/>
      <point x="56.6667" y="674.667" type="line"/>
      <point x="56.6667" y="706.333" type="line"/>
      <point x="212.333" y="737" type="line" name="n24"/>
      <point x="260.667" y="737" type="line"/>
      <point x="203.333" y="442.333" type="line"/>
      <point x="233" y="461"/>
      <point x="284.333" y="496"/>
      <point x="339.333" y="496" type="curve" smooth="yes" name="n29"/>
      <point x="441.667" y="496"/>
      <point x="477.667" y="399.333"/>
    </contour>
    <contour>
      <point x="365" y="305.667" type="curve" smooth="yes" name="n32"/>
      <point x="365" y="363.667"/>
      <point x="346.667" y="432"/>
      <point x="293" y="432" type="curve" smooth="yes" name="n35"/>
      <point x="251.667" y="432"/>
      <point x="203.667" y="386.667"/>
      <point x="190.333" y="375.333" type="curve"/>
      <point x="130" y="66" type="line"/>
      <point x="143.333" y="58"/>
      <point x="174.333" y="37"/>
      <point x="203.667" y="37" type="curve" smooth="yes" name="n42"/>
      <point x="304.333" y="37"/>
      <point x="365" y="192.667"/>
    </contour>
  </outline>
</glyph>
<glyph name="Hbar" format="2">
  <advance width="739"/>
  <unicode hex="0126"/>
  <outline>
    <contour>
      <point x="781" y="626.333" type="line"/>
      <point x="721" y="621" type="line" smooth="yes"/>
      <point x="709.002" y="619.977"/>
      <point x="701.667" y="614.333"/>
      <point x="699" y="602.667" type="curve"/>
      <point x="684.667" y="530" type="line"/>
      <point x="755" y="530" type="line" name="n06"/>
      <point x="755" y="477" type="line" name="n07"/>
      <point x="674.333" y="477" type="line"/>
      <point x="595" y="67.3333" type="line" smooth="yes"/>
      <point x="593" y="57"/>
      <point x="597.667" y="50.6667"/>
      <point x="614" y="49.6667" type="curve" name="n12"/>
      <point x="614" y="49.6667"/>
      <point x="652.143" y="46.4872"/>
      <point x="671" y="44.6667" type="curve"/>
      <point x="671" y="0" type="line" name="n16"/>
      <point x="396" y="0" type="line"/>
      <point x="396" y="44.6667" type="line"/>
      <point x="416.347" y="46.5011"/>
      <point x="456.667" y="49.6667"/>
      <point x="456.667" y="49.6667" type="curve"/>
      <point x="468.667" y="50.6667"/>
      <point x="477.802" y="55.7023"/>
      <point x="480" y="67.6667" type="curve" smooth="yes"/>
      <point x="529.667" y="324.333" type="line" name="n25"/>
      <point x="231.667" y="324.333" type="line"/>
      <point x="182" y="67.3333" type="line" smooth="yes"/>
      <point x="180" y="56.6667"/>
      <point x="183.667" y="50.6667"/>
      <point x="200.667" y="49.6667" type="curve"/>
      <point x="200.667" y="49.6667"/>
      <point x="239.815" y="46.4872"/>
      <point x="259" y="44.6667" type="curve"/>
      <point x="259" y="0" type="line"/>
      <point x="-15" y="0" type="line"/>
      <point x="-15" y="44.6667" type="line"/>
      <point x="4.51375" y="46.5012"/>
      <point x="43" y="49.6667"/>
      <point x="43" y="49.6667" type="curve"/>
      <point x="56.3333" y="50.6667"/>
      <point x="64.3333" y="55.6667"/>
      <point x="67" y="67.6667" type="curve"/>
      <point x="146" y="477" type="line"/>
      <point x="81.3333" y="477" type="line"/>
      <point x="81.3333" y="530" type="line"/>
      <point x="156.667" y="530" type="line"/>
      <point x="171" y="603" type="line" smooth="yes"/>
      <point x="173" y="614.333"/>
      <point x="168" y="620.333"/>
      <point x="151.333" y="621.333" type="curve" name="n50"/>
      <point x="151.333" y="621.333"/>
      <point x="113.519" y="624.513"/>
      <point x="95" y="626.333" type="curve"/>
      <point x="95" y="671" type="line" name="n54"/>
      <point x="369" y="671" type="line"/>
      <point x="369" y="626.333" type="line"/>
      <point x="348.82" y="624.499"/>
      <point x="309" y="621.333"/>
      <point x="309" y="621.333" type="curve"/>
      <point x="296.667" y="620.333"/>
      <point x="288" y="615.333"/>
      <point x="286" y="602.667" type="curve"/>
      <point x="271.667" y="530" type="line"/>
      <point x="569.667" y="530" type="line"/>
      <point x="584" y="603" type="line" smooth="yes"/>
      <point x="586" y="614.333"/>
      <point x="581" y="620.667"/>
      <point x="563.667" y="621.667" type="curve"/>
      <point x="563.667" y="621.667"/>
      <point x="524.52" y="624.557"/>
      <point x="507" y="626.333" type="curve"/>
      <point x="507" y="671" type="line"/>
      <point x="781" y="671" type="line"/>
    </contour>
    <contour>
      <point x="242.333" y="377.667" type="line"/>
      <point x="540.333" y="377.667" type="line" name="n75"/>
      <point x="560" y="477" type="line"/>
      <point x="262" y="477" type="line"/>
    </contour>
  </outline>
</glyph>
<glyph name="lacute" format="2">
  <advance width="279"/>
  <unicode hex="013A"/>
  <outline>
    <contour>
      <point x="276.667" y="27" type="line"/>
      <point x="250" y="14.6667"/>
      <point x="179.333" y="-12"/>
      <point x="130.667" y="-12" type="curve" smooth="yes" name="n03"/>
      <point x="68" y="-12"/>
      <point x="39" y="18"/>
      <point x="39" y="62" type="curve" smooth="yes"/>
      <point x="39" y="72.3333"/>
      <point x="40" y="84.3333"/>
      <point x="42.3333" y="97.3333" type="curve" smooth="yes"/>
      <point x="152" y="665.667" type="line"/>
      <point x="63.3333" y="674.333" type="line"/>
      <point x="63.3333" y="706.333" type="line"/>
      <point x="223.667" y="737" type="line"/>
      <point x="271.667" y="737" type="line"/>
      <point x="149.333" y="100" type="line" smooth="yes"/>
      <point x="144.667" y="74.3333"/>
      <point x="161.667" y="47"/>
      <point x="188.667" y="47" type="curve" smooth="yes" name="n18"/>
      <point x="206.667" y="47"/>
      <point x="253.667" y="61.3333"/>
      <point x="276.667" y="70.3333" type="curve"/>
    </contour>
    <contour>
      <point x="412" y="920.667" type="curve" smooth="yes"/>
      <point x="412" y="903.667"/>
      <point x="402" y="888.667"/>
      <point x="387" y="879.333" type="curve" smooth="yes"/>
      <point x="234.333" y="785" type="line"/>
      <point x="163.333" y="785" type="line"/>
      <point x="300" y="939.667" type="line" smooth="yes"/>
      <point x="316" y="958"/>
      <point x="330.667" y="966.667" name="n30"/>
      <point x="359.667" y="966.667" type="curve" smooth="yes"/>
      <point x="397.333" y="966.667"/>
      <point x="412" y="942"/>
    </contour>
  </outline>
</glyph>
<glyph name="Lcedilla" format="2">
  <advance width="532"/>
  <unicode hex="013B"/>
  <outline>
    <contour>
      <point x="498" y="190.667" type="line"/>
      <point x="460.667" y="0" type="line" name="n01"/>
      <point x="-15" y="0" type="line"/>
      <point x="-15" y="44.6667" type="line"/>
      <point x="3.18822" y="46.4588"/>
      <point x="42.6667" y="49.3333"/>
      <point x="42.6667" y="49.3333" type="curve"/>
      <point x="57.6667" y="50.6667"/>
      <point x="65" y="55.3333"/>
      <point x="67" y="67.6667" type="curve"/>
      <point x="171" y="603" type="line" smooth="yes"/>
      <point x="173.333" y="614"/>
      <point x="168" y="620.333"/>
      <point x="153" y="621.333" type="curve"/>
      <point x="153" y="621.333"/>
      <point x="114.857" y="624.513"/>
      <point x="96" y="626.333" type="curve"/>
      <point x="96" y="671" type="line" name="n17"/>
      <point x="370" y="671" type="line"/>
      <point x="370" y="626.333" type="line"/>
      <point x="349.004" y="624.486"/>
      <point x="309" y="621.333"/>
      <point x="309" y="621.333" type="curve"/>
      <point x="296" y="620.333"/>
      <point x="288.333" y="613.333"/>
      <point x="286" y="602.667" type="curve" smooth="yes"/>
      <point x="180" y="53.3333" type="line" name="hr01"/>
      <point x="370" y="53.3333" type="line" smooth="yes" name="n27"/>
      <point x="382" y="53.3333"/>
      <point x="392.481" y="60.619"/>
      <point x="396" y="71.3333" type="curve" smooth="yes"/>
      <point x="433.667" y="190.667" type="line" name="n31"/>
    </contour>
    <contour>
      <point x="253.333" y="-123.333" type="curve" smooth="yes" name="n32"/>
      <point x="253.333" y="-206.667"/>
      <point x="172.333" y="-256"/>
      <point x="98.6667" y="-269.667" type="curve"/>
      <point x="105.333" y="-233.667" type="line"/>
      <point x="152.667" y="-220"/>
      <point x="180.667" y="-201.333"/>
      <point x="190.667" y="-151" type="curve" name="n39"/>
      <point x="134.333" y="-151" type="line"/>
      <point x="127.333" y="-143.333"/>
      <point x="124.667" y="-132.333"/>
      <point x="124.667" y="-122.333" type="curve" smooth="yes" name="n43"/>
      <point x="124.667" y="-85"/>
      <point x="157.333" y="-61"/>
      <point x="192" y="-61" type="curve" smooth="yes" name="n46"/>
      <point x="230.333" y="-61"/>
      <point x="253.333" y="-85.3333"/>
    </contour>
  </outline>
</glyph>
<glyph name="lcedilla" format="2">
  <advance width="279"/>
  <unicode hex="013C"/>
  <outline>
    <contour>
      <point x="276.667" y="27" type="line"/>
      <point x="250" y="14.6667"/>
      <point x="179.333" y="-12"/>
      <point x="130.667" y="-12" type="curve" smooth="yes" name="n03"/>
      <point x="68" y="-12"/>
      <point x="39" y="18"/>
      <point x="39" y="62" type="curve" smooth="yes"/>
      <point x="39" y="72.3333"/>
      <point x="40" y="84.3333"/>
      <point x="42.3333" y="97.3333" type="curve" smooth="yes"/>
      <point x="152" y="665.667" type="line"/>
      <point x="63.3333" y="674.333" type="line"/>
      <point x="63.3333" y="706.333" type="line"/>
      <point x="223.667" y="737" type="line" name="n13"/>
      <point x="271.667" y="737" type="line"/>
      <point x="149.333" y="100" type="line" smooth="yes"/>
      <point x="144.667" y="74.3333"/>
      <point x="161.667" y="47"/>
      <point x="188.667" y="47" type="curve" smooth="yes" name="n18"/>
      <point x="206.667" y="47"/>
      <point x="253.667" y="61.3333"/>
      <point x="276.667" y="70.3333" type="curve"/>
    </contour>
    <contour>
      <point x="134.333" y="-123.333" type="curve" smooth="yes" name="n22"/>
      <point x="134.333" y="-206.667"/>
      <point x="53" y="-256"/>
      <point x="-20.6667" y="-269.667" type="curve"/>
      <point x="-13.6667" y="-233.667" type="line"/>
      <point x="33.6667" y="-220"/>
      <point x="61.6667" y="-201.333"/>
      <point x="71.6667" y="-151" type="curve" name="n29"/>
      <point x="15.3333" y="-151" type="line"/>
      <point x="8.33333" y="-143.333"/>
      <point x="5.33333" y="-132.333"/>
      <point x="5.33333" y="-122.333" type="curve" smooth="yes" name="n33"/>
      <point x="5.33333" y="-85"/>
      <point x="38" y="-61"/>
      <point x="72.6667" y="-61" type="curve" smooth="yes" name="n36"/>
      <point x="111" y="-61"/>
      <point x="134.333" y="-85.3333"/>
    </contour>
  </outline>
</glyph>
<glyph name="Lcaron" format="2">
  <advance width="532"/>
  <unicode hex="013D"/>
  <outline>
    <contour>
      <point x="498" y="190.667" type="line"/>
      <point x="460.667" y="0" type="line" name="n01"/>
      <point x="-15" y="0" type="line"/>
      <point x="-15" y="44.6667" type="line"/>
      <point x="3.18822" y="46.4588"/>
      <point x="42.6667" y="49.3333"/>
      <point x="42.6667" y="49.3333" type="curve"/>
      <point x="57.6667" y="50.6667"/>
      <point x="65" y="55.3333"/>
      <point x="67" y="67.6667" type="curve"/>
      <point x="171" y="603" type="line" smooth="yes"/>
      <point x="173.333" y="614"/>
      <point x="168" y="620.333"/>
      <point x="153" y="621.333" type="curve"/>
      <point x="153" y="621.333"/>
      <point x="114.857" y="624.513"/>
      <point x="96" y="626.333" type="curve"/>
      <point x="96" y="671" type="line" name="n17"/>
      <point x="370" y="671" type="line"/>
      <point x="370" y="626.333" type="line" name="hr02"/>
      <point x="349.004" y="624.486"/>
      <point x="309" y="621.333"/>
      <point x="309" y="621.333" type="curve"/>
      <point x="296" y="620.333"/>
      <point x="288.333" y="613.333"/>
      <point x="286" y="602.667" type="curve" smooth="yes"/>
      <point x="180" y="53.3333" type="line"/>
      <point x="370" y="53.3333" type="line" smooth="yes" name="n27"/>
      <point x="382" y="53.3333"/>
      <point x="392.481" y="60.619"/>
      <point x="396" y="71.3333" type="curve" smooth="yes"/>
      <point x="433.667" y="190.667" type="line" name="n31"/>
    </contour>
    <contour>
      <point x="555.333" y="653.333" type="curve" smooth="yes" name="n32"/>
      <point x="555.333" y="569.333"/>
      <point x="475" y="520.667"/>
      <point x="401.333" y="507" type="curve"/>
      <point x="408" y="542.333" type="line"/>
      <point x="455" y="556.667"/>
      <point x="483.333" y="575.333"/>
      <point x="493.333" y="625.667" type="curve" name="n39"/>
      <point x="437" y="625.667" type="line"/>
      <point x="430" y="633.333"/>
      <point x="427.333" y="644.667"/>
      <point x="427.333" y="654.667" type="curve" smooth="yes" name="n43"/>
      <point x="427.333" y="691.333"/>
      <point x="460.333" y="715.667"/>
      <point x="494.667" y="715.667" type="curve" smooth="yes" name="n46"/>
      <point x="533" y="715.667"/>
      <point x="555.333" y="691.333"/>
    </contour>
  </outline>
</glyph>
<glyph name="Lslash" format="2">
  <advance width="532"/>
  <unicode hex="0141"/>
  <outline>
    <contour>
      <point x="498" y="190.667" type="line"/>
      <point x="460.667" y="0" type="line" name="n01"/>
      <point x="-15" y="0" type="line"/>
      <point x="-15" y="44.6667" type="line"/>
      <point x="3.18822" y="46.4588"/>
      <point x="42.6667" y="49.3333"/>
      <point x="42.6667" y="49.3333" type="curve"/>
      <point x="57.6667" y="50.6667"/>
      <point x="65" y="55.3333"/>
      <point x="67" y="67.6667" type="curve"/>
      <point x="104.333" y="261.333" type="line"/>
      <point x="18" y="212.333" type="line"/>
      <point x="-9.33333" y="267.667" type="line"/>
      <point x="120" y="339.333" type="line"/>
      <point x="171" y="603" type="line" smooth="yes"/>
      <point x="173.333" y="614"/>
      <point x="168" y="620.333"/>
      <point x="153" y="621.333" type="curve"/>
      <point x="153" y="621.333"/>
      <point x="114.857" y="624.513"/>
      <point x="96" y="626.333" type="curve"/>
      <point x="96" y="671" type="line" name="n21"/>
      <point x="370" y="671" type="line"/>
      <point x="370" y="626.333" type="line"/>
      <point x="349.004" y="624.486"/>
      <point x="309" y="621.333"/>
      <point x="309" y="621.333" type="curve"/>
      <point x="296" y="620.333"/>
      <point x="288.333" y="613.333"/>
      <point x="286" y="602.667" type="curve" smooth="yes"/>
      <point x="249" y="411.667" type="line"/>
      <point x="351.667" y="468.333" type="line"/>
      <point x="382.333" y="414.333" type="line"/>
      <point x="234" y="332.667" type="line"/>
      <point x="180" y="53.3333" type="line"/>
      <point x="370" y="53.3333" type="line" smooth="yes" name="n35"/>
      <point x="382" y="53.3333"/>
      <point x="392.481" y="60.619"/>
      <point x="396" y="71.3333" type="curve" smooth="yes"/>
      <point x="433.667" y="190.667" type="line" name="n39"/>
    </contour>
  </outline>
</glyph>
<glyph name="ncaron" format="2">
  <advance width="545"/>
  <unicode hex="0148"/>
  <outline>
    <contour>
      <point x="542.667" y="21" type="line"/>
      <point x="519.667" y="11.3333"/>
      <point x="444.667" y="-12" name="n02"/>
      <point x="401.333" y="-12" type="curve" smooth="yes"/>
      <point x="370.667" y="-12"/>
      <point x="302.667" y="-5.33333"/>
      <point x="313.667" y="48.3333" type="curve" smooth="yes"/>
      <point x="374.667" y="354.667" type="line" smooth="yes"/>
      <point x="384.667" y="406.333"/>
      <point x="359" y="422.333"/>
      <point x="337.333" y="422.333" type="curve" smooth="yes"/>
      <point x="305.667" y="422.333"/>
      <point x="242.667" y="382.667"/>
      <point x="199.333" y="337" type="curve"/>
      <point x="129.667" y="0" type="line" name="n14"/>
      <point x="23.3333" y="0" type="line"/>
      <point x="110.667" y="425" type="line"/>
      <point x="26.6667" y="433.667" type="line"/>
      <point x="26.6667" y="464.333" type="line"/>
      <point x="182" y="496" type="line" name="n19"/>
      <point x="231.667" y="496" type="line"/>
      <point x="215" y="414.667" type="line"/>
      <point x="260.667" y="455.667"/>
      <point x="330.667" y="496"/>
      <point x="392.667" y="496" type="curve" smooth="yes"/>
      <point x="474.667" y="496"/>
      <point x="504.333" y="455.333"/>
      <point x="488.333" y="367" type="curve" smooth="yes"/>
      <point x="435" y="85.3333" type="line" smooth="yes"/>
      <point x="428.333" y="49"/>
      <point x="460.333" y="44.3333"/>
      <point x="471.667" y="44.3333" type="curve" smooth="yes"/>
      <point x="490.667" y="44.3333"/>
      <point x="516" y="51.3333"/>
      <point x="541.333" y="60.3333" type="curve"/>
    </contour>
    <contour>
      <point x="533.667" y="720.667" type="line" name="n35"/>
      <point x="374.667" y="551" type="line"/>
      <point x="282.667" y="551" type="line"/>
      <point x="191.667" y="720.667" type="line"/>
      <point x="266" y="720.667" type="line"/>
      <point x="344.333" y="628" type="line"/>
      <point x="458.667" y="720.667" type="line"/>
    </contour>
  </outline>
</glyph>
<glyph name="Rcedilla" format="2">
  <advance width="655"/>
  <unicode hex="0156"/>
  <outline>
    <contour>
      <point x="629" y="1" type="line" name="n00"/>
      <point x="601" y="-11.3333"/>
      <point x="576.333" y="-16" name="hr01"/>
      <point x="549" y="-16" type="curve" smooth="yes" name="n03"/>
      <point x="427.333" y="-16"/>
      <point x="406.333" y="61.3333"/>
      <point x="389" y="145.667" type="curve" smooth="yes"/>
      <point x="374" y="214.333"/>
      <point x="360" y="294.667"/>
      <point x="272" y="294.667" type="curve" smooth="yes" name="n09"/>
      <point x="258" y="294.667"/>
      <point x="230.333" y="293.667"/>
      <point x="226.667" y="293.667" type="curve"/>
      <point x="184" y="67.3333" type="line" smooth="yes"/>
      <point x="182" y="57"/>
      <point x="186.333" y="50.6667"/>
      <point x="202" y="49.6667" type="curve"/>
      <point x="202" y="49.6667"/>
      <point x="241.503" y="46.152"/>
      <point x="261" y="44.6667" type="curve"/>
      <point x="261" y="0" type="line"/>
      <point x="-13" y="0" type="line"/>
      <point x="-13" y="44.6667" type="line"/>
      <point x="6.00639" y="46.1526"/>
      <point x="44.6667" y="49.3333"/>
      <point x="44.6667" y="49.3333" type="curve"/>
      <point x="57.3333" y="50.3333"/>
      <point x="66" y="55.3333"/>
      <point x="69" y="67.6667" type="curve"/>
      <point x="171" y="603" type="line" smooth="yes"/>
      <point x="173.333" y="614"/>
      <point x="168.333" y="620.333"/>
      <point x="152.667" y="621.333" type="curve"/>
      <point x="152.667" y="621.333"/>
      <point x="114.362" y="624.527"/>
      <point x="96" y="626.333" type="curve"/>
      <point x="96" y="671" type="line"/>
      <point x="371" y="671" type="line" smooth="yes" name="n37"/>
      <point x="489.667" y="671"/>
      <point x="595" y="636"/>
      <point x="595" y="522.333" type="curve" smooth="yes" name="n40"/>
      <point x="595" y="415.333"/>
      <point x="504.667" y="348.667"/>
      <point x="392.333" y="317" type="curve"/>
      <point x="472.667" y="282"/>
      <point x="482" y="230.667"/>
      <point x="501" y="155" type="curve" smooth="yes"/>
      <point x="519.667" y="81.6667"/>
      <point x="538.667" y="44"/>
      <point x="629" y="44" type="curve" name="n49"/>
    </contour>
    <contour>
      <point x="468" y="508" type="curve" smooth="yes" name="n50"/>
      <point x="468" y="605"/>
      <point x="373.333" y="621"/>
      <point x="311.667" y="618.333" type="curve" smooth="yes" name="n53"/>
      <point x="307.388" y="618.258"/>
      <point x="293.801" y="617.091"/>
      <point x="288.667" y="617" type="curve"/>
      <point x="238.333" y="348.667" type="line"/>
      <point x="243.344" y="348.667"/>
      <point x="261.333" y="349"/>
      <point x="261.333" y="349" type="curve" name="n60"/>
      <point x="358.667" y="350"/>
      <point x="468" y="385.333"/>
    </contour>
    <contour>
      <point x="287.333" y="-123.333" type="curve" smooth="yes" name="n63"/>
      <point x="287.333" y="-206.667"/>
      <point x="206" y="-256"/>
      <point x="132.333" y="-269.667" type="curve"/>
      <point x="139" y="-233.667" type="line"/>
      <point x="186.333" y="-220"/>
      <point x="214.333" y="-201.333"/>
      <point x="224.333" y="-151" type="curve" name="n70"/>
      <point x="168" y="-151" type="line"/>
      <point x="161" y="-143.333"/>
      <point x="158.333" y="-132.333"/>
      <point x="158.333" y="-122.333" type="curve" smooth="yes" name="n74"/>
      <point x="158.333" y="-85"/>
      <point x="191" y="-61"/>
      <point x="225.667" y="-61" type="curve" smooth="yes" name="n77"/>
      <point x="264" y="-61"/>
      <point x="287.333" y="-85.3333"/>
    </contour>
  </outline>
</glyph>
<glyph name="rcedilla" format="2">
  <advance width="389"/>
  <unicode hex="0157"/>
  <outline>
    <contour>
      <point x="424.667" y="427.667" type="curve" smooth="yes"/>
      <point x="424.667" y="381"/>
      <point x="392.333" y="369.333"/>
      <point x="333.667" y="369.333" type="curve" name="n03"/>
      <point x="308.667" y="419.333" type="line"/>
      <point x="255" y="395"/>
      <point x="190.313" y="314.671"/>
      <point x="178.333" y="256" type="curve" smooth="yes"/>
      <point x="125" y="0" type="line" name="n08"/>
      <point x="18.6667" y="0" type="line"/>
      <point x="105.333" y="424.333" type="line"/>
      <point x="21.3333" y="433.333" type="line"/>
      <point x="21.3333" y="464.333" type="line"/>
      <point x="177.333" y="496" type="line"/>
      <point x="227" y="496" type="line"/>
      <point x="208.667" y="406.333" type="line"/>
      <point x="248" y="460.667"/>
      <point x="300" y="496"/>
      <point x="356.667" y="496" type="curve" smooth="yes" name="n18"/>
      <point x="406" y="496"/>
      <point x="424.667" y="455.333"/>
    </contour>
    <contour>
      <point x="102.333" y="-123.333" type="curve" smooth="yes" name="n21"/>
      <point x="102.333" y="-206.667"/>
      <point x="21.3333" y="-256"/>
      <point x="-52.3333" y="-269.667" type="curve"/>
      <point x="-45.6667" y="-233.667" type="line"/>
      <point x="1.66667" y="-220"/>
      <point x="29.6667" y="-201.333"/>
      <point x="39.6667" y="-151" type="curve" name="n28"/>
      <point x="-16.6667" y="-151" type="line"/>
      <point x="-23.6667" y="-143.333"/>
      <point x="-26.3333" y="-132.333"/>
      <point x="-26.3333" y="-122.333" type="curve" smooth="yes" name="n32"/>
      <point x="-26.3333" y="-85"/>
      <point x="6.33333" y="-61"/>
      <point x="41" y="-61" type="curve" smooth="yes" name="n35"/>
      <point x="79.3333" y="-61"/>
      <point x="102.333" y="-85.3333"/>
    </contour>
  </outline>
</glyph>
<glyph name="tcaron" format="2">
  <advance width="314"/>
  <unicode hex="0165"/>
  <outline>
    <contour>
      <point x="363.667" y="418.667" type="line" name="n00"/>
      <point x="216" y="418.667" type="line" name="n01"/>
      <point x="153" y="106.333" type="line" smooth="yes"/>
      <point x="146" y="72.6667"/>
      <point x="171.667" y="51.6667"/>
      <point x="204.667" y="51.6667" type="curve" smooth="yes" name="n05"/>
      <point x="240.333" y="51.6667"/>
      <point x="291" y="71"/>
      <point x="315.667" y="79.3333" type="curve"/>
      <point x="315.667" y="34.3333" type="line"/>
      <point x="297" y="26.3333"/>
      <point x="205" y="-12"/>
      <point x="145.333" y="-12" type="curve" smooth="yes" name="n12"/>
      <point x="71.6667" y="-12"/>
      <point x="44.6667" y="25.3333"/>
      <point x="44.6667" y="75.3333" type="curve" smooth="yes"/>
      <point x="44.6667" y="88.3333"/>
      <point x="45.6667" y="102"/>
      <point x="48.6667" y="116" type="curve" smooth="yes"/>
      <point x="109.667" y="418" type="line"/>
      <point x="43.6667" y="411.333" type="line"/>
      <point x="43.6667" y="447" type="line"/>
      <point x="122" y="480.333" type="line"/>
      <point x="171.667" y="581.333" type="line" name="hr01"/>
      <point x="245.667" y="581.333" type="line" name="n24"/>
      <point x="225.333" y="467.667" type="line" name="hr02"/>
      <point x="363.667" y="467.667" type="line" name="n26"/>
    </contour>
    <contour>
      <point x="450" y="694" type="curve" smooth="yes" name="n27"/>
      <point x="450" y="610"/>
      <point x="369.667" y="561.333"/>
      <point x="296" y="547.667" type="curve"/>
      <point x="303" y="583" type="line"/>
      <point x="350" y="597.333"/>
      <point x="378.333" y="616"/>
      <point x="388.333" y="666.333" type="curve" name="n34"/>
      <point x="332" y="666.333" type="line"/>
      <point x="325" y="674"/>
      <point x="321.333" y="685.333"/>
      <point x="321.333" y="695.333" type="curve" smooth="yes" name="n38"/>
      <point x="321.333" y="732"/>
      <point x="355" y="756.333"/>
      <point x="389.333" y="756.333" type="curve" smooth="yes" name="n41"/>
      <point x="427.667" y="756.333"/>
      <point x="450" y="732"/>
    </contour>
  </outline>
</glyph>
<glyph name="uni0180" format="2">
  <advance width="505"/>
  <unicode hex="0180"/>
  <outline>
    <contour>
      <point x="473.667" y="310.333" type="curve" smooth="yes" name="n00"/>
      <point x="473.667" y="188"/>
      <point x="396.667" y="-12"/>
      <point x="185" y="-12" type="curve" smooth="yes" name="n03"/>
      <point x="123.667" y="-12"/>
      <point x="65.3333" y="5"/>
      <point x="18" y="35.3333" type="curve"/>
      <point x="111" y="534.667" type="line"/>
      <point x="37.3333" y="534.667" type="line" name="n08"/>
      <point x="48.3333" y="593.333" type="line" name="n09"/>
      <point x="122.667" y="593.333" type="line"/>
      <point x="135.667" y="665.667" type="line"/>
      <point x="47" y="674.333" type="line"/>
      <point x="47" y="706.333" type="line"/>
      <point x="207.333" y="737" type="line" name="n14"/>
      <point x="256.667" y="737" type="line"/>
      <point x="228.333" y="593.333" type="line"/>
      <point x="358.667" y="593.333" type="line"/>
      <point x="346.333" y="534.667" type="line"/>
      <point x="217.667" y="534.667" type="line"/>
      <point x="201.333" y="445.333" type="line"/>
      <point x="237.333" y="473.667"/>
      <point x="285.333" y="496"/>
      <point x="329" y="496" type="curve" smooth="yes" name="n23"/>
      <point x="433.333" y="496"/>
      <point x="473.667" y="393.667"/>
    </contour>
    <contour>
      <point x="361.333" y="306.333" type="curve" smooth="yes" name="n26"/>
      <point x="361.333" y="394.333"/>
      <point x="319.667" y="426.667"/>
      <point x="296" y="426.667" type="curve" smooth="yes" name="n29"/>
      <point x="265.333" y="426.667"/>
      <point x="220.333" y="405.333"/>
      <point x="188.333" y="377.333" type="curve"/>
      <point x="131.667" y="75.6667" type="line"/>
      <point x="144" y="56.6667"/>
      <point x="172.333" y="38"/>
      <point x="206.667" y="38" type="curve" smooth="yes" name="n36"/>
      <point x="290" y="38"/>
      <point x="361.333" y="185"/>
    </contour>
  </outline>
</glyph>
<glyph name="uni0181" format="2">
  <advance width="647"/>
  <unicode hex="0181"/>
  <outline>
    <contour>
      <point x="614" y="542" type="curve" smooth="yes" name="n00"/>
      <point x="614" y="441"/>
      <point x="541.333" y="388"/>
      <point x="451" y="357.333" type="curve"/>
      <point x="537.333" y="344"/>
      <point x="595" y="309" name="hr01"/>
      <point x="595" y="224.667" type="curve" smooth="yes" name="n06"/>
      <point x="595" y="62.3333"/>
      <point x="468.333" y="0"/>
      <point x="293" y="0" type="curve" smooth="yes" name="n09"/>
      <point x="12" y="0" type="line"/>
      <point x="12" y="44.6667" type="line"/>
      <point x="33.1764" y="46.5142"/>
      <point x="74.3333" y="49.6667"/>
      <point x="74.3333" y="49.6667" type="curve"/>
      <point x="86.3333" y="50.3333"/>
      <point x="91" y="55"/>
      <point x="94" y="67.6667" type="curve"/>
      <point x="195.333" y="595.667" type="line" smooth="yes"/>
      <point x="197.333" y="606.333"/>
      <point x="191.667" y="614.333"/>
      <point x="176" y="614.333" type="curve" smooth="yes"/>
      <point x="146.333" y="614.333" type="line" smooth="yes"/>
      <point x="115.667" y="614.333"/>
      <point x="105" y="599"/>
      <point x="100.667" y="593.667" type="curve"/>
      <point x="126.667" y="523.333" type="line"/>
      <point x="101.667" y="501"/>
      <point x="79.6667" y="491.333"/>
      <point x="57.6667" y="491.333" type="curve" smooth="yes"/>
      <point x="25.3333" y="491.333"/>
      <point x="4" y="524"/>
      <point x="4" y="552" type="curve" smooth="yes"/>
      <point x="4" y="630.667"/>
      <point x="85" y="671"/>
      <point x="148.333" y="671" type="curve" smooth="yes"/>
      <point x="410" y="671" type="line" smooth="yes" name="n36"/>
      <point x="562.333" y="671"/>
      <point x="614" y="617.667" name="hr02"/>
    </contour>
    <contour>
      <point x="490" y="535" type="curve" smooth="yes" name="n39"/>
      <point x="490" y="598.333"/>
      <point x="437" y="624.667"/>
      <point x="360" y="624.667" type="curve" smooth="yes" name="n42"/>
      <point x="343.333" y="624.667"/>
      <point x="326.333" y="623"/>
      <point x="316" y="622.333" type="curve"/>
      <point x="268.333" y="372.333" type="line"/>
      <point x="281" y="371.333"/>
      <point x="300.667" y="370.667"/>
      <point x="307.333" y="370.667" type="curve" smooth="yes" name="n49"/>
      <point x="424.333" y="370.667"/>
      <point x="490" y="444.333"/>
    </contour>
    <contour>
      <point x="472" y="214.667" type="curve" smooth="yes" name="n52"/>
      <point x="472" y="296"/>
      <point x="411" y="323.333" name="hr03"/>
      <point x="325.333" y="323.333" type="curve" smooth="yes" name="n55"/>
      <point x="303" y="323.333"/>
      <point x="278.333" y="321.667"/>
      <point x="257.667" y="319" type="curve"/>
      <point x="206" y="50.6667" type="line"/>
      <point x="220.667" y="49.6667"/>
      <point x="245.333" y="48.3333"/>
      <point x="260" y="48.3333" type="curve" smooth="yes" name="n62"/>
      <point x="394.333" y="48.3333"/>
      <point x="472" y="108.333"/>
    </contour>
  </outline>
</glyph>
<glyph name="uni0184" format="2">
  <advance width="600"/>
  <unicode hex="0184"/>
  <outline>
    <contour>
      <point x="58" y="472.667" type="line"/>
      <point x="302.667" y="685" type="line"/>
      <point x="241" y="370" type="line"/>
      <point x="246.333" y="370.333"/>
      <point x="283.333" y="374"/>
      <point x="307.667" y="374" type="curve" smooth="yes" name="n05"/>
      <point x="453" y="374"/>
      <point x="576.333" y="332"/>
      <point x="566.667" y="209.333" type="curve" name="n08"/>
      <point x="557.667" y="32.6667"/>
      <point x="414" y="0"/>
      <point x="217.333" y="0" type="curve" smooth="yes" name="n11"/>
      <point x="-27.3333" y="0" type="line"/>
      <point x="-27.3333" y="45.6667" type="line"/>
      <point x="41.6667" y="50" type="line" smooth="yes"/>
      <point x="55" y="51"/>
      <point x="65.6667" y="61.6667"/>
      <point x="67" y="71.3333" type="curve"/>
      <point x="129" y="389.667" type="line"/>
    </contour>
    <contour>
      <point x="444.333" y="205" type="curve" name="n19"/>
      <point x="452" y="295"/>
      <point x="386" y="323.333"/>
      <point x="288.333" y="323.333" type="curve" smooth="yes" name="n22"/>
      <point x="271" y="323.333"/>
      <point x="235" y="319"/>
      <point x="230.667" y="318.333" type="curve"/>
      <point x="178" y="50.6667" type="line"/>
      <point x="180.667" y="50.6667"/>
      <point x="201" y="49"/>
      <point x="221" y="49" type="curve" smooth="yes" name="n29"/>
      <point x="354.667" y="49"/>
      <point x="437.333" y="92.3333"/>
    </contour>
  </outline>
</glyph>
<glyph name="uni018B" format="2">
  <advance width="627"/>
  <unicode hex="018B"/>
  <outline>
    <contour>
      <point x="351" y="237" type="curve" name="n00"/>
      <point x="271.936" y="254.597"/>
      <point x="228.702" y="279.927"/>
      <point x="232.333" y="214.333" type="curve" name="n03"/>
      <point x="225.333" y="168"/>
      <point x="252.667" y="138"/>
      <point x="302.333" y="138" type="curve" name="n06"/>
      <point x="289" y="138"/>
      <point x="294" y="118"/>
      <point x="302.667" y="89" type="curve"/>
      <point x="308.779" y="98.3591"/>
      <point x="347.424" y="196.087"/>
      <point x="380.333" y="232.667" type="curve"/>
      <point x="375.333" y="234.667"/>
      <point x="363" y="236.333"/>
    </contour>
    <contour>
      <point x="479" y="259.333" type="curve"/>
      <point x="510.333" y="402" type="line"/>
      <point x="498.583" y="408"/>
      <point x="439.621" y="416"/>
      <point x="408.333" y="416" type="curve" smooth="yes"/>
      <point x="294.467" y="416"/>
      <point x="203.391" y="439.667"/>
      <point x="186" y="473.667" type="curve"/>
      <point x="181.333" y="527"/>
      <point x="229.975" y="536.343"/>
      <point x="278.667" y="529.667" type="curve"/>
      <point x="284.3" y="517.786"/>
      <point x="276.484" y="478.316"/>
      <point x="281" y="467.667" type="curve" name="n28"/>
      <point x="259.333" y="540.667" type="line"/>
      <point x="262.932" y="558.419"/>
      <point x="275.215" y="629.932"/>
      <point x="275" y="652.333" type="curve" name="n32"/>
      <point x="536" y="652.333" type="line" name="n33"/>
      <point x="532.667" y="647.929"/>
      <point x="529.333" y="626.41"/>
      <point x="528" y="618.333" type="curve"/>
      <point x="474.333" y="585" type="line" name="n37"/>
      <point x="460.503" y="584.323" name="hr01"/>
      <point x="442.876" y="580.333"/>
      <point x="436.333" y="571.667" type="curve"/>
      <point x="377.667" y="267.667" type="line"/>
      <point x="402.633" y="261"/>
      <point x="499.508" y="255.667"/>
      <point x="558" y="255" type="curve"/>
      <point x="596.667" y="235" type="line"/>
      <point x="573.667" y="205.333" type="line"/>
      <point x="546.794" y="205.333"/>
      <point x="440.528" y="203.667"/>
      <point x="400.667" y="200" type="curve" name="n49"/>
      <point x="253.798" y="148.305"/>
      <point x="192.081" y="96.3447"/>
      <point x="188" y="130.333" type="curve" name="n52"/>
      <point x="187" y="231.333"/>
      <point x="294" y="264.667"/>
      <point x="399.667" y="264.333" type="curve" smooth="yes" name="n55"/>
      <point x="431.224" y="263.951"/>
      <point x="454.535" y="260.963"/>
    </contour>
  </outline>
</glyph>
<glyph name="uni018E" format="2">
  <advance width="575"/>
  <unicode hex="018E"/>
  <outline>
    <contour>
      <point x="142.333" y="671" type="line" name="n00"/>
      <point x="620.333" y="671" type="line"/>
      <point x="620.333" y="625.333" type="line"/>
      <point x="567.667" y="621" type="line" smooth="yes"/>
      <point x="554.333" y="620"/>
      <point x="543.333" y="610"/>
      <point x="541.333" y="599" type="curve" smooth="yes"/>
      <point x="440.667" y="72" type="line"/>
      <point x="439.333" y="61"/>
      <point x="446" y="51"/>
      <point x="459" y="50" type="curve" smooth="yes"/>
      <point x="510" y="45.6667" type="line"/>
      <point x="510" y="0" type="line"/>
      <point x="-17.6667" y="0" type="line" name="n13"/>
      <point x="15.3333" y="172.333" type="line" name="n14"/>
      <point x="74.3333" y="172.333" type="line"/>
      <point x="72" y="71.6667" type="line" smooth="yes"/>
      <point x="71.9529" y="64.6667"/>
      <point x="78.3333" y="52.6667" name="hr01"/>
      <point x="86.3333" y="52.6667" type="curve" smooth="yes" name="n19"/>
      <point x="324" y="52.6667" type="line"/>
      <point x="375" y="321" type="line" name="n21"/>
      <point x="237.333" y="321" type="line" smooth="yes" name="n22"/>
      <point x="229.333" y="321"/>
      <point x="218" y="310"/>
      <point x="216.333" y="303" type="curve"/>
      <point x="194" y="234.333" type="line"/>
      <point x="140" y="234.333" type="line"/>
      <point x="183.667" y="461.333" type="line" name="hr02"/>
      <point x="237" y="461.333" type="line" name="n29"/>
      <point x="234" y="392.667" type="line"/>
      <point x="233.333" y="385.667"/>
      <point x="239" y="375.333" name="hr03"/>
      <point x="248" y="375.333" type="curve" smooth="yes"/>
      <point x="385.667" y="375.333" type="line" name="n34"/>
      <point x="432.667" y="619.667" type="line"/>
      <point x="228.667" y="619.667" type="line" smooth="yes" name="n36"/>
      <point x="219.667" y="619.667"/>
      <point x="210" y="610.667"/>
      <point x="206.667" y="600.667" type="curve"/>
      <point x="176" y="518.333" type="line" name="hr04"/>
      <point x="112.667" y="518.333" type="line" name="n41"/>
    </contour>
  </outline>
</glyph>
<glyph name="uni0195" format="2">
  <advance width="851"/>
  <unicode hex="0195"/>
  <outline>
    <contour>
      <point x="335" y="154.667" type="curve" smooth="yes"/>
      <point x="376" y="348.333" type="line" smooth="yes"/>
      <point x="386.667" y="399.667"/>
      <point x="349.333" y="426.667"/>
      <point x="328" y="426.667" type="curve" smooth="yes" name="n04"/>
      <point x="296.667" y="426.667"/>
      <point x="239.333" y="394.667"/>
      <point x="196.333" y="350" type="curve"/>
      <point x="123.333" y="0" type="line" name="n08"/>
      <point x="17.6667" y="0" type="line"/>
      <point x="155.667" y="665.667" type="line"/>
      <point x="67" y="674.333" type="line"/>
      <point x="67" y="706.333" type="line"/>
      <point x="227.333" y="737" type="line" name="n13"/>
      <point x="277" y="737" type="line"/>
      <point x="212.333" y="427.333" type="line"/>
      <point x="253" y="465.667"/>
      <point x="318.667" y="496"/>
      <point x="383" y="496" type="curve" smooth="yes" name="n18"/>
      <point x="465" y="496"/>
      <point x="503.333" y="446.667"/>
      <point x="484.667" y="359" type="curve" smooth="yes"/>
      <point x="442" y="154" type="line" smooth="yes"/>
      <point x="423.333" y="67.3333"/>
      <point x="464" y="53" name="hr01"/>
      <point x="494.667" y="53" type="curve" smooth="yes" name="n25"/>
      <point x="537" y="53"/>
      <point x="600" y="76.6667"/>
      <point x="615.667" y="153.333" type="curve" smooth="yes"/>
      <point x="684.333" y="484" type="line"/>
      <point x="790.667" y="484" type="line"/>
      <point x="725" y="171.333" type="line" smooth="yes"/>
      <point x="702.667" y="66"/>
      <point x="588.667" y="-13.3333"/>
      <point x="464" y="-13.3333" type="curve" smooth="yes" name="n34"/>
      <point x="358" y="-13.3333"/>
      <point x="312" y="42.3333"/>
    </contour>
  </outline>
</glyph>
<glyph name="uni0197" format="2">
  <advance width="327"/>
  <unicode hex="0197"/>
  <outline>
    <contour>
      <point x="370" y="626.333" type="line"/>
      <point x="304.333" y="621.333" type="line" smooth="yes"/>
      <point x="292.333" y="620.333"/>
      <point x="288.667" y="614.333"/>
      <point x="286" y="602.667" type="curve"/>
      <point x="244.333" y="385.333" type="line"/>
      <point x="345.333" y="385.333" type="line" name="n06"/>
      <point x="341" y="332.333" type="line" name="n07"/>
      <point x="233.667" y="332.333" type="line"/>
      <point x="182" y="67.3333" type="line" smooth="yes"/>
      <point x="180" y="57"/>
      <point x="184" y="50.6667"/>
      <point x="200.333" y="49.6667" type="curve"/>
      <point x="200.333" y="49.6667"/>
      <point x="239.502" y="46.5142"/>
      <point x="260" y="44.6667" type="curve"/>
      <point x="260" y="0" type="line"/>
      <point x="-15" y="0" type="line"/>
      <point x="-15" y="44.6667" type="line"/>
      <point x="4.98952" y="46.1526"/>
      <point x="46.6667" y="49.3333"/>
      <point x="46.6667" y="49.3333" type="curve"/>
      <point x="59.6667" y="50.3333"/>
      <point x="65" y="55"/>
      <point x="67" y="67.6667" type="curve"/>
      <point x="118.667" y="332.333" type="line"/>
      <point x="31" y="332.333" type="line"/>
      <point x="35.3333" y="385.333" type="line"/>
      <point x="129.333" y="385.333" type="line"/>
      <point x="171" y="603" type="line" smooth="yes"/>
      <point x="173.333" y="614.333"/>
      <point x="168" y="620.333"/>
      <point x="152.333" y="621.333" type="curve"/>
      <point x="152.333" y="621.333"/>
      <point x="113.861" y="624.542"/>
      <point x="96" y="626.333" type="curve"/>
      <point x="96" y="671" type="line"/>
      <point x="370" y="671" type="line"/>
    </contour>
  </outline>
</glyph>
<glyph name="uni019D" format="2">
  <advance width="766"/>
  <unicode hex="019D"/>
  <outline>
    <contour>
      <point x="283.333" y="509" type="line"/>
      <point x="183" y="-9.33333" type="line" smooth="yes"/>
      <point x="161" y="-125.333"/>
      <point x="88.3333" y="-229" name="n03"/>
      <point x="-27.6667" y="-229" type="curve" smooth="yes"/>
      <point x="-99.3333" y="-229"/>
      <point x="-121" y="-197"/>
      <point x="-121" y="-167" type="curve" smooth="yes"/>
      <point x="-121" y="-134"/>
      <point x="-89.3333" y="-101.667"/>
      <point x="-57" y="-95.6667" type="curve"/>
      <point x="11.3333" y="-164.667" type="line"/>
      <point x="58.3333" y="-150"/>
      <point x="79.6667" y="-86.3333"/>
      <point x="96.6667" y="0.666667" type="curve" smooth="yes"/>
      <point x="212.333" y="603" type="line" smooth="yes"/>
      <point x="214.667" y="614.333"/>
      <point x="209.333" y="620.333"/>
      <point x="193.667" y="621.333" type="curve" name="n18"/>
      <point x="193.667" y="621.333"/>
      <point x="156.355" y="624.513"/>
      <point x="138" y="626.333" type="curve"/>
      <point x="138" y="671" type="line" name="n22"/>
      <point x="345" y="671" type="line"/>
      <point x="345" y="643.333" type="line"/>
      <point x="560" y="189.667" type="line"/>
      <point x="641" y="603" type="line" smooth="yes"/>
      <point x="643.333" y="614.333"/>
      <point x="637.333" y="620.333"/>
      <point x="622" y="621.333" type="curve"/>
      <point x="622" y="621.333"/>
      <point x="583.02" y="624.542"/>
      <point x="565" y="626.333" type="curve"/>
      <point x="565" y="671" type="line"/>
      <point x="810.333" y="671" type="line"/>
      <point x="810.333" y="626.333" type="line"/>
      <point x="751.333" y="621" type="line" smooth="yes"/>
      <point x="739.667" y="620"/>
      <point x="731" y="614.333"/>
      <point x="728.333" y="602.667" type="curve"/>
      <point x="610.667" y="0" type="line" name="n40"/>
      <point x="525.667" y="0" type="line"/>
    </contour>
  </outline>
</glyph>
<glyph name="uni019E" format="2">
  <advance width="545"/>
  <unicode hex="019E"/>
  <outline>
    <contour>
      <point x="499.667" y="-197" type="line"/>
      <point x="476.667" y="-206.333"/>
      <point x="401.667" y="-229" name="n02"/>
      <point x="358.333" y="-229" type="curve" smooth="yes"/>
      <point x="327.667" y="-229"/>
      <point x="259.667" y="-223.333"/>
      <point x="270.667" y="-169.667" type="curve" smooth="yes"/>
      <point x="374.667" y="354.667" type="line" smooth="yes"/>
      <point x="384.667" y="406.333"/>
      <point x="359" y="422.333"/>
      <point x="337.333" y="422.333" type="curve" smooth="yes" name="n10"/>
      <point x="305.667" y="422.333"/>
      <point x="242.667" y="382.667"/>
      <point x="199.333" y="337" type="curve"/>
      <point x="129.667" y="0" type="line" name="n14"/>
      <point x="23.3333" y="0" type="line"/>
      <point x="110.667" y="425" type="line"/>
      <point x="26.6667" y="433.667" type="line"/>
      <point x="26.6667" y="464.333" type="line"/>
      <point x="182" y="496" type="line"/>
      <point x="231.667" y="496" type="line"/>
      <point x="215" y="414.667" type="line"/>
      <point x="260.667" y="455.667"/>
      <point x="330.667" y="496"/>
      <point x="392.667" y="496" type="curve" smooth="yes" name="n24"/>
      <point x="474.667" y="496"/>
      <point x="505" y="454.333"/>
      <point x="488.333" y="367" type="curve" smooth="yes"/>
      <point x="392" y="-131.667" type="line" smooth="yes"/>
      <point x="385.333" y="-169"/>
      <point x="417.333" y="-173.333"/>
      <point x="428.667" y="-173.333" type="curve" smooth="yes"/>
      <point x="447.667" y="-173.333"/>
      <point x="473.333" y="-166.667"/>
      <point x="498.333" y="-157.667" type="curve"/>
    </contour>
  </outline>
</glyph>
<glyph name="uni01A2" format="2">
  <advance width="964"/>
  <unicode hex="01A2"/>
  <outline>
    <contour>
      <point x="840.667" y="-173.333" type="line"/>
      <point x="840.667" y="-218" type="line"/>
      <point x="564.333" y="-218" type="line"/>
      <point x="564.333" y="-173.333" type="line"/>
      <point x="626" y="-168.667" type="line" smooth="yes"/>
      <point x="640.333" y="-167.667"/>
      <point x="644.333" y="-161"/>
      <point x="646.333" y="-151" type="curve" smooth="yes"/>
      <point x="785" y="562.667" type="line"/>
      <point x="751.333" y="554.667"/>
      <point x="690.333" y="555.333"/>
      <point x="661.667" y="559.333" type="curve"/>
      <point x="585.333" y="161" type="line" smooth="yes"/>
      <point x="567.333" y="65"/>
      <point x="467.667" y="-16"/>
      <point x="327" y="-16" type="curve" smooth="yes" name="n15"/>
      <point x="155" y="-16"/>
      <point x="48" y="100.333"/>
      <point x="48" y="262.333" type="curve" smooth="yes" name="n18"/>
      <point x="48" y="485"/>
      <point x="217" y="687"/>
      <point x="445" y="687" type="curve" smooth="yes" name="n21"/>
      <point x="620.667" y="687"/>
      <point x="634" y="646"/>
      <point x="729.667" y="646" type="curve" smooth="yes"/>
      <point x="780" y="646"/>
      <point x="822.333" y="658"/>
      <point x="860.333" y="687" type="curve"/>
      <point x="924.333" y="687" type="line"/>
      <point x="762.667" y="-150.667" type="line" smooth="yes"/>
      <point x="760.333" y="-161.667"/>
      <point x="765.333" y="-167.333"/>
      <point x="781.667" y="-168.333" type="curve" smooth="yes"/>
    </contour>
    <contour>
      <point x="471" y="178" type="curve" smooth="yes"/>
      <point x="550" y="592.667" type="line"/>
      <point x="506" y="621"/>
      <point x="481" y="628.333"/>
      <point x="433.667" y="628.333" type="curve" smooth="yes" name="n37"/>
      <point x="273" y="628.333"/>
      <point x="175" y="428.333"/>
      <point x="175" y="254.333" type="curve" smooth="yes" name="n40"/>
      <point x="175" y="122.667"/>
      <point x="246" y="39.3333"/>
      <point x="334" y="39.3333" type="curve" smooth="yes" name="n43"/>
      <point x="407" y="39.3333"/>
      <point x="450.333" y="70"/>
    </contour>
  </outline>
</glyph>
<glyph name="uni01AA" format="2">
  <advance width="454"/>
  <unicode hex="01AA"/>
  <outline>
    <contour>
      <point x="499.333" y="-150.333" type="curve" smooth="yes"/>
      <point x="499.333" y="-185"/>
      <point x="452.333" y="-218" name="n02"/>
      <point x="389.667" y="-218" type="curve" smooth="yes"/>
      <point x="277.333" y="-218"/>
      <point x="222" y="-144.333"/>
      <point x="222" y="-52" type="curve" smooth="yes" name="n06"/>
      <point x="222" y="-37"/>
      <point x="224" y="-21.6667"/>
      <point x="227" y="-5.66667" type="curve" smooth="yes"/>
      <point x="290.667" y="328.333" type="line"/>
      <point x="263.333" y="316.333"/>
      <point x="233" y="309.667"/>
      <point x="199.667" y="309.667" type="curve" smooth="yes" name="n13"/>
      <point x="96.3333" y="309.667"/>
      <point x="39" y="371.333"/>
      <point x="39" y="458" type="curve" smooth="yes" name="n16"/>
      <point x="39" y="561.333"/>
      <point x="119.333" y="688"/>
      <point x="270.667" y="688" type="curve" smooth="yes" name="n19"/>
      <point x="380" y="688"/>
      <point x="431.333" y="620.333"/>
      <point x="431.333" y="535.667" type="curve" smooth="yes" name="n22"/>
      <point x="431.333" y="523.667"/>
      <point x="430.333" y="510.667"/>
      <point x="427.333" y="498" type="curve"/>
      <point x="329.333" y="-8" type="line" smooth="yes"/>
      <point x="322.333" y="-45.6667"/>
      <point x="319.667" y="-75"/>
      <point x="319.667" y="-96.6667" type="curve" smooth="yes" name="n29"/>
      <point x="319.667" y="-127.667"/>
      <point x="334.667" y="-147.333"/>
      <point x="356.667" y="-155.333" type="curve"/>
      <point x="443.667" y="-85.6667" type="line"/>
      <point x="478.333" y="-85.6667"/>
      <point x="499.333" y="-112.333"/>
    </contour>
    <contour>
      <point x="328" y="540.667" type="curve" smooth="yes" name="n36"/>
      <point x="328" y="603.333"/>
      <point x="306.667" y="634.333"/>
      <point x="262.667" y="634.333" type="curve" smooth="yes" name="n39"/>
      <point x="179.667" y="634.333"/>
      <point x="141.333" y="529"/>
      <point x="141.333" y="456" type="curve" smooth="yes" name="n42"/>
      <point x="141.333" y="391.667"/>
      <point x="167.667" y="363.333"/>
      <point x="207.667" y="363.333" type="curve" smooth="yes" name="n45"/>
      <point x="289.667" y="363.333"/>
      <point x="328" y="463.667"/>
    </contour>
  </outline>
</glyph>
<glyph name="uni01AB" format="2">
  <advance width="314"/>
  <unicode hex="01AB"/>
  <outline>
    <contour>
      <point x="363" y="418.667" type="line" name="n00"/>
      <point x="215.333" y="418.667" type="line" name="n01"/>
      <point x="152.333" y="106.333" type="line" smooth="yes"/>
      <point x="145.319" y="72.6695"/>
      <point x="171" y="51.6667"/>
      <point x="204" y="51.6667" type="curve" smooth="yes" name="n05"/>
      <point x="239.667" y="51.6667"/>
      <point x="290.333" y="71"/>
      <point x="315" y="79.3333" type="curve"/>
      <point x="279.333" y="-102.667" type="line" smooth="yes"/>
      <point x="266.333" y="-168.333"/>
      <point x="217.333" y="-229"/>
      <point x="118.333" y="-229" type="curve" smooth="yes" name="n12"/>
      <point x="56.3333" y="-229"/>
      <point x="26" y="-198"/>
      <point x="26" y="-165.333" type="curve" smooth="yes"/>
      <point x="26" y="-122.333"/>
      <point x="71.6667" y="-105.667"/>
      <point x="88" y="-101" type="curve"/>
      <point x="155.333" y="-168.667" type="line" name="n19"/>
      <point x="187.667" y="-167.333"/>
      <point x="211.667" y="-147.333"/>
      <point x="220.333" y="-105.333" type="curve"/>
      <point x="220.333" y="-105.333"/>
      <point x="239.361" y="-15.7428"/>
      <point x="243.333" y="7.66667" type="curve"/>
      <point x="208.667" y="-7"/>
      <point x="173.333" y="-12"/>
      <point x="144.667" y="-12" type="curve" smooth="yes" name="n28"/>
      <point x="71" y="-12"/>
      <point x="44" y="25.3333"/>
      <point x="44" y="75.3333" type="curve" smooth="yes"/>
      <point x="44" y="88.3333"/>
      <point x="45" y="102"/>
      <point x="48" y="116" type="curve" smooth="yes"/>
      <point x="109" y="418" type="line"/>
      <point x="43" y="411.333" type="line"/>
      <point x="43" y="447" type="line"/>
      <point x="121.333" y="480.333" type="line"/>
      <point x="171" y="581.333" type="line" name="hr01"/>
      <point x="245" y="581.333" type="line" name="n40"/>
      <point x="224.667" y="467.667" type="line" name="hr02"/>
      <point x="363" y="467.667" type="line" name="n42"/>
    </contour>
  </outline>
</glyph>
<glyph name="uni01AE" format="2">
  <advance width="599"/>
  <unicode hex="01AE"/>
  <outline>
    <contour>
      <point x="340.667" y="433" type="curve"/>
      <point x="297" y="190" type="line"/>
      <point x="285.776" y="165.737"/>
      <point x="259.122" y="143.156"/>
      <point x="254.312" y="124.673" type="curve" name="n04"/>
      <point x="251.312" y="104.558"/>
      <point x="250.202" y="87.6292"/>
      <point x="260.667" y="77.3333" type="curve"/>
      <point x="320.667" y="86.6667" type="line"/>
      <point x="327.979" y="82.5984"/>
      <point x="322.532" y="73.9701"/>
      <point x="316.752" y="55.7328" type="curve"/>
      <point x="318.838" y="36.1761"/>
      <point x="295.717" y="59.8784" name="n13"/>
      <point x="270" y="69.6667" type="curve"/>
      <point x="231.815" y="69.6667"/>
      <point x="322.79" y="120.333"/>
      <point x="357.333" y="183.667" type="curve" name="n17"/>
      <point x="355.428" y="195.736"/>
      <point x="350.723" y="179.329"/>
      <point x="352.667" y="192" type="curve"/>
      <point x="399.333" y="583.333" type="line"/>
      <point x="317.667" y="619" type="line" name="n22"/>
      <point x="309.808" y="622.015"/>
      <point x="300.013" y="618.51"/>
      <point x="293.667" y="609.877" type="curve"/>
      <point x="236.667" y="550.667" type="line"/>
      <point x="154.667" y="339.333" type="line" name="n27"/>
      <point x="156.009" y="346.395"/>
      <point x="167.031" y="403.76"/>
      <point x="169.667" y="408.667" type="curve" name="n30"/>
      <point x="245.427" y="402.333"/>
      <point x="486.504" y="397.667"/>
      <point x="542" y="393.667" type="curve"/>
      <point x="554.667" y="311.667" type="line"/>
      <point x="557.386" y="306.667"/>
      <point x="538.403" y="302"/>
      <point x="531.667" y="292.778" type="curve"/>
      <point x="532.111" y="286.53"/>
      <point x="514.54" y="318.007"/>
      <point x="498.333" y="328.21" type="curve"/>
      <point x="447.667" y="337.723"/>
      <point x="432.604" y="370.001"/>
      <point x="422.671" y="398.346" type="curve"/>
      <point x="407.92" y="410.333"/>
      <point x="352.828" y="421.667"/>
    </contour>
  </outline>
</glyph>
<glyph name="uhorn" format="2">
  <advance width="664"/>
  <unicode hex="01B0"/>
  <outline>
    <contour>
      <point x="432" y="98" type="line" smooth="yes"/>
      <point x="430.756" y="92.0564"/>
      <point x="430.159" y="86.8137"/>
      <point x="430.163" y="82.1519" type="curve" smooth="yes"/>
      <point x="430.177" y="57.8802"/>
      <point x="447.274" y="43.3333"/>
      <point x="472.339" y="43.3333" type="curve" smooth="yes"/>
      <point x="487.13" y="43.3333"/>
      <point x="506.773" y="49.2988"/>
      <point x="540" y="67.3333" type="curve"/>
      <point x="540" y="25.3333" type="line"/>
      <point x="509.402" y="8.23871"/>
      <point x="438.553" y="-12"/>
      <point x="391.694" y="-12" type="curve" smooth="yes"/>
      <point x="340.852" y="-12"/>
      <point x="326" y="11.8588"/>
      <point x="325" y="53.6667" type="curve"/>
      <point x="275.897" y="10.5552"/>
      <point x="221.268" y="-12"/>
      <point x="160.618" y="-12" type="curve" smooth="yes" name="n19"/>
      <point x="84.2514" y="-12"/>
      <point x="43.108" y="32.2265"/>
      <point x="43.108" y="89.9877" type="curve" smooth="yes"/>
      <point x="43.108" y="98.2152"/>
      <point x="43.9908" y="106.436"/>
      <point x="45.6667" y="114.333" type="curve" smooth="yes"/>
      <point x="110.667" y="424.667" type="line"/>
      <point x="26.6667" y="433.667" type="line"/>
      <point x="26.6667" y="464.333" type="line"/>
      <point x="182.333" y="496" type="line" name="n29"/>
      <point x="232.667" y="496" type="line"/>
      <point x="152" y="114.333" type="line" smooth="yes"/>
      <point x="151.258" y="110.674"/>
      <point x="150.904" y="107.021"/>
      <point x="150.904" y="103.425" type="curve" smooth="yes"/>
      <point x="150.904" y="77.2105"/>
      <point x="172.961" y="52.6667"/>
      <point x="206.853" y="52.6667" type="curve" smooth="yes" name="n37"/>
      <point x="241.156" y="52.6667"/>
      <point x="288.773" y="77.7209"/>
      <point x="329.667" y="115.333" type="curve"/>
      <point x="406.333" y="484" type="line"/>
      <point x="512.667" y="484" type="line"/>
    </contour>
    <contour>
      <point x="472.88" y="399.615" type="line"/>
      <point x="537.033" y="431.248"/>
      <point x="589.577" y="484.213"/>
      <point x="598" y="522" type="curve" name="n46"/>
      <point x="531.333" y="522" type="line"/>
      <point x="526.128" y="530.999"/>
      <point x="518.655" y="549.193"/>
      <point x="518.658" y="567.879" type="curve" smooth="yes" name="n50"/>
      <point x="518.667" y="608.268"/>
      <point x="550.271" y="637.667"/>
      <point x="592.379" y="637.667" type="curve" smooth="yes" name="n53"/>
      <point x="633.931" y="637.667"/>
      <point x="663.649" y="608.768"/>
      <point x="663.654" y="561.948" type="curve" smooth="yes" name="n56"/>
      <point x="663.664" y="484.008"/>
      <point x="582.204" y="405.423"/>
      <point x="463.546" y="352.282" type="curve"/>
    </contour>
  </outline>
</glyph>
<glyph name="uni01B1" format="2">
  <advance width="722"/>
  <unicode hex="01B1"/>
  <outline>
    <contour>
      <point x="722" y="671" type="line" name="n00"/>
      <point x="711" y="616.333" type="line"/>
      <point x="650" y="609.333" type="line"/>
      <point x="636.667" y="608.333"/>
      <point x="630.667" y="599.667"/>
      <point x="635.333" y="589" type="curve"/>
      <point x="635.333" y="589"/>
      <point x="654" y="540.667"/>
      <point x="657" y="534" type="curve"/>
      <point x="673" y="484.333"/>
      <point x="690" y="431.333"/>
      <point x="690" y="378.667" type="curve" smooth="yes" name="n11"/>
      <point x="690" y="182"/>
      <point x="523" y="-16"/>
      <point x="307" y="-16" type="curve" smooth="yes" name="n14"/>
      <point x="143" y="-16"/>
      <point x="48" y="88.6667"/>
      <point x="48" y="237.333" type="curve" smooth="yes" name="n17"/>
      <point x="48" y="328"/>
      <point x="94" y="417"/>
      <point x="144" y="492.667" type="curve"/>
      <point x="150.333" y="503"/>
      <point x="215.667" y="589"/>
      <point x="215.667" y="589" type="curve"/>
      <point x="222.667" y="599"/>
      <point x="221.667" y="610.333"/>
      <point x="206.667" y="611.333" type="curve" smooth="yes"/>
      <point x="149.667" y="616.333" type="line"/>
      <point x="162.333" y="671" type="line"/>
      <point x="350.667" y="671" type="line"/>
      <point x="260" y="555.667"/>
      <point x="187" y="380.667"/>
      <point x="187" y="237.333" type="curve" smooth="yes" name="n32"/>
      <point x="187" y="149"/>
      <point x="216" y="55"/>
      <point x="319" y="55" type="curve" smooth="yes" name="n35"/>
      <point x="502" y="55"/>
      <point x="570" y="333.333"/>
      <point x="570" y="484" type="curve" smooth="yes" name="n38"/>
      <point x="570" y="542.667"/>
      <point x="555" y="613.667"/>
      <point x="533.333" y="671" type="curve"/>
    </contour>
  </outline>
</glyph>
<glyph name="uni01B3.RtHook" format="2">
  <advance width="653"/>
  <unicode hex="01B3"/>
  <outline>
    <contour>
      <point x="824" y="683.667" type="curve" smooth="yes"/>
      <point x="824" y="644.667"/>
      <point x="793" y="617.333"/>
      <point x="750.333" y="605.333" type="curve"/>
      <point x="671.333" y="685.333" type="line"/>
      <point x="643.667" y="683.333"/>
      <point x="625.667" y="664"/>
      <point x="585" y="596.667" type="curve" smooth="yes"/>
      <point x="388" y="271.333" type="line"/>
      <point x="347" y="67.3333" type="line"/>
      <point x="344" y="56.6667"/>
      <point x="349.667" y="50.6667"/>
      <point x="365.667" y="49.6667" type="curve"/>
      <point x="365.667" y="49.6667"/>
      <point x="403.481" y="46.4868"/>
      <point x="422" y="44.6667" type="curve"/>
      <point x="422" y="0" type="line" name="n16"/>
      <point x="148" y="0" type="line"/>
      <point x="148" y="44.6667" type="line"/>
      <point x="166.178" y="46.4579"/>
      <point x="205.667" y="49.6667"/>
      <point x="205.667" y="49.6667" type="curve"/>
      <point x="218" y="50.6667"/>
      <point x="227" y="55.3333"/>
      <point x="230" y="67.6667" type="curve"/>
      <point x="271" y="272.333" type="line"/>
      <point x="159" y="608.333" type="line"/>
      <point x="155.333" y="620.667"/>
      <point x="146.667" y="621.333"/>
      <point x="138" y="622.333" type="curve"/>
      <point x="138" y="622.333"/>
      <point x="100.258" y="625.053"/>
      <point x="84" y="626.333" type="curve"/>
      <point x="84" y="671" type="line"/>
      <point x="357" y="671" type="line"/>
      <point x="357" y="626.333" type="line"/>
      <point x="336.676" y="625.021"/>
      <point x="293.667" y="622.333"/>
      <point x="293.667" y="622.333" type="curve"/>
      <point x="282.667" y="621.667"/>
      <point x="274.667" y="615.333"/>
      <point x="279" y="603.667" type="curve"/>
      <point x="356" y="360.333" type="line"/>
      <point x="534" y="655" type="line" smooth="yes"/>
      <point x="571.667" y="718"/>
      <point x="629.667" y="753" name="n45"/>
      <point x="720" y="753" type="curve" smooth="yes"/>
      <point x="778" y="753"/>
      <point x="824" y="714.333"/>
    </contour>
  </outline>
</glyph>
<glyph name="uni01B4.RtHook" format="2">
  <advance width="546"/>
  <unicode hex="01B4"/>
  <outline>
    <contour>
      <point x="667" y="560" type="curve" smooth="yes"/>
      <point x="667" y="531"/>
      <point x="643.667" y="506"/>
      <point x="614.333" y="485.667" type="curve"/>
      <point x="543" y="541.667" type="line"/>
      <point x="515.333" y="541.667"/>
      <point x="499" y="514"/>
      <point x="457.333" y="419" type="curve"/>
      <point x="457.333" y="419"/>
      <point x="301.333" y="44.6667"/>
      <point x="266" y="-15.3333" type="curve" smooth="yes"/>
      <point x="202.333" y="-124.667"/>
      <point x="121" y="-229"/>
      <point x="17" y="-229" type="curve" smooth="yes" name="n13"/>
      <point x="-58.6667" y="-229"/>
      <point x="-80" y="-185.667"/>
      <point x="-80" y="-159.667" type="curve" smooth="yes"/>
      <point x="-80" y="-128.667"/>
      <point x="-54.6667" y="-94.6667"/>
      <point x="-7" y="-92.6667" type="curve" name="n19"/>
      <point x="46" y="-156.667" type="line"/>
      <point x="89" y="-150.667"/>
      <point x="128.667" y="-97"/>
      <point x="193" y="19" type="curve"/>
      <point x="190" y="35"/>
      <point x="172" y="133.667"/>
      <point x="151" y="229.333" type="curve" smooth="yes"/>
      <point x="130.333" y="322.667"/>
      <point x="107.333" y="426"/>
      <point x="98.3333" y="426.667" type="curve" smooth="yes"/>
      <point x="2.33333" y="434" type="line"/>
      <point x="2.33333" y="461" type="line"/>
      <point x="22.3333" y="467.667"/>
      <point x="111" y="496" name="n33"/>
      <point x="129.667" y="496" type="curve" smooth="yes"/>
      <point x="173.333" y="496"/>
      <point x="196" y="466.333"/>
      <point x="218.667" y="391.333" type="curve" smooth="yes"/>
      <point x="234.667" y="336.667"/>
      <point x="252.333" y="250"/>
      <point x="270.667" y="152.667" type="curve"/>
      <point x="324.667" y="283.667"/>
      <point x="381.667" y="429.333"/>
      <point x="381.667" y="429.333" type="curve"/>
      <point x="440" y="574.667"/>
      <point x="493.333" y="622" name="n45"/>
      <point x="593.333" y="622" type="curve" smooth="yes"/>
      <point x="636.667" y="622"/>
      <point x="667" y="588"/>
    </contour>
  </outline>
</glyph>
<glyph name="uni01B5" format="2">
  <advance width="576"/>
  <unicode hex="01B5"/>
  <outline>
    <contour>
      <point x="487.333" y="331" type="line" name="n00"/>
      <point x="357" y="331" type="line"/>
      <point x="130.667" y="56" type="line"/>
      <point x="394" y="56" type="line" smooth="yes" name="n03"/>
      <point x="406.667" y="56"/>
      <point x="416.488" y="61.9571"/>
      <point x="420" y="74.3333" type="curve" smooth="yes"/>
      <point x="452" y="192.333" type="line" name="n07"/>
      <point x="525.333" y="192.333" type="line"/>
      <point x="488.667" y="0" type="line" name="n09"/>
      <point x="-20.3333" y="0" type="line"/>
      <point x="-11" y="45.6667" type="line"/>
      <point x="222.667" y="331" type="line"/>
      <point x="134.667" y="331" type="line"/>
      <point x="134.667" y="385.667" type="line"/>
      <point x="267.667" y="385.667" type="line"/>
      <point x="456.333" y="615.667" type="line"/>
      <point x="231" y="615.667" type="line" smooth="yes" name="n17"/>
      <point x="218.333" y="615.667"/>
      <point x="209.333" y="610.333"/>
      <point x="205.667" y="598.333" type="curve" smooth="yes"/>
      <point x="177" y="504.333" type="line" name="hr02"/>
      <point x="103" y="504.333" type="line" name="n22"/>
      <point x="136.333" y="671" type="line" name="n23"/>
      <point x="609.333" y="671" type="line"/>
      <point x="600" y="624.333" type="line"/>
      <point x="402.333" y="385.667" type="line"/>
      <point x="487.333" y="385.667" type="line" name="n27"/>
    </contour>
  </outline>
</glyph>
<glyph name="uni01BD" format="2">
  <advance width="418"/>
  <unicode hex="01BD"/>
  <outline>
    <contour>
      <point x="263.667" y="397.333" type="curve"/>
      <point x="231.667" y="343.333" type="line"/>
      <point x="290.441" y="340.737"/>
      <point x="355.545" y="313.902"/>
      <point x="355.667" y="250.333" type="curve" name="n04"/>
      <point x="355.667" y="174.667"/>
      <point x="274" y="133.667"/>
      <point x="198.667" y="133.667" type="curve" smooth="yes" name="n07"/>
      <point x="143.388" y="133.667"/>
      <point x="78.4906" y="157"/>
      <point x="72" y="195.667" type="curve"/>
      <point x="69" y="217"/>
      <point x="89.3333" y="232.667"/>
      <point x="105" y="230.667" type="curve" name="n13"/>
      <point x="108.921" y="227.156"/>
      <point x="115.572" y="202.455"/>
      <point x="116.667" y="200.667" type="curve"/>
      <point x="153.119" y="187.832"/>
      <point x="191.69" y="130.84"/>
      <point x="193" y="90" type="curve"/>
      <point x="199" y="40.3333"/>
      <point x="172.667" y="18" name="hr02"/>
      <point x="146" y="18" type="curve" name="n22"/>
      <point x="155.667" y="18"/>
      <point x="178" y="53"/>
      <point x="178" y="129" type="curve" smooth="yes" name="n25"/>
      <point x="178" y="187.333"/>
      <point x="136.333" y="232.333"/>
      <point x="77.6667" y="232.333" type="curve" name="n28"/>
      <point x="82.7207" y="245.059"/>
      <point x="103.067" y="318.066"/>
      <point x="107" y="327.667" type="curve"/>
      <point x="108.338" y="327.303"/>
      <point x="109.334" y="313.163"/>
      <point x="104.333" y="307.333" type="curve" name="n34"/>
      <point x="103.237" y="303.952"/>
      <point x="89.323" y="301.698"/>
      <point x="90" y="302" type="curve"/>
      <point x="107.517" y="307.105"/>
      <point x="122.809" y="340.187"/>
      <point x="124" y="370.667" type="curve" name="n40"/>
      <point x="155.419" y="392"/>
      <point x="280.999" y="411.667"/>
      <point x="298.333" y="411.667" type="curve"/>
      <point x="292.333" y="380" type="line"/>
      <point x="288.652" y="382"/>
      <point x="270.644" y="384.667"/>
      <point x="261.667" y="385" type="curve"/>
      <point x="249" y="420.667" type="line"/>
      <point x="249.626" y="428.715"/>
      <point x="249.797" y="445.101"/>
      <point x="246.333" y="448" type="curve"/>
      <point x="283" y="448" type="line"/>
      <point x="275.535" y="440.554"/>
      <point x="265.323" y="406.366"/>
    </contour>
  </outline>
</glyph>
<glyph name="uni01BE" format="2">
  <advance width="452"/>
  <unicode hex="01BE"/>
  <outline>
    <contour>
      <point x="419" y="364" type="curve" name="n00"/>
      <point x="403.044" y="315"/>
      <point x="302.762" y="286"/>
      <point x="242.667" y="286" type="curve"/>
      <point x="222.073" y="281.642"/>
      <point x="183.893" y="265.428"/>
      <point x="182.667" y="285.667" type="curve"/>
      <point x="228" y="277.333"/>
      <point x="279.667" y="269"/>
      <point x="294" y="180.333" type="curve" name="n09"/>
      <point x="298.667" y="79.6667"/>
      <point x="211" y="42"/>
      <point x="128.667" y="40.3333" type="curve" name="n12"/>
      <point x="65.7066" y="32.2742"/>
      <point x="48.6472" y="43.9069"/>
      <point x="49.3333" y="66.6667" type="curve"/>
      <point x="75" y="74"/>
      <point x="123.333" y="136"/>
      <point x="151.333" y="163.667" type="curve"/>
      <point x="153.955" y="189.667"/>
      <point x="142.158" y="210.333"/>
      <point x="121" y="218" type="curve" name="n21"/>
      <point x="137.667" y="168.333" type="line" name="n22"/>
      <point x="201.109" y="168.333"/>
      <point x="228.453" y="197.667"/>
      <point x="221.333" y="273.667" type="curve" name="n25"/>
      <point x="221.333" y="337.351"/>
      <point x="175.333" y="378.984"/>
      <point x="136.667" y="396" type="curve"/>
      <point x="185.667" y="451.333" type="line"/>
      <point x="107.667" y="487" type="line"/>
      <point x="108.333" y="496.731"/>
      <point x="105.667" y="520.782"/>
      <point x="99" y="529.333" type="curve"/>
      <point x="171.333" y="530.333" type="line"/>
      <point x="186.667" y="623.667" type="line"/>
      <point x="203.495" y="629.667"/>
      <point x="268.114" y="636.333"/>
      <point x="277.333" y="637" type="curve"/>
      <point x="242.667" y="623" type="line"/>
      <point x="222.667" y="652.667" type="line"/>
      <point x="247.27" y="652.333"/>
      <point x="349.105" y="648.667"/>
      <point x="373" y="644.333" type="curve" name="n43"/>
      <point x="365.667" y="578" type="line"/>
      <point x="365.667" y="574.667" type="line"/>
      <point x="359.667" y="571.183"/>
      <point x="350.333" y="549.202"/>
      <point x="349" y="540.333" type="curve"/>
      <point x="294.667" y="464.333" type="line"/>
      <point x="372.667" y="453" type="line" name="n50"/>
      <point x="398.667" y="441.527"/>
      <point x="419" y="397.298"/>
    </contour>
  </outline>
</glyph>
<glyph name="uni01C2" format="2">
  <advance width="431"/>
  <unicode hex="01C2"/>
  <outline>
    <contour>
      <point x="49" y="300.333" type="line" name="n00"/>
      <point x="49" y="356.333" type="line" name="n01"/>
      <point x="417" y="356.333" type="line"/>
      <point x="417" y="300.333" type="line"/>
    </contour>
    <contour>
      <point x="20" y="164" type="line" name="n04"/>
      <point x="20" y="219.667" type="line" name="n05"/>
      <point x="387" y="219.667" type="line"/>
      <point x="387" y="164" type="line"/>
    </contour>
    <contour>
      <point x="155.333" y="-215" type="line" name="n08"/>
      <point x="93" y="-215" type="line"/>
      <point x="274" y="736" type="line" name="n10"/>
      <point x="336.667" y="736" type="line"/>
    </contour>
  </outline>
</glyph>
<glyph name="uni01C3" format="2">
  <advance width="262"/>
  <unicode hex="01C3"/>
  <outline>
    <contour>
      <point x="266.333" y="626.667" type="curve"/>
      <point x="266.333" y="626.667"/>
      <point x="170.333" y="275.667"/>
      <point x="142.667" y="182" type="curve"/>
      <point x="82.6667" y="182" type="line"/>
      <point x="124.333" y="598.333" type="line" smooth="yes"/>
      <point x="129" y="651"/>
      <point x="157" y="684.333" name="n07"/>
      <point x="210.333" y="684.333" type="curve" smooth="yes"/>
      <point x="249.333" y="684.333"/>
      <point x="266.333" y="665.667"/>
    </contour>
    <contour>
      <point x="166" y="54.3333" type="curve" smooth="yes" name="n11"/>
      <point x="166" y="18.3333"/>
      <point x="136" y="-10"/>
      <point x="94.6667" y="-10" type="curve" smooth="yes" name="n14"/>
      <point x="61" y="-10"/>
      <point x="27" y="16"/>
      <point x="27" y="55.6667" type="curve" smooth="yes" name="n17"/>
      <point x="27" y="93.6667"/>
      <point x="56.6667" y="122.333"/>
      <point x="95" y="122.333" type="curve" smooth="yes" name="n20"/>
      <point x="134.333" y="122.333"/>
      <point x="166" y="93.3333"/>
    </contour>
  </outline>
</glyph>
<glyph name="uni01C6" format="2">
  <advance width="999"/>
  <unicode hex="01C6"/>
  <outline>
    <contour>
      <point x="542.667" y="737" type="line" name="n00"/>
      <point x="428.333" y="87.3333" type="line" smooth="yes"/>
      <point x="422.003" y="51.6054"/>
      <point x="449" y="43"/>
      <point x="457.667" y="43" type="curve" smooth="yes"/>
      <point x="473.667" y="43"/>
      <point x="523.333" y="60.6667"/>
      <point x="536.667" y="65.6667" type="curve"/>
      <point x="536.667" y="24.6667" type="line"/>
      <point x="514.667" y="14"/>
      <point x="443.333" y="-12"/>
      <point x="398.667" y="-12" type="curve" smooth="yes"/>
      <point x="341.333" y="-12"/>
      <point x="322.333" y="14.6667"/>
      <point x="318.667" y="54" type="curve"/>
      <point x="283.333" y="20.3333"/>
      <point x="233.667" y="-12"/>
      <point x="182" y="-12" type="curve" smooth="yes" name="n17"/>
      <point x="68.6667" y="-12"/>
      <point x="32" y="83"/>
      <point x="32" y="167.667" type="curve" smooth="yes" name="n20"/>
      <point x="32" y="324.667"/>
      <point x="136.333" y="496"/>
      <point x="321.667" y="496" type="curve" smooth="yes" name="n23"/>
      <point x="350" y="496"/>
      <point x="375.333" y="484.667"/>
      <point x="391" y="479.333" type="curve"/>
      <point x="423.667" y="665.667" type="line"/>
      <point x="333" y="674.333" type="line"/>
      <point x="333" y="706.333" type="line"/>
      <point x="492.667" y="737" type="line"/>
    </contour>
    <contour>
      <point x="376" y="394" type="line" smooth="yes"/>
      <point x="377" y="399.667"/>
      <point x="345" y="447" name="hr01"/>
      <point x="319.667" y="447" type="curve" smooth="yes" name="n34"/>
      <point x="231.667" y="447"/>
      <point x="142.667" y="330.667"/>
      <point x="142.667" y="173.667" type="curve" smooth="yes" name="n37"/>
      <point x="142.667" y="89.3333"/>
      <point x="175.333" y="52.3333"/>
      <point x="213.667" y="52.3333" type="curve" smooth="yes" name="n40"/>
      <point x="249" y="52.3333"/>
      <point x="294.667" y="91.3333"/>
      <point x="330" y="132.333" type="curve"/>
    </contour>
    <contour>
      <point x="1005.33" y="468.667" type="line"/>
      <point x="669.333" y="78" type="line"/>
      <point x="746.333" y="97" type="line"/>
      <point x="776.333" y="84"/>
      <point x="814.333" y="63.6667"/>
      <point x="840" y="63.6667" type="curve" smooth="yes"/>
      <point x="863.333" y="63.6667"/>
      <point x="886.333" y="81"/>
      <point x="896.667" y="95.3333" type="curve"/>
      <point x="840" y="157.333" type="line"/>
      <point x="851" y="176.667"/>
      <point x="880" y="195.333"/>
      <point x="903" y="195.333" type="curve" smooth="yes"/>
      <point x="941.333" y="195.333"/>
      <point x="961.667" y="157.667"/>
      <point x="961.667" y="129.333" type="curve" smooth="yes"/>
      <point x="961.667" y="54"/>
      <point x="881.667" y="-11.6667"/>
      <point x="807.333" y="-11.6667" type="curve" smooth="yes"/>
      <point x="744" y="-11.6667"/>
      <point x="693.333" y="31"/>
      <point x="656.333" y="31" type="curve" smooth="yes"/>
      <point x="650" y="31"/>
      <point x="639.333" y="30.3333"/>
      <point x="632" y="22.3333" type="curve"/>
      <point x="603" y="-30.3333" type="line"/>
      <point x="523.333" y="12.6667" type="line"/>
      <point x="859.333" y="404" type="line"/>
      <point x="779.667" y="387" type="line"/>
      <point x="750" y="403.333"/>
      <point x="722.667" y="417" name="hr02"/>
      <point x="697" y="417" type="curve" smooth="yes" name="n75"/>
      <point x="681" y="417"/>
      <point x="650" y="405"/>
      <point x="639.667" y="388" type="curve"/>
      <point x="694.667" y="324.333" type="line"/>
      <point x="689.333" y="315.333"/>
      <point x="662.333" y="289.333" name="hr03"/>
      <point x="632.667" y="289.333" type="curve" smooth="yes" name="n82"/>
      <point x="593" y="289.333"/>
      <point x="575.333" y="327.667"/>
      <point x="575.333" y="353.333" type="curve" smooth="yes"/>
      <point x="575.333" y="415.333"/>
      <point x="637.333" y="496"/>
      <point x="727" y="496" type="curve" smooth="yes" name="n88"/>
      <point x="789.667" y="496"/>
      <point x="841.667" y="448.333"/>
      <point x="872.667" y="448.333" type="curve" smooth="yes"/>
      <point x="878.333" y="448.333"/>
      <point x="885.333" y="449.333"/>
      <point x="895" y="455" type="curve"/>
      <point x="918.667" y="513.333" type="line"/>
    </contour>
    <contour>
      <point x="1042.67" y="720.667" type="line"/>
      <point x="883.667" y="551" type="line"/>
      <point x="791.667" y="551" type="line"/>
      <point x="700.667" y="720.667" type="line"/>
      <point x="775" y="720.667" type="line"/>
      <point x="853.333" y="628" type="line"/>
      <point x="967.667" y="720.667" type="line"/>
    </contour>
  </outline>
</glyph>
<glyph name="uni01C7" format="2">
  <advance width="1013"/>
  <unicode hex="01C7"/>
  <outline>
    <contour>
      <point x="498" y="190.667" type="line"/>
      <point x="460.667" y="0" type="line" name="n01"/>
      <point x="-15" y="0" type="line"/>
      <point x="-15" y="44.6667" type="line"/>
      <point x="3.18822" y="46.4588"/>
      <point x="42.6667" y="49.3333"/>
      <point x="42.6667" y="49.3333" type="curve"/>
      <point x="57.6667" y="50.6667"/>
      <point x="65" y="55.3333"/>
      <point x="67" y="67.6667" type="curve"/>
      <point x="171" y="603" type="line" smooth="yes"/>
      <point x="173.333" y="614"/>
      <point x="168" y="620.333"/>
      <point x="153" y="621.333" type="curve" name="n13"/>
      <point x="153" y="621.333"/>
      <point x="114.857" y="624.513"/>
      <point x="96" y="626.333" type="curve"/>
      <point x="96" y="671" type="line" name="n17"/>
      <point x="370" y="671" type="line"/>
      <point x="370" y="626.333" type="line"/>
      <point x="349.004" y="624.486"/>
      <point x="309" y="621.333"/>
      <point x="309" y="621.333" type="curve"/>
      <point x="296" y="620.333"/>
      <point x="288.333" y="613.333"/>
      <point x="286" y="602.667" type="curve" smooth="yes"/>
      <point x="180" y="53.3333" type="line" name="hr01"/>
      <point x="370" y="53.3333" type="line" smooth="yes" name="n27"/>
      <point x="382" y="53.3333"/>
      <point x="392.481" y="60.619"/>
      <point x="396" y="71.3333" type="curve" smooth="yes"/>
      <point x="433.667" y="190.667" type="line" name="n31"/>
    </contour>
    <contour>
      <point x="1053" y="626.333" type="line"/>
      <point x="992.333" y="621" type="line"/>
      <point x="980.667" y="620.333"/>
      <point x="973.667" y="614.333"/>
      <point x="971" y="602.667" type="curve"/>
      <point x="907" y="256.333" type="line" smooth="yes"/>
      <point x="877.333" y="93.6667"/>
      <point x="830.667" y="-16" name="hr03"/>
      <point x="651" y="-16" type="curve" smooth="yes" name="n40"/>
      <point x="568.667" y="-16"/>
      <point x="523.333" y="9.66667"/>
      <point x="512" y="15.3333" type="curve"/>
      <point x="545.333" y="187.333" type="line"/>
      <point x="616.667" y="187.333" type="line"/>
      <point x="616.667" y="64" type="line" smooth="yes"/>
      <point x="616.667" y="49"/>
      <point x="639" y="39.3333"/>
      <point x="658" y="39.3333" type="curve" smooth="yes" name="n49"/>
      <point x="734" y="39.3333"/>
      <point x="765.667" y="112.667"/>
      <point x="790" y="247.667" type="curve" smooth="yes"/>
      <point x="856" y="603" type="line" smooth="yes"/>
      <point x="858" y="614.333"/>
      <point x="853" y="620.333"/>
      <point x="837.333" y="621.333" type="curve"/>
      <point x="837.333" y="621.333"/>
      <point x="797.527" y="624.541"/>
      <point x="779" y="626.333" type="curve"/>
      <point x="779" y="671" type="line"/>
      <point x="1053" y="671" type="line"/>
    </contour>
  </outline>
</glyph>
<glyph name="uni01CC" format="2">
  <advance width="833"/>
  <unicode hex="01CC"/>
  <outline>
    <contour>
      <point x="542.667" y="21" type="line"/>
      <point x="519.667" y="11.3333"/>
      <point x="444.667" y="-12" name="n02"/>
      <point x="401.333" y="-12" type="curve" smooth="yes"/>
      <point x="370.667" y="-12"/>
      <point x="302.667" y="-5.33333"/>
      <point x="313.667" y="48.3333" type="curve" smooth="yes"/>
      <point x="374.667" y="354.667" type="line" smooth="yes"/>
      <point x="384.667" y="406.333"/>
      <point x="359" y="422.333"/>
      <point x="337.333" y="422.333" type="curve" smooth="yes" name="n10"/>
      <point x="305.667" y="422.333"/>
      <point x="242.667" y="382.667"/>
      <point x="199.333" y="337" type="curve"/>
      <point x="129.667" y="0" type="line" name="n14"/>
      <point x="23.3333" y="0" type="line"/>
      <point x="110.667" y="425" type="line"/>
      <point x="26.6667" y="433.667" type="line"/>
      <point x="26.6667" y="464.333" type="line"/>
      <point x="182" y="496" type="line"/>
      <point x="231.667" y="496" type="line"/>
      <point x="215" y="414.667" type="line"/>
      <point x="260.667" y="455.667"/>
      <point x="330.667" y="496"/>
      <point x="392.667" y="496" type="curve" smooth="yes" name="n24"/>
      <point x="474.667" y="496"/>
      <point x="504.333" y="455.333"/>
      <point x="488.333" y="367" type="curve" smooth="yes"/>
      <point x="435" y="85.3333" type="line" smooth="yes"/>
      <point x="428.333" y="49"/>
      <point x="460.333" y="44.3333"/>
      <point x="471.667" y="44.3333" type="curve" smooth="yes"/>
      <point x="490.667" y="44.3333"/>
      <point x="516" y="51.3333"/>
      <point x="541.333" y="60.3333" type="curve"/>
    </contour>
    <contour>
      <point x="827" y="648.333" type="curve" smooth="yes" name="n35"/>
      <point x="827" y="618"/>
      <point x="798.333" y="585"/>
      <point x="759.333" y="585" type="curve" smooth="yes" name="n38"/>
      <point x="721" y="585"/>
      <point x="692.333" y="612.667"/>
      <point x="692.333" y="648.333" type="curve" smooth="yes" name="n41"/>
      <point x="692.333" y="682.667"/>
      <point x="717" y="712"/>
      <point x="759.333" y="712" type="curve" smooth="yes" name="n44"/>
      <point x="800.333" y="712"/>
      <point x="827" y="682.667"/>
    </contour>
    <contour>
      <point x="791.667" y="496" type="line"/>
      <point x="720.667" y="81.3333" type="line" smooth="yes"/>
      <point x="703.333" y="-19"/>
      <point x="626" y="-229" name="n50"/>
      <point x="490.667" y="-229" type="curve" smooth="yes"/>
      <point x="447" y="-229"/>
      <point x="417" y="-205.333"/>
      <point x="417" y="-174.333" type="curve" smooth="yes"/>
      <point x="417" y="-149.333"/>
      <point x="435" y="-135.333"/>
      <point x="449.333" y="-126.333" type="curve"/>
      <point x="547.667" y="-152.667" type="line"/>
      <point x="566.333" y="-129.333"/>
      <point x="589.333" y="-63"/>
      <point x="599" y="-10" type="curve" smooth="yes"/>
      <point x="673.667" y="424" type="line"/>
      <point x="589" y="433" type="line"/>
      <point x="589" y="464.333" type="line"/>
      <point x="745" y="496" type="line"/>
    </contour>
  </outline>
</glyph>
<glyph name="uni01DE" format="2">
  <advance width="686"/>
  <unicode hex="01DE"/>
  <outline>
    <contour>
      <point x="640" y="0" type="line" name="n00"/>
      <point x="391" y="0" type="line"/>
      <point x="391" y="44.6667" type="line"/>
      <point x="404.99" y="46.0931"/>
      <point x="437" y="49.6667"/>
      <point x="437" y="49.6667" type="curve"/>
      <point x="451.333" y="51.3333"/>
      <point x="457.823" y="55.97"/>
      <point x="456" y="67.3333" type="curve" smooth="yes"/>
      <point x="426.333" y="255.667" type="line" name="n09"/>
      <point x="212" y="255.667" type="line"/>
      <point x="111" y="67.3333" type="line" smooth="yes"/>
      <point x="104.333" y="55.3333"/>
      <point x="111" y="51.3333"/>
      <point x="128" y="49.6667" type="curve"/>
      <point x="128" y="49.6667"/>
      <point x="160.306" y="46.1334"/>
      <point x="176" y="44.6667" type="curve"/>
      <point x="176" y="0" type="line"/>
      <point x="-53" y="0" type="line"/>
      <point x="-53" y="44.6667" type="line"/>
      <point x="3.66667" y="50.6667" type="line"/>
      <point x="373" y="687" type="line" name="n22"/>
      <point x="465.667" y="687" type="line"/>
      <point x="574" y="67.6667" type="line" smooth="yes"/>
      <point x="576" y="54.6667"/>
      <point x="579.667" y="50.6667"/>
      <point x="594" y="49.3333" type="curve"/>
      <point x="594" y="49.3333"/>
      <point x="625.331" y="46.1307"/>
      <point x="640" y="44.6667" type="curve"/>
    </contour>
    <contour>
      <point x="416.667" y="306" type="line" name="n31"/>
      <point x="377" y="544" type="line"/>
      <point x="241" y="306" type="line"/>
    </contour>
    <contour>
      <point x="600.667" y="840.333" type="curve" smooth="yes" name="n34"/>
      <point x="600.667" y="807.667"/>
      <point x="574.667" y="780"/>
      <point x="542" y="780" type="curve" smooth="yes" name="n37"/>
      <point x="509.333" y="780"/>
      <point x="482.667" y="807.667"/>
      <point x="482.667" y="840.333" type="curve" smooth="yes" name="n40"/>
      <point x="482.667" y="871.667"/>
      <point x="510.667" y="900"/>
      <point x="542" y="900" type="curve" smooth="yes" name="n43"/>
      <point x="574.667" y="900"/>
      <point x="600.667" y="873"/>
    </contour>
    <contour>
      <point x="393" y="840.333" type="curve" smooth="yes" name="n46"/>
      <point x="393" y="807.667"/>
      <point x="366" y="780"/>
      <point x="333.333" y="780" type="curve" smooth="yes"/>
      <point x="301.333" y="780"/>
      <point x="274.333" y="807.667"/>
      <point x="274.333" y="839.667" type="curve" smooth="yes" name="n52"/>
      <point x="274.333" y="871.667"/>
      <point x="301.333" y="900"/>
      <point x="333.333" y="900" type="curve" smooth="yes"/>
      <point x="366" y="900"/>
      <point x="393" y="873"/>
    </contour>
    <contour>
      <point x="618.667" y="1047" type="line" name="n58"/>
      <point x="605" y="977" type="line" name="n59"/>
      <point x="290" y="977" type="line"/>
      <point x="304.667" y="1047" type="line"/>
    </contour>
  </outline>
</glyph>
<glyph name="uni01DF" format="2">
  <advance width="536"/>
  <unicode hex="01DF"/>
  <outline>
    <contour>
      <point x="533.667" y="28" type="line"/>
      <point x="507.667" y="17.3333"/>
      <point x="439.333" y="-12"/>
      <point x="396.333" y="-12" type="curve" smooth="yes"/>
      <point x="350.333" y="-12"/>
      <point x="329.333" y="9.33333"/>
      <point x="322.333" y="48.3333" type="curve"/>
      <point x="290.667" y="22"/>
      <point x="240.333" y="-12"/>
      <point x="184.333" y="-12" type="curve" smooth="yes" name="n09"/>
      <point x="64.6667" y="-12"/>
      <point x="32" y="95.3333"/>
      <point x="32" y="168.333" type="curve" smooth="yes" name="n12"/>
      <point x="32" y="321.333"/>
      <point x="131.667" y="496"/>
      <point x="328" y="496" type="curve" smooth="yes" name="n15"/>
      <point x="362.333" y="496"/>
      <point x="396" y="481"/>
      <point x="415.667" y="465" type="curve"/>
      <point x="428" y="484" type="line"/>
      <point x="509" y="484" type="line"/>
      <point x="502.667" y="467.333"/>
      <point x="490" y="435.333"/>
      <point x="488" y="425.667" type="curve"/>
      <point x="476.914" y="381.434"/>
      <point x="424.407" y="130.81"/>
      <point x="423" y="94.3333" type="curve"/>
      <point x="423" y="61"/>
      <point x="434.667" y="50.3333"/>
      <point x="460.667" y="50.3333" type="curve" smooth="yes"/>
      <point x="471.667" y="50.3333"/>
      <point x="523.667" y="66"/>
      <point x="533.667" y="68" type="curve"/>
    </contour>
    <contour>
      <point x="372.333" y="392.667" type="curve" smooth="yes"/>
      <point x="373.667" y="399.333"/>
      <point x="354" y="444.667"/>
      <point x="342.333" y="444.667" type="curve" smooth="yes" name="n36"/>
      <point x="197.667" y="444.667"/>
      <point x="145" y="285.667"/>
      <point x="145" y="174.333" type="curve" smooth="yes" name="n39"/>
      <point x="145" y="119.333"/>
      <point x="154.333" y="57"/>
      <point x="215.667" y="57" type="curve" smooth="yes" name="n42"/>
      <point x="261.333" y="57"/>
      <point x="306.333" y="104"/>
      <point x="320.333" y="117.667" type="curve"/>
      <point x="329.597" y="166.966"/>
      <point x="343.597" y="241.633"/>
    </contour>
    <contour>
      <point x="536.333" y="645.333" type="curve" smooth="yes" name="n48"/>
      <point x="536.333" y="612.667"/>
      <point x="510" y="585"/>
      <point x="477.333" y="585" type="curve" smooth="yes" name="n51"/>
      <point x="444.667" y="585"/>
      <point x="418" y="612.667"/>
      <point x="418" y="645.333" type="curve" smooth="yes" name="n54"/>
      <point x="418" y="676.667"/>
      <point x="446" y="705"/>
      <point x="477.333" y="705" type="curve" smooth="yes" name="n57"/>
      <point x="510" y="705"/>
      <point x="536.333" y="678"/>
    </contour>
    <contour>
      <point x="328.333" y="645.333" type="curve" smooth="yes" name="n60"/>
      <point x="328.333" y="612.667"/>
      <point x="301.333" y="585"/>
      <point x="268.667" y="585" type="curve" smooth="yes"/>
      <point x="236.667" y="585"/>
      <point x="209.667" y="612.667"/>
      <point x="209.667" y="644.667" type="curve" smooth="yes" name="n66"/>
      <point x="209.667" y="676.667"/>
      <point x="236.667" y="705"/>
      <point x="268.667" y="705" type="curve" smooth="yes"/>
      <point x="301.333" y="705"/>
      <point x="328.333" y="678"/>
    </contour>
    <contour>
      <point x="573.333" y="852" type="line" name="n72"/>
      <point x="559.667" y="781" type="line" name="n73"/>
      <point x="244.667" y="781" type="line"/>
      <point x="259.333" y="852" type="line"/>
    </contour>
  </outline>
</glyph>
<glyph name="uni01E5" format="2">
  <advance width="521"/>
  <unicode hex="01E5"/>
  <outline>
    <contour>
      <point x="518.333" y="-103.333" type="line" name="n00"/>
      <point x="472" y="-103.333" type="line"/>
      <point x="442.333" y="-173"/>
      <point x="334.667" y="-229"/>
      <point x="219.667" y="-229" type="curve" smooth="yes" name="n04"/>
      <point x="93" y="-229"/>
      <point x="31.6667" y="-169.333"/>
      <point x="21.3333" y="-103.333" type="curve"/>
      <point x="-19" y="-103.333" type="line"/>
      <point x="-19" y="-51.6667" type="line"/>
      <point x="24.3333" y="-51.6667" type="line"/>
      <point x="38.6667" y="0"/>
      <point x="91" y="35.6667"/>
      <point x="153.333" y="57" type="curve"/>
      <point x="147.667" y="88"/>
      <point x="165.333" y="145"/>
      <point x="192" y="172" type="curve"/>
      <point x="139" y="195.667"/>
      <point x="98.6667" y="232.667"/>
      <point x="98.6667" y="296.333" type="curve" smooth="yes" name="n19"/>
      <point x="98.6667" y="392"/>
      <point x="172.667" y="496"/>
      <point x="309" y="496" type="curve" smooth="yes" name="n22"/>
      <point x="357.667" y="496"/>
      <point x="398.333" y="477.667"/>
      <point x="412.667" y="470.333" type="curve" name="hr01"/>
      <point x="552" y="470.333" type="line" name="n26"/>
      <point x="552" y="419.667" type="line" name="n27"/>
      <point x="460" y="419.667" type="line"/>
      <point x="466" y="404.667"/>
      <point x="471.667" y="380.333"/>
      <point x="471.667" y="354.333" type="curve" smooth="yes" name="n31"/>
      <point x="471.667" y="236.667"/>
      <point x="379.333" y="162"/>
      <point x="253.667" y="161.667" type="curve" name="n34"/>
      <point x="245.333" y="142"/>
      <point x="240.667" y="115.667"/>
      <point x="243.333" y="104.667" type="curve"/>
      <point x="377" y="44" type="line" smooth="yes"/>
      <point x="433.667" y="19"/>
      <point x="473" y="-4"/>
      <point x="479.333" y="-51.6667" type="curve"/>
      <point x="518.333" y="-51.6667" type="line" name="n42"/>
    </contour>
    <contour>
      <point x="362.333" y="359.333" type="curve" smooth="yes" name="n43"/>
      <point x="362.333" y="407.667"/>
      <point x="350.333" y="450.667" name="hr02"/>
      <point x="311" y="450.667" type="curve" smooth="yes" name="n46"/>
      <point x="271.667" y="450.667"/>
      <point x="209.333" y="379"/>
      <point x="209.333" y="283.667" type="curve" smooth="yes" name="n49"/>
      <point x="209.333" y="236.333"/>
      <point x="225.333" y="202"/>
      <point x="259.667" y="202" type="curve" smooth="yes" name="n52"/>
      <point x="326.333" y="202"/>
      <point x="362.333" y="297"/>
    </contour>
    <contour>
      <point x="245.667" y="-179.667" type="curve" smooth="yes" name="n55"/>
      <point x="325.333" y="-179.667"/>
      <point x="361.333" y="-136.333"/>
      <point x="370.667" y="-103.333" type="curve"/>
      <point x="134.667" y="-103.333" type="line"/>
      <point x="148.333" y="-141.333"/>
      <point x="184" y="-179.667"/>
    </contour>
    <contour>
      <point x="202.333" y="29.3333" type="line"/>
      <point x="151" y="15"/>
      <point x="131.667" y="-17.3333"/>
      <point x="128.333" y="-51.6667" type="curve"/>
      <point x="361" y="-51.6667" type="line"/>
      <point x="353" y="-42"/>
      <point x="341" y="-33.3333"/>
      <point x="323" y="-25" type="curve" smooth="yes"/>
    </contour>
  </outline>
</glyph>
<glyph name="uni01F1" format="2">
  <advance width="1261"/>
  <unicode hex="01F1"/>
  <outline>
    <contour>
      <point x="667" y="414.667" type="curve" smooth="yes" name="n00"/>
      <point x="667" y="171.333"/>
      <point x="491.667" y="0"/>
      <point x="227" y="0" type="curve" smooth="yes"/>
      <point x="-15" y="0" type="line"/>
      <point x="-15" y="44.6667" type="line"/>
      <point x="4.68348" y="46.4745"/>
      <point x="46.3333" y="49.3333"/>
      <point x="46.3333" y="49.3333" type="curve"/>
      <point x="60.3333" y="50.3333"/>
      <point x="64" y="55"/>
      <point x="67" y="67.6667" type="curve"/>
      <point x="171" y="603" type="line" smooth="yes"/>
      <point x="173" y="614.333"/>
      <point x="167.667" y="620.333"/>
      <point x="151.667" y="621.333" type="curve"/>
      <point x="151.667" y="621.333"/>
      <point x="113.362" y="624.527"/>
      <point x="95" y="626.333" type="curve"/>
      <point x="95" y="671" type="line"/>
      <point x="341" y="671" type="line" smooth="yes" name="n20"/>
      <point x="531.333" y="671"/>
      <point x="667" y="602.667"/>
    </contour>
    <contour>
      <point x="545" y="423.667" type="curve" smooth="yes" name="n23"/>
      <point x="545" y="590"/>
      <point x="434.333" y="614"/>
      <point x="317.333" y="617.667" type="curve" name="n26"/>
      <point x="288.667" y="617.667" type="line" name="hr01"/>
      <point x="179.333" y="55.3333" type="line"/>
      <point x="245" y="55.3333" type="line"/>
      <point x="438.333" y="57.3333"/>
      <point x="545" y="233.333"/>
    </contour>
    <contour>
      <point x="1294.33" y="671" type="line"/>
      <point x="1285" y="624.333" type="line"/>
      <point x="815.667" y="56" type="line"/>
      <point x="1079" y="56" type="line" smooth="yes" name="n35"/>
      <point x="1091.67" y="56"/>
      <point x="1101.49" y="61.9571"/>
      <point x="1105" y="74.3333" type="curve" smooth="yes"/>
      <point x="1137" y="192.333" type="line" name="n39"/>
      <point x="1210.33" y="192.333" type="line"/>
      <point x="1173.67" y="0" type="line" name="n41"/>
      <point x="664.667" y="0" type="line"/>
      <point x="674" y="45.6667" type="line"/>
      <point x="1141.33" y="615.667" type="line"/>
      <point x="916" y="615.667" type="line" smooth="yes" name="n45"/>
      <point x="903.333" y="615.667"/>
      <point x="894.333" y="610.333"/>
      <point x="890.667" y="598.333" type="curve" smooth="yes"/>
      <point x="862" y="504.333" type="line"/>
      <point x="788" y="504.333" type="line" name="n50"/>
      <point x="821.333" y="671" type="line" name="n51"/>
    </contour>
  </outline>
</glyph>
<glyph name="aringacute" format="2">
  <advance width="536"/>
  <unicode hex="01FB"/>
  <outline>
    <contour>
      <point x="533.667" y="28" type="line"/>
      <point x="507.667" y="17.3333"/>
      <point x="439.333" y="-12"/>
      <point x="396.333" y="-12" type="curve" smooth="yes"/>
      <point x="350.333" y="-12"/>
      <point x="329.333" y="9.33333"/>
      <point x="322.333" y="48.3333" type="curve"/>
      <point x="290.667" y="22"/>
      <point x="240.333" y="-12"/>
      <point x="184.333" y="-12" type="curve" smooth="yes" name="n09"/>
      <point x="64.6667" y="-12"/>
      <point x="32" y="95.3333"/>
      <point x="32" y="168.333" type="curve" smooth="yes" name="n12"/>
      <point x="32" y="321.333"/>
      <point x="131.667" y="496"/>
      <point x="328" y="496" type="curve" smooth="yes" name="n15"/>
      <point x="362.333" y="496"/>
      <point x="396" y="481"/>
      <point x="415.667" y="465" type="curve"/>
      <point x="428" y="484" type="line"/>
      <point x="509" y="484" type="line"/>
      <point x="502.667" y="467.333"/>
      <point x="490" y="435.333"/>
      <point x="488" y="425.667" type="curve"/>
      <point x="476.914" y="381.434"/>
      <point x="424.407" y="130.81"/>
      <point x="423" y="94.3333" type="curve"/>
      <point x="423" y="61"/>
      <point x="434.667" y="50.3333"/>
      <point x="460.667" y="50.3333" type="curve" smooth="yes"/>
      <point x="471.667" y="50.3333"/>
      <point x="523.667" y="66"/>
      <point x="533.667" y="68" type="curve"/>
    </contour>
    <contour>
      <point x="372.333" y="392.667" type="curve" smooth="yes"/>
      <point x="373.667" y="399.333"/>
      <point x="354" y="444.667"/>
      <point x="342.333" y="444.667" type="curve" smooth="yes" name="n36"/>
      <point x="197.667" y="444.667"/>
      <point x="145" y="285.667"/>
      <point x="145" y="174.333" type="curve" smooth="yes" name="n39"/>
      <point x="145" y="119.333"/>
      <point x="154.333" y="57"/>
      <point x="215.667" y="57" type="curve" smooth="yes" name="n42"/>
      <point x="261.333" y="57"/>
      <point x="306.333" y="104"/>
      <point x="320.333" y="117.667" type="curve"/>
      <point x="329.597" y="166.966"/>
      <point x="343.597" y="241.633"/>
    </contour>
    <contour>
      <point x="410" y="601.333" type="curve" name="n48"/>
      <point x="372.667" y="574.667"/>
      <point x="319.667" y="577.667"/>
      <point x="293.667" y="614.333" type="curve" name="n51"/>
      <point x="274" y="663"/>
      <point x="303.667" y="720.667"/>
      <point x="352.333" y="740.667" type="curve" name="n54"/>
      <point x="389.667" y="767.333"/>
      <point x="442" y="764.333"/>
      <point x="468.333" y="727" type="curve" name="n57"/>
      <point x="488" y="677.667"/>
      <point x="458.667" y="621"/>
    </contour>
    <contour>
      <point x="447.333" y="684.333" type="curve" smooth="yes" name="n60"/>
      <point x="447.333" y="715"/>
      <point x="424" y="735.333"/>
      <point x="394" y="735.333" type="curve" smooth="yes" name="n63"/>
      <point x="353.667" y="735.333"/>
      <point x="314.333" y="699.333"/>
      <point x="314.333" y="658.333" type="curve" smooth="yes" name="n66"/>
      <point x="314.333" y="627.667"/>
      <point x="338" y="606.667"/>
      <point x="367.667" y="606.667" type="curve" smooth="yes" name="n69"/>
      <point x="408.333" y="606.667"/>
      <point x="447.333" y="644"/>
    </contour>
    <contour>
      <point x="555.333" y="959.667" type="curve" smooth="yes"/>
      <point x="555.333" y="942.667"/>
      <point x="545.333" y="927.667"/>
      <point x="530.333" y="918.333" type="curve" smooth="yes"/>
      <point x="377.667" y="824" type="line"/>
      <point x="306.667" y="824" type="line"/>
      <point x="444" y="978.667" type="line" smooth="yes"/>
      <point x="460" y="997"/>
      <point x="474" y="1005.67" name="n80"/>
      <point x="503" y="1005.67" type="curve" smooth="yes"/>
      <point x="540.667" y="1005.67"/>
      <point x="555.333" y="981"/>
    </contour>
  </outline>
</glyph>
<glyph name="uni0220" format="2">
  <advance width="738"/>
  <unicode hex="0220"/>
  <outline>
    <contour>
      <point x="406.667" y="467.333" type="curve"/>
      <point x="315" y="-3.66667" type="line"/>
      <point x="315" y="-17.0416"/>
      <point x="320.007" y="-22.012"/>
      <point x="334.333" y="-23.3333" type="curve" smooth="yes"/>
      <point x="389" y="-28.3333" type="line"/>
      <point x="389" y="-73" type="line" name="n06"/>
      <point x="117.667" y="-73" type="line"/>
      <point x="117.667" y="-28.3333" type="line"/>
      <point x="175.333" y="-23.6667" type="line" smooth="yes"/>
      <point x="190.353" y="-22.5542"/>
      <point x="197.628" y="-15.9982"/>
      <point x="200" y="-3.66667" type="curve" smooth="yes"/>
      <point x="307.329" y="554.412" type="line" smooth="yes"/>
      <point x="308.472" y="560.365"/>
      <point x="309.928" y="570.165"/>
      <point x="309.926" y="574.64" type="curve" smooth="yes"/>
      <point x="309.921" y="601.738"/>
      <point x="285.492" y="616.426"/>
      <point x="256.528" y="617.333" type="curve" smooth="yes"/>
      <point x="230.567" y="617.818"/>
      <point x="182.068" y="605.375"/>
      <point x="161.522" y="584.952" type="curve"/>
      <point x="133.667" y="472.667" type="line" name="n23"/>
      <point x="162.056" y="467.955"/>
      <point x="230.653" y="466.183"/>
      <point x="266.333" y="465.667" type="curve"/>
      <point x="267.333" y="384" type="line"/>
      <point x="310.667" y="439.496"/>
      <point x="365.333" y="460.724"/>
      <point x="428" y="458" type="curve" name="n30"/>
      <point x="472.557" y="458"/>
      <point x="472.35" y="411.333"/>
      <point x="454.333" y="341.333" type="curve" name="n33"/>
      <point x="454.333" y="336.683"/>
      <point x="453.667" y="340.367"/>
      <point x="452.333" y="335.333" type="curve"/>
      <point x="390.333" y="-92" type="line"/>
      <point x="396.687" y="-101.108"/>
      <point x="401.644" y="-100.801"/>
      <point x="412" y="-97.3333" type="curve"/>
      <point x="483.667" y="71" type="line"/>
      <point x="483.93" y="66.9575"/>
      <point x="484.049" y="49.4981"/>
      <point x="484.051" y="46.531" type="curve" name="n44"/>
      <point x="452.735" y="49.7706"/>
      <point x="353.743" y="51.3446"/>
      <point x="304.667" y="51.6667" type="curve"/>
      <point x="285.667" y="81" type="line"/>
      <point x="324.333" y="101" type="line"/>
      <point x="348.198" y="101.667"/>
      <point x="402.486" y="105.667"/>
      <point x="418" y="113.667" type="curve"/>
      <point x="494" y="519.667" type="line"/>
      <point x="513.658" y="541.619"/>
      <point x="537.131" y="558.08"/>
      <point x="563.879" y="563.031" type="curve" name="n56"/>
      <point x="604.131" y="608.033"/>
      <point x="595.312" y="612.667"/>
      <point x="549.667" y="578.995" type="curve" name="n59"/>
      <point x="498.333" y="575.667"/>
      <point x="424.037" y="500.326"/>
    </contour>
  </outline>
</glyph>
<glyph name="uni0234" format="2">
  <advance width="336"/>
  <unicode hex="0234"/>
  <outline>
    <contour>
      <point x="341" y="124.333" type="curve" smooth="yes" name="n00"/>
      <point x="341" y="47"/>
      <point x="260" y="-12"/>
      <point x="167.333" y="-12" type="curve" smooth="yes" name="n03"/>
      <point x="136" y="-12"/>
      <point x="66.3333" y="-14.6667"/>
      <point x="52.3333" y="48" type="curve"/>
      <point x="10" y="3.33333"/>
      <point x="-2.33333" y="-10"/>
      <point x="-31.6667" y="-54.6667" type="curve"/>
      <point x="-71.6667" y="-26.3333" type="line"/>
      <point x="-21.3333" y="41.3333"/>
      <point x="-12.6667" y="50.6667"/>
      <point x="52.6667" y="112.667" type="curve"/>
      <point x="159.333" y="665.667" type="line"/>
      <point x="70.6667" y="674.333" type="line"/>
      <point x="70.6667" y="706.333" type="line"/>
      <point x="231" y="737" type="line" name="n17"/>
      <point x="279" y="737" type="line"/>
      <point x="173" y="181" type="line"/>
      <point x="203" y="195"/>
      <point x="232" y="204.667"/>
      <point x="265" y="204.667" type="curve" smooth="yes" name="n22"/>
      <point x="312.667" y="204.667"/>
      <point x="341" y="174.667"/>
    </contour>
    <contour>
      <point x="272.667" y="114.667" type="curve" smooth="yes" name="n25"/>
      <point x="272.667" y="141"/>
      <point x="266" y="157"/>
      <point x="238.333" y="157" type="curve" smooth="yes" name="n28"/>
      <point x="210.333" y="157"/>
      <point x="190" y="143.667"/>
      <point x="162.333" y="127.333" type="curve"/>
      <point x="160.334" y="112.919"/>
      <point x="157.195" y="96.5667"/>
      <point x="157" y="92.3333" type="curve" smooth="yes" name="n34"/>
      <point x="155.333" y="67"/>
      <point x="167.667" y="48"/>
      <point x="200" y="48" type="curve" smooth="yes" name="n37"/>
      <point x="237.333" y="48"/>
      <point x="272.667" y="75.6667"/>
    </contour>
  </outline>
</glyph>
<glyph name="uni0235" format="2">
  <advance width="585"/>
  <unicode hex="0235"/>
  <outline>
    <contour>
      <point x="600.333" y="124.333" type="curve" smooth="yes" name="n00"/>
      <point x="600.333" y="45.6667"/>
      <point x="529.667" y="-12"/>
      <point x="443.667" y="-12" type="curve" smooth="yes" name="n03"/>
      <point x="380.667" y="-12"/>
      <point x="343" y="12"/>
      <point x="329.333" y="40.3333" type="curve"/>
      <point x="276.333" y="-11"/>
      <point x="236" y="-68.3333"/>
      <point x="215.667" y="-103.333" type="curve"/>
      <point x="172.667" y="-80.6667" type="line"/>
      <point x="198" y="-34.3333"/>
      <point x="245" y="32"/>
      <point x="323.667" y="100.667" type="curve"/>
      <point x="323.667" y="100.667"/>
      <point x="375.085" y="352.433"/>
      <point x="374.667" y="354.667" type="curve"/>
      <point x="384.667" y="406.333"/>
      <point x="359" y="422.333"/>
      <point x="337.333" y="422.333" type="curve" smooth="yes" name="n19"/>
      <point x="305.667" y="422.333"/>
      <point x="242.667" y="382.667"/>
      <point x="199.333" y="337" type="curve"/>
      <point x="129.667" y="0" type="line" name="n23"/>
      <point x="23.3333" y="0" type="line"/>
      <point x="110.667" y="425" type="line"/>
      <point x="26.6667" y="433.667" type="line"/>
      <point x="26.6667" y="464.333" type="line"/>
      <point x="182" y="496" type="line"/>
      <point x="231.667" y="496" type="line"/>
      <point x="215" y="414.667" type="line"/>
      <point x="260.667" y="455.667"/>
      <point x="330.667" y="496"/>
      <point x="392.667" y="496" type="curve" smooth="yes" name="n33"/>
      <point x="474.667" y="496"/>
      <point x="504.333" y="455.333"/>
      <point x="488.333" y="367" type="curve" smooth="yes"/>
      <point x="451.333" y="172" type="line"/>
      <point x="479.667" y="184"/>
      <point x="496.333" y="191.667"/>
      <point x="525.667" y="191.667" type="curve" smooth="yes" name="n40"/>
      <point x="571" y="191.667"/>
      <point x="600.333" y="171.333"/>
    </contour>
    <contour>
      <point x="546" y="108.333" type="curve" smooth="yes" name="n43"/>
      <point x="547" y="131"/>
      <point x="532.333" y="144.667"/>
      <point x="511.667" y="144.667" type="curve" smooth="yes" name="n46"/>
      <point x="485.333" y="144.667"/>
      <point x="466.667" y="133"/>
      <point x="441" y="118" type="curve"/>
      <point x="439.667" y="108"/>
      <point x="434.667" y="82.3333"/>
      <point x="434.667" y="82.3333" type="curve"/>
      <point x="431" y="60.3333"/>
      <point x="441.333" y="40"/>
      <point x="472" y="40" type="curve" smooth="yes" name="n55"/>
      <point x="513.333" y="40"/>
      <point x="544.667" y="75.3333"/>
    </contour>
  </outline>
</glyph>
<glyph name="uni023C" format="2">
  <advance width="450"/>
  <unicode hex="023C"/>
  <outline>
    <contour>
      <point x="418.667" y="424.667" type="curve" smooth="yes"/>
      <point x="418.667" y="399.333"/>
      <point x="403" y="361"/>
      <point x="335.333" y="355.667" type="curve"/>
      <point x="279" y="433" type="line" name="n04"/>
      <point x="169.333" y="421.333"/>
      <point x="141.333" y="254"/>
      <point x="141.333" y="187" type="curve" smooth="yes" name="n07"/>
      <point x="141.333" y="123.333"/>
      <point x="158.667" y="56"/>
      <point x="224" y="56" type="curve" smooth="yes" name="n10"/>
      <point x="276" y="56"/>
      <point x="329.333" y="90.6667"/>
      <point x="397.333" y="164" type="curve"/>
      <point x="397.333" y="88.6667" type="line"/>
      <point x="351.667" y="40.6667"/>
      <point x="284.667" y="-12"/>
      <point x="193.667" y="-12" type="curve" smooth="yes" name="n17"/>
      <point x="89.6667" y="-12"/>
      <point x="32.3333" y="58"/>
      <point x="32.3333" y="175.333" type="curve" smooth="yes" name="n20"/>
      <point x="32.3333" y="352.333"/>
      <point x="158" y="496"/>
      <point x="312.333" y="496" type="curve" smooth="yes" name="n23"/>
      <point x="386.667" y="496"/>
      <point x="418.667" y="455.333"/>
    </contour>
    <contour>
      <point x="452.667" y="528.333" type="line"/>
      <point x="62" y="-88.6667" type="line"/>
      <point x="20.3333" y="-60.6667" type="line"/>
      <point x="408" y="555.667" type="line"/>
    </contour>
  </outline>
</glyph>
<glyph name="uni023E" format="2">
  <advance width="599"/>
  <unicode hex="023E"/>
  <outline>
    <contour>
      <point x="399.667" y="464" type="line"/>
      <point x="227" y="201" type="line"/>
      <point x="225" y="205.667" type="line"/>
      <point x="389.667" y="467.333" type="line"/>
    </contour>
    <contour>
      <point x="663.333" y="671" type="line"/>
      <point x="630.667" y="510.667" type="line"/>
      <point x="562.667" y="510.667" type="line"/>
      <point x="567" y="605" type="line"/>
      <point x="568" y="617.333"/>
      <point x="559.667" y="622.667" name="hr01"/>
      <point x="547" y="622.667" type="curve" smooth="yes"/>
      <point x="424.667" y="622.667" type="line"/>
      <point x="321" y="67.3333" type="line" smooth="yes"/>
      <point x="319" y="56.6667"/>
      <point x="324.667" y="50.6667"/>
      <point x="340.667" y="49.6667" type="curve"/>
      <point x="340.667" y="49.6667"/>
      <point x="380.135" y="46.4443"/>
      <point x="398" y="44.6667" type="curve"/>
      <point x="398" y="0" type="line" name="n19"/>
      <point x="124" y="0" type="line"/>
      <point x="124" y="44.6667" type="line"/>
      <point x="141.809" y="46.1215"/>
      <point x="181" y="49.3333"/>
      <point x="181" y="49.3333" type="curve"/>
      <point x="193.667" y="50.3333"/>
      <point x="204" y="55.3333"/>
      <point x="206" y="67.6667" type="curve" smooth="yes"/>
      <point x="309.667" y="622.667" type="line"/>
      <point x="192" y="622.667" type="line" smooth="yes" name="n29"/>
      <point x="181" y="622.667"/>
      <point x="169.667" y="616.333"/>
      <point x="166" y="604.667" type="curve"/>
      <point x="132.667" y="510.667" type="line" name="hr02"/>
      <point x="64.6667" y="510.667" type="line" name="n34"/>
      <point x="95.3333" y="671" type="line" name="n35"/>
    </contour>
  </outline>
</glyph>
<glyph name="uni0241" format="2">
  <advance width="483"/>
  <unicode hex="0241"/>
  <outline>
    <contour>
      <point x="495.667" y="535" type="curve" smooth="yes" name="n00"/>
      <point x="495.667" y="406.333"/>
      <point x="398.333" y="353.667"/>
      <point x="295" y="310.333" type="curve"/>
      <point x="246.667" y="69" type="line"/>
      <point x="245.333" y="59"/>
      <point x="253.667" y="51"/>
      <point x="263.333" y="50" type="curve"/>
      <point x="324" y="45.6667" type="line"/>
      <point x="324" y="0" type="line"/>
      <point x="45" y="0" type="line"/>
      <point x="45" y="45.6667" type="line"/>
      <point x="107.667" y="50" type="line"/>
      <point x="118" y="51"/>
      <point x="130.333" y="59.3333"/>
      <point x="131.667" y="69" type="curve"/>
      <point x="183.333" y="327.333" type="line"/>
      <point x="285.667" y="359.667"/>
      <point x="376.49" y="425.335"/>
      <point x="377.333" y="541" type="curve" smooth="yes" name="n19"/>
      <point x="377.823" y="600.669"/>
      <point x="345.337" y="634.468"/>
      <point x="301" y="634" type="curve" smooth="yes" name="n22"/>
      <point x="286.001" y="633.801"/>
      <point x="266.667" y="630.333"/>
      <point x="246" y="617.333" type="curve"/>
      <point x="207.333" y="521" type="line"/>
      <point x="207.333" y="521"/>
      <point x="173.667" y="504.667"/>
      <point x="147.333" y="504.667" type="curve" smooth="yes"/>
      <point x="110.667" y="504.667"/>
      <point x="98.3333" y="539.667"/>
      <point x="98.3333" y="567.667" type="curve" smooth="yes"/>
      <point x="98.3333" y="642"/>
      <point x="220.667" y="687"/>
      <point x="309" y="687" type="curve" smooth="yes" name="n35"/>
      <point x="421.333" y="687"/>
      <point x="495.667" y="623.667"/>
    </contour>
  </outline>
</glyph>
<glyph name="uni0242" format="2">
  <advance width="399"/>
  <unicode hex="0242"/>
  <outline>
    <contour>
      <point x="386" y="381" type="curve" smooth="yes" name="n00"/>
      <point x="386" y="282.333"/>
      <point x="320" y="236.667"/>
      <point x="234" y="208" type="curve"/>
      <point x="204.667" y="59.3333" type="line" smooth="yes"/>
      <point x="202.667" y="49.3333"/>
      <point x="209.667" y="44.6667"/>
      <point x="217" y="44.6667" type="curve"/>
      <point x="217" y="44.6667"/>
      <point x="261.071" y="42.3998"/>
      <point x="276.667" y="41.6667" type="curve"/>
      <point x="276.667" y="0" type="line"/>
      <point x="20.3333" y="0" type="line"/>
      <point x="20.3333" y="41.6667" type="line"/>
      <point x="36.8599" y="42.4097"/>
      <point x="80.6667" y="44.6667"/>
      <point x="80.6667" y="44.6667" type="curve"/>
      <point x="88" y="44.6667"/>
      <point x="97" y="49.3333"/>
      <point x="98.6667" y="59.3333" type="curve"/>
      <point x="130.667" y="221.667" type="line"/>
      <point x="217.333" y="241.667"/>
      <point x="277" y="293"/>
      <point x="277" y="384.667" type="curve" smooth="yes" name="n23"/>
      <point x="277" y="427"/>
      <point x="258" y="451"/>
      <point x="220" y="451" type="curve" smooth="yes" name="n26"/>
      <point x="209.667" y="451"/>
      <point x="192.333" y="449"/>
      <point x="182.667" y="442.333" type="curve"/>
      <point x="133.667" y="351.333" type="line"/>
      <point x="133.667" y="351.333"/>
      <point x="118.667" y="346.333"/>
      <point x="112.667" y="346.333" type="curve" smooth="yes"/>
      <point x="84" y="346.333"/>
      <point x="60.3333" y="369.333"/>
      <point x="60.3333" y="399.667" type="curve" smooth="yes"/>
      <point x="60.3333" y="456.667"/>
      <point x="148.333" y="496"/>
      <point x="221.667" y="496" type="curve" smooth="yes" name="n39"/>
      <point x="334.333" y="496"/>
      <point x="386" y="448.667"/>
    </contour>
  </outline>
</glyph>
<glyph name="uni0244" format="2">
  <advance width="721"/>
  <unicode hex="0244"/>
  <outline>
    <contour>
      <point x="763" y="626.333" type="line"/>
      <point x="702.333" y="621.333" type="line" smooth="yes"/>
      <point x="691.335" y="620.311"/>
      <point x="683" y="614.333"/>
      <point x="681" y="602.667" type="curve" smooth="yes"/>
      <point x="637.333" y="380.333" type="line" name="n05"/>
      <point x="726.333" y="380.333" type="line"/>
      <point x="718.333" y="321.333" type="line"/>
      <point x="625.667" y="321.333" type="line" name="n08"/>
      <point x="604" y="214.333" type="line" smooth="yes"/>
      <point x="576.333" y="71.3333"/>
      <point x="485.333" y="-16"/>
      <point x="318" y="-16" type="curve" smooth="yes" name="n12"/>
      <point x="186.667" y="-16"/>
      <point x="92" y="34"/>
      <point x="92" y="160" type="curve" smooth="yes" name="n15"/>
      <point x="92" y="179.667"/>
      <point x="96" y="218.667"/>
      <point x="105" y="264.333" type="curve"/>
      <point x="117.667" y="321.333" type="line"/>
      <point x="25.6667" y="321.333" type="line"/>
      <point x="33.6667" y="380.333" type="line"/>
      <point x="129.333" y="380.333" type="line"/>
      <point x="175" y="603" type="line"/>
      <point x="177" y="614.333"/>
      <point x="171.667" y="620.333"/>
      <point x="155" y="621.333" type="curve" name="n26"/>
      <point x="155" y="621.333"/>
      <point x="117.019" y="624.528"/>
      <point x="99" y="626.333" type="curve"/>
      <point x="99" y="671" type="line" name="n30"/>
      <point x="373" y="671" type="line"/>
      <point x="373" y="626.333" type="line"/>
      <point x="352.82" y="624.499"/>
      <point x="313" y="621.333"/>
      <point x="313" y="621.333" type="curve"/>
      <point x="301" y="620.333"/>
      <point x="292" y="615.333"/>
      <point x="290" y="602.667" type="curve"/>
      <point x="244.333" y="380.333" type="line"/>
      <point x="554.333" y="380.333" type="line"/>
      <point x="599" y="603" type="line" smooth="yes"/>
      <point x="601" y="614.333"/>
      <point x="596.667" y="620.333"/>
      <point x="579.333" y="621.333" type="curve"/>
      <point x="579.333" y="621.333"/>
      <point x="540.861" y="624.542"/>
      <point x="523" y="626.333" type="curve"/>
      <point x="523" y="671" type="line"/>
      <point x="763" y="671" type="line"/>
    </contour>
    <contour>
      <point x="542.667" y="321.333" type="line"/>
      <point x="232.667" y="321.333" type="line"/>
      <point x="221" y="264.333" type="line" smooth="yes"/>
      <point x="213" y="225.667"/>
      <point x="210" y="193.667"/>
      <point x="210" y="175.667" type="curve" smooth="yes" name="n55"/>
      <point x="210" y="91.3333"/>
      <point x="266.667" y="52.3333"/>
      <point x="344" y="52.3333" type="curve" smooth="yes" name="n58"/>
      <point x="465.333" y="52.3333"/>
      <point x="507.667" y="141.333"/>
      <point x="529" y="249.333" type="curve" smooth="yes"/>
    </contour>
  </outline>
</glyph>
<glyph name="uni0248" format="2">
  <advance width="481"/>
  <unicode hex="0248"/>
  <outline>
    <contour>
      <point x="521" y="626.333" type="line"/>
      <point x="460.333" y="621" type="line"/>
      <point x="448.667" y="620.333"/>
      <point x="441.667" y="614.333"/>
      <point x="439" y="602.667" type="curve"/>
      <point x="398.333" y="380.667" type="line"/>
      <point x="504.667" y="380.667" type="line" name="n06"/>
      <point x="504.667" y="324.333" type="line" name="n07"/>
      <point x="387.667" y="324.333" type="line"/>
      <point x="375" y="256.333" type="line" smooth="yes"/>
      <point x="345.333" y="93.6667"/>
      <point x="298.667" y="-13.3333"/>
      <point x="119" y="-13.3333" type="curve" smooth="yes" name="n12"/>
      <point x="36.6667" y="-13.3333"/>
      <point x="-8.66667" y="9.66667"/>
      <point x="-20" y="15.3333" type="curve"/>
      <point x="13.3333" y="187.333" type="line" name="hr01"/>
      <point x="84.6667" y="187.333" type="line" name="n17"/>
      <point x="84.6667" y="64" type="line" smooth="yes"/>
      <point x="84.6667" y="49"/>
      <point x="107" y="42" name="hr02"/>
      <point x="126" y="42" type="curve" smooth="yes" name="n21"/>
      <point x="202" y="42"/>
      <point x="232.667" y="112.667"/>
      <point x="258" y="247.667" type="curve" smooth="yes"/>
      <point x="272.667" y="324.333" type="line"/>
      <point x="161" y="324.333" type="line"/>
      <point x="161" y="380.667" type="line"/>
      <point x="283.333" y="380.667" type="line"/>
      <point x="324" y="603" type="line" smooth="yes"/>
      <point x="326" y="614.333"/>
      <point x="321" y="620.333"/>
      <point x="305.333" y="621.333" type="curve"/>
      <point x="305.333" y="621.333"/>
      <point x="265.527" y="624.541"/>
      <point x="247" y="626.333" type="curve"/>
      <point x="247" y="671" type="line" name="n36"/>
      <point x="521" y="671" type="line"/>
    </contour>
  </outline>
</glyph>
<glyph name="uni024A" format="2">
  <advance width="722"/>
  <unicode hex="024A"/>
  <outline>
    <contour>
      <point x="749" y="-134.333" type="curve" smooth="yes"/>
      <point x="749" y="-207"/>
      <point x="663" y="-229" name="n02"/>
      <point x="600" y="-229" type="curve" smooth="yes"/>
      <point x="510.333" y="-229"/>
      <point x="448" y="-179.333"/>
      <point x="448" y="-78.6667" type="curve" smooth="yes"/>
      <point x="448" y="-53.3333"/>
      <point x="454.667" y="-12.6667"/>
      <point x="462.667" y="22.3333" type="curve"/>
      <point x="423.667" y="-5.33333"/>
      <point x="384.667" y="-14"/>
      <point x="325" y="-14" type="curve" smooth="yes" name="n12"/>
      <point x="188.667" y="-14"/>
      <point x="47" y="45.6667"/>
      <point x="47" y="246" type="curve" smooth="yes" name="n15"/>
      <point x="47" y="493"/>
      <point x="230" y="686.333"/>
      <point x="472" y="686.333" type="curve" smooth="yes" name="n18"/>
      <point x="528.333" y="686.333"/>
      <point x="584" y="663.667"/>
      <point x="602.333" y="652.667" type="curve"/>
      <point x="635.667" y="687.667" type="line" name="n22"/>
      <point x="706.333" y="687.667" type="line"/>
      <point x="558" y="-82" type="line"/>
      <point x="548.667" y="-135"/>
      <point x="572" y="-165.667"/>
      <point x="600.667" y="-169.667" type="curve"/>
      <point x="692.667" y="-77" type="line"/>
      <point x="703" y="-79.3333"/>
      <point x="749" y="-94"/>
    </contour>
    <contour>
      <point x="564" y="547.667" type="line" smooth="yes"/>
      <point x="567.667" y="566.333"/>
      <point x="509.333" y="628"/>
      <point x="490" y="628" type="curve" smooth="yes" name="n34"/>
      <point x="289" y="628"/>
      <point x="174" y="443.667"/>
      <point x="174" y="255.667" type="curve" smooth="yes" name="n37"/>
      <point x="174" y="115"/>
      <point x="239" y="45.3333"/>
      <point x="338" y="45.3333" type="curve" smooth="yes" name="n40"/>
      <point x="406.667" y="45.3333"/>
      <point x="437.333" y="68"/>
      <point x="476" y="95" type="curve"/>
    </contour>
  </outline>
</glyph>
<glyph name="uni0254" format="2">
  <advance width="450"/>
  <unicode hex="0254"/>
  <outline>
    <contour>
      <point x="418.667" y="307.502" type="curve" smooth="yes" name="n00"/>
      <point x="418.667" y="131.915"/>
      <point x="292.88" y="-12"/>
      <point x="141.278" y="-12" type="curve" smooth="yes" name="n03"/>
      <point x="77.7195" y="-12"/>
      <point x="32.6667" y="19.3522"/>
      <point x="32.6667" y="61.6076" type="curve" smooth="yes"/>
      <point x="32.6667" y="97.6857"/>
      <point x="65.8418" y="124.285"/>
      <point x="115.667" y="128.333" type="curve"/>
      <point x="173" y="51" type="line" name="n10"/>
      <point x="247.127" y="58.2876"/>
      <point x="309.667" y="170.886"/>
      <point x="309.667" y="291.013" type="curve" smooth="yes" name="n13"/>
      <point x="309.667" y="381.519"/>
      <point x="279.14" y="427.667"/>
      <point x="223.796" y="427.667" type="curve" smooth="yes" name="n16"/>
      <point x="176.632" y="427.667"/>
      <point x="124.168" y="394.6"/>
      <point x="54" y="320" type="curve"/>
      <point x="54" y="395.333" type="line"/>
      <point x="118.707" y="462.623"/>
      <point x="185.966" y="496"/>
      <point x="257.715" y="496" type="curve" smooth="yes" name="n23"/>
      <point x="359.982" y="496"/>
      <point x="418.667" y="427.483"/>
    </contour>
  </outline>
</glyph>
<glyph name="uni0256" format="2">
  <advance width="538"/>
  <unicode hex="0256"/>
  <outline>
    <contour>
      <point x="563.333" y="-164" type="curve" smooth="yes"/>
      <point x="563.333" y="-194"/>
      <point x="521.333" y="-229" name="n02"/>
      <point x="458.333" y="-229" type="curve" smooth="yes"/>
      <point x="347" y="-229"/>
      <point x="296.667" y="-157"/>
      <point x="296.667" y="-67" type="curve" smooth="yes" name="n06"/>
      <point x="296.667" y="-41.6667"/>
      <point x="314.333" y="50.6667"/>
      <point x="314.333" y="50.6667" type="curve"/>
      <point x="279" y="17.3333"/>
      <point x="233.667" y="-12"/>
      <point x="182" y="-12" type="curve" smooth="yes" name="n12"/>
      <point x="68.6667" y="-12"/>
      <point x="32" y="83"/>
      <point x="32" y="167.667" type="curve" smooth="yes" name="n15"/>
      <point x="32" y="324.667"/>
      <point x="136.333" y="496"/>
      <point x="321.667" y="496" type="curve" smooth="yes" name="n18"/>
      <point x="350" y="496"/>
      <point x="375.333" y="484.667"/>
      <point x="391" y="479.333" type="curve"/>
      <point x="423.667" y="665.667" type="line"/>
      <point x="333" y="674.333" type="line"/>
      <point x="333" y="706.333" type="line"/>
      <point x="492.667" y="737" type="line" name="n25"/>
      <point x="542.667" y="737" type="line"/>
      <point x="410.667" y="-8" type="line" smooth="yes"/>
      <point x="404.333" y="-44"/>
      <point x="397" y="-82"/>
      <point x="397" y="-104" type="curve" smooth="yes" name="n30"/>
      <point x="397" y="-137.333"/>
      <point x="410" y="-159.333"/>
      <point x="435.667" y="-167.333" type="curve"/>
      <point x="517.333" y="-105.333" type="line"/>
      <point x="527.333" y="-107"/>
      <point x="563.333" y="-115.667"/>
    </contour>
    <contour>
      <point x="376" y="394" type="line" smooth="yes"/>
      <point x="377" y="399.667"/>
      <point x="345" y="447"/>
      <point x="319.667" y="447" type="curve" smooth="yes" name="n40"/>
      <point x="231.667" y="447"/>
      <point x="142.667" y="330.667"/>
      <point x="142.667" y="173.667" type="curve" smooth="yes" name="n43"/>
      <point x="142.667" y="89.3333"/>
      <point x="175.333" y="52.3333"/>
      <point x="213.667" y="52.3333" type="curve" smooth="yes" name="n46"/>
      <point x="249" y="52.3333"/>
      <point x="294.667" y="91.3333"/>
      <point x="330" y="132.333" type="curve"/>
    </contour>
  </outline>
</glyph>
<glyph name="uni025B" format="2">
  <advance width="432"/>
  <unicode hex="025B"/>
  <outline>
    <contour>
      <point x="430.667" y="415.571" type="curve" smooth="yes"/>
      <point x="430.667" y="382.889"/>
      <point x="403.964" y="363.122"/>
      <point x="350.333" y="355.729" type="curve"/>
      <point x="284.667" y="448.333" type="line" name="n04"/>
      <point x="229.552" y="445.675"/>
      <point x="189.333" y="400.038"/>
      <point x="189.333" y="340.834" type="curve" smooth="yes" name="n07"/>
      <point x="189.333" y="289.518"/>
      <point x="219.641" y="262.826"/>
      <point x="277.667" y="262.826" type="curve" name="n10"/>
      <point x="277.667" y="212.353" type="line" name="n11"/>
      <point x="219.333" y="212.353" type="line" smooth="yes"/>
      <point x="159.014" y="212.353"/>
      <point x="119.667" y="175.143" name="hr01"/>
      <point x="119.667" y="118.313" type="curve" smooth="yes" name="n15"/>
      <point x="119.667" y="68.3669"/>
      <point x="150.531" y="40"/>
      <point x="204.896" y="40" type="curve" smooth="yes" name="n18"/>
      <point x="267.905" y="40"/>
      <point x="336.609" y="79.8257"/>
      <point x="391.333" y="129.951" type="curve"/>
      <point x="391.333" y="57.6455" type="line"/>
      <point x="351.712" y="23.347"/>
      <point x="253.427" y="-12"/>
      <point x="197.667" y="-12" type="curve" smooth="yes" name="n25"/>
      <point x="68.5638" y="-12"/>
      <point x="7" y="26.8921"/>
      <point x="7" y="108.017" type="curve" smooth="yes" name="n28"/>
      <point x="7" y="180.846"/>
      <point x="56.6558" y="229.816"/>
      <point x="147" y="246.501" type="curve"/>
      <point x="100.752" y="269.02"/>
      <point x="77" y="302.177" name="hr02"/>
      <point x="77" y="344.259" type="curve" smooth="yes" name="n34"/>
      <point x="77" y="426.277"/>
      <point x="171.687" y="496"/>
      <point x="283.333" y="496" type="curve" smooth="yes" name="n37"/>
      <point x="313.333" y="496" type="line" smooth="yes"/>
      <point x="379.689" y="496"/>
      <point x="430.667" y="460.829"/>
    </contour>
  </outline>
</glyph>
<glyph name="uni025C" format="2">
  <advance width="439"/>
  <unicode hex="025C"/>
  <outline>
    <contour>
      <point x="407.333" y="384.277" type="curve" smooth="yes" name="n00"/>
      <point x="407.333" y="327.984"/>
      <point x="358.609" y="274.246"/>
      <point x="281.667" y="245.333" type="curve"/>
      <point x="351.281" y="233.769"/>
      <point x="382.667" y="202.305" name="hr01"/>
      <point x="382.667" y="145.749" type="curve" smooth="yes" name="n06"/>
      <point x="382.667" y="48.5263"/>
      <point x="290.004" y="-12"/>
      <point x="143.667" y="-12" type="curve" smooth="yes" name="n09"/>
      <point x="86.2574" y="-12"/>
      <point x="41.6788" y="8.3314"/>
      <point x="0" y="53.6784" type="curve"/>
      <point x="0" y="130.209" type="line"/>
      <point x="56.7942" y="66.0767"/>
      <point x="104.199" y="37"/>
      <point x="153.717" y="37" type="curve" smooth="yes" name="n16"/>
      <point x="219.48" y="37"/>
      <point x="270.333" y="85.294"/>
      <point x="270.333" y="148.876" type="curve" smooth="yes" name="n19"/>
      <point x="270.333" y="193.58"/>
      <point x="245.127" y="216.333"/>
      <point x="195" y="216.333" type="curve" smooth="yes"/>
      <point x="163.333" y="216.333" type="line" name="n23"/>
      <point x="163.333" y="258.667" type="line" name="n24"/>
      <point x="240.68" y="259.59"/>
      <point x="297" y="309.622" name="hr02"/>
      <point x="297" y="377.993" type="curve" smooth="yes" name="n27"/>
      <point x="297" y="424.41"/>
      <point x="271.569" y="454.333"/>
      <point x="232.782" y="454.333" type="curve" smooth="yes" name="n30"/>
      <point x="210.484" y="454.333"/>
      <point x="183.934" y="443.229"/>
      <point x="172.667" y="429" type="curve"/>
      <point x="164.333" y="357.333" type="line"/>
      <point x="154.26" y="345.569"/>
      <point x="130.205" y="335"/>
      <point x="111.023" y="335" type="curve" smooth="yes"/>
      <point x="83.0496" y="335"/>
      <point x="59" y="357.277"/>
      <point x="59" y="390.241" type="curve" smooth="yes"/>
      <point x="59" y="449.312"/>
      <point x="138.509" y="496"/>
      <point x="240.958" y="496" type="curve" smooth="yes" name="n43"/>
      <point x="342.215" y="496"/>
      <point x="407.333" y="450.499"/>
    </contour>
  </outline>
</glyph>
<glyph name="uni025D" format="2">
  <advance width="547"/>
  <unicode hex="025D"/>
  <outline>
    <contour>
      <point x="620.667" y="388.333" type="line"/>
      <point x="605.333" y="349.333"/>
      <point x="578.333" y="289.667"/>
      <point x="512.333" y="289.667" type="curve" smooth="yes" name="n03"/>
      <point x="469.333" y="289.667"/>
      <point x="446.667" y="327.333"/>
      <point x="451.333" y="364" type="curve" smooth="yes"/>
      <point x="452.697" y="376.359"/>
      <point x="461.863" y="414.808"/>
      <point x="464" y="425" type="curve"/>
      <point x="460.016" y="422.602"/>
      <point x="420.85" y="399.269"/>
      <point x="406.667" y="391" type="curve"/>
      <point x="411.667" y="321.333"/>
      <point x="345" y="269"/>
      <point x="281.667" y="245.333" type="curve"/>
      <point x="349.667" y="234"/>
      <point x="382.667" y="203.667"/>
      <point x="382.667" y="153.333" type="curve" smooth="yes" name="n18"/>
      <point x="382.667" y="30"/>
      <point x="261.333" y="-12"/>
      <point x="143.667" y="-12" type="curve" smooth="yes" name="n21"/>
      <point x="83.6667" y="-12"/>
      <point x="39.6667" y="10.6667"/>
      <point x="0" y="54" type="curve"/>
      <point x="0" y="130.333" type="line"/>
      <point x="61" y="61.6667"/>
      <point x="106.667" y="37.3333"/>
      <point x="154" y="37.3333" type="curve" smooth="yes" name="n28"/>
      <point x="209.667" y="37.3333"/>
      <point x="270.333" y="76.3333"/>
      <point x="270.333" y="157.333" type="curve" smooth="yes" name="n31"/>
      <point x="270.333" y="212"/>
      <point x="225" y="216.333"/>
      <point x="195" y="216.333" type="curve" smooth="yes"/>
      <point x="163.333" y="216.333" type="line" name="n35"/>
      <point x="163.333" y="258.667" type="line" name="n36"/>
      <point x="225" y="260.667"/>
      <point x="297" y="296"/>
      <point x="297" y="383.667" type="curve" smooth="yes"/>
      <point x="297" y="428"/>
      <point x="268.333" y="454.333"/>
      <point x="229.667" y="454.333" type="curve" smooth="yes" name="n42"/>
      <point x="198" y="454.333"/>
      <point x="175" y="431.667"/>
      <point x="172.667" y="429" type="curve"/>
      <point x="164.333" y="357.333" type="line"/>
      <point x="160.667" y="353"/>
      <point x="140.667" y="335"/>
      <point x="106" y="335" type="curve" smooth="yes"/>
      <point x="84.3333" y="335"/>
      <point x="59" y="356"/>
      <point x="59" y="382.667" type="curve" smooth="yes"/>
      <point x="59" y="469.333"/>
      <point x="172.333" y="496"/>
      <point x="251.333" y="496" type="curve" smooth="yes" name="n55"/>
      <point x="321.667" y="496"/>
      <point x="371.667" y="470"/>
      <point x="394" y="432.333" type="curve"/>
      <point x="413.708" y="443.798"/>
      <point x="475.364" y="480.121"/>
      <point x="490.333" y="489.333" type="curve"/>
      <point x="520" y="469.333" type="line"/>
      <point x="499.333" y="390.667" type="line" smooth="yes"/>
      <point x="491.667" y="360.333"/>
      <point x="493.667" y="332.333"/>
      <point x="521" y="332.333" type="curve" smooth="yes" name="n66"/>
      <point x="555.333" y="332.333"/>
      <point x="575.333" y="382.667"/>
      <point x="588.667" y="412" type="curve"/>
    </contour>
  </outline>
</glyph>
<glyph name="uni0264" format="2">
  <advance width="557"/>
  <unicode hex="0264"/>
  <outline>
    <contour>
      <point x="585.667" y="415.333" type="curve" smooth="yes"/>
      <point x="585.667" y="380.333"/>
      <point x="569.667" y="343.667"/>
      <point x="561" y="310.333" type="curve"/>
      <point x="524.333" y="310.333" type="line" name="n04"/>
      <point x="523" y="337"/>
      <point x="526.333" y="393.333" name="hr01"/>
      <point x="487.333" y="393.333" type="curve" smooth="yes"/>
      <point x="431" y="393.333"/>
      <point x="351.667" y="284.667"/>
      <point x="318" y="246" type="curve"/>
      <point x="332" y="212"/>
      <point x="358.667" y="161.667"/>
      <point x="358.667" y="124" type="curve" smooth="yes"/>
      <point x="358.667" y="51.6667"/>
      <point x="303" y="-12"/>
      <point x="228.667" y="-12" type="curve" smooth="yes" name="n16"/>
      <point x="180.333" y="-12"/>
      <point x="132" y="7.66667"/>
      <point x="132" y="63.3333" type="curve" smooth="yes"/>
      <point x="132" y="122.667"/>
      <point x="187" y="175.667"/>
      <point x="222.667" y="216.667" type="curve"/>
      <point x="209" y="251.333"/>
      <point x="171.667" y="393.333"/>
      <point x="116.333" y="393.333" type="curve" smooth="yes" name="n25"/>
      <point x="71.6667" y="393.333"/>
      <point x="62.3333" y="342.667"/>
      <point x="50.6667" y="310.333" type="curve" name="hr02"/>
      <point x="14" y="310.333" type="line"/>
      <point x="22" y="379.667"/>
      <point x="42" y="496"/>
      <point x="134.667" y="496" type="curve" smooth="yes" name="n32"/>
      <point x="235.667" y="496"/>
      <point x="264.667" y="376"/>
      <point x="295.667" y="301.333" type="curve"/>
      <point x="328" y="339"/>
      <point x="452" y="496"/>
      <point x="512" y="496" type="curve" smooth="yes" name="n38"/>
      <point x="559.667" y="496"/>
      <point x="585.667" y="461"/>
    </contour>
    <contour>
      <point x="266" y="89" type="curve" smooth="yes"/>
      <point x="266" y="110"/>
      <point x="252" y="140.333"/>
      <point x="245" y="160.667" type="curve"/>
      <point x="228.333" y="140.333"/>
      <point x="191.333" y="101"/>
      <point x="191.333" y="74" type="curve" smooth="yes"/>
      <point x="191.333" y="57"/>
      <point x="201.667" y="42"/>
      <point x="219.667" y="42" type="curve" smooth="yes" name="n50"/>
      <point x="243.667" y="42"/>
      <point x="266" y="65"/>
    </contour>
  </outline>
</glyph>
<glyph name="uni0265" format="2">
  <advance width="537"/>
  <unicode hex="0265"/>
  <outline>
    <contour>
      <point x="510" y="484" type="line"/>
      <point x="376" y="-158.333" type="line"/>
      <point x="464.667" y="-166.667" type="line"/>
      <point x="464.667" y="-198.333" type="line"/>
      <point x="304.333" y="-229" type="line" name="n04"/>
      <point x="255" y="-229" type="line"/>
      <point x="314.333" y="56.6667" type="line"/>
      <point x="273.667" y="18.3333"/>
      <point x="208" y="-12"/>
      <point x="143.667" y="-12" type="curve" smooth="yes" name="n09"/>
      <point x="61.6667" y="-12"/>
      <point x="24.3333" y="36.6667"/>
      <point x="42" y="124.667" type="curve" smooth="yes"/>
      <point x="98" y="392.667" type="line" smooth="yes"/>
      <point x="105.667" y="429"/>
      <point x="73.3333" y="440"/>
      <point x="62" y="440" type="curve" smooth="yes"/>
      <point x="40.3333" y="440"/>
      <point x="17.3333" y="428.333"/>
      <point x="-7.66667" y="418" type="curve"/>
      <point x="-9" y="458" type="line"/>
      <point x="19.3333" y="470"/>
      <point x="86" y="496" name="n22"/>
      <point x="132" y="496" type="curve" smooth="yes"/>
      <point x="163.333" y="496"/>
      <point x="222.333" y="482.667"/>
      <point x="211.333" y="429.333" type="curve" smooth="yes"/>
      <point x="150.667" y="135.667" type="line" smooth="yes"/>
      <point x="140" y="84.3333"/>
      <point x="177.333" y="57"/>
      <point x="198.667" y="57" type="curve" smooth="yes" name="n30"/>
      <point x="230.333" y="57"/>
      <point x="288" y="89.3333"/>
      <point x="331" y="134" type="curve"/>
      <point x="403.333" y="484" type="line"/>
    </contour>
  </outline>
</glyph>
<glyph name="uni0267" format="2">
  <advance width="537"/>
  <unicode hex="0267"/>
  <outline>
    <contour>
      <point x="551" y="648.333" type="curve" smooth="yes"/>
      <point x="551" y="611"/>
      <point x="521" y="579.333"/>
      <point x="482.667" y="579.333" type="curve" smooth="yes"/>
      <point x="466" y="579.333"/>
      <point x="452.333" y="585.667"/>
      <point x="452.333" y="585.667" type="curve"/>
      <point x="435" y="669.667" type="line"/>
      <point x="425.667" y="678.667"/>
      <point x="401" y="682"/>
      <point x="383" y="682" type="curve" smooth="yes" name="n10"/>
      <point x="323.333" y="682"/>
      <point x="255" y="630"/>
      <point x="231.667" y="519.333" type="curve" smooth="yes"/>
      <point x="211.667" y="427.333" type="line"/>
      <point x="253" y="465.667"/>
      <point x="318.667" y="496"/>
      <point x="383" y="496" type="curve" smooth="yes" name="n17"/>
      <point x="465" y="496"/>
      <point x="501.667" y="447"/>
      <point x="484.667" y="359" type="curve" smooth="yes"/>
      <point x="409" y="-19" type="line" smooth="yes"/>
      <point x="383.667" y="-146"/>
      <point x="286.333" y="-229"/>
      <point x="156.333" y="-229" type="curve" smooth="yes" name="n24"/>
      <point x="85.6667" y="-229"/>
      <point x="65.6667" y="-190"/>
      <point x="65.6667" y="-153" type="curve" smooth="yes"/>
      <point x="65.6667" y="-109"/>
      <point x="115.667" y="-89.6667"/>
      <point x="135.333" y="-87.3333" type="curve"/>
      <point x="195.667" y="-174.667" type="line" name="n31"/>
      <point x="254" y="-171.667"/>
      <point x="281.333" y="-118"/>
      <point x="294" y="-53" type="curve"/>
      <point x="294" y="-53"/>
      <point x="375.888" y="344.12"/>
      <point x="375.333" y="348.333" type="curve"/>
      <point x="386" y="399.667"/>
      <point x="349.333" y="426.667"/>
      <point x="328" y="426.667" type="curve" smooth="yes" name="n40"/>
      <point x="296" y="426.667"/>
      <point x="238.667" y="394.667"/>
      <point x="195.667" y="350" type="curve"/>
      <point x="123.333" y="0" type="line" name="n44"/>
      <point x="17" y="0" type="line"/>
      <point x="125.333" y="521.667" type="line" smooth="yes"/>
      <point x="136.333" y="574"/>
      <point x="211.333" y="737"/>
      <point x="388" y="737" type="curve" smooth="yes" name="n49"/>
      <point x="500.333" y="737"/>
      <point x="551" y="707"/>
    </contour>
  </outline>
</glyph>
<glyph name="uni026C" format="2">
  <advance width="315"/>
  <unicode hex="026C"/>
  <outline>
    <contour>
      <point x="341.667" y="332.333" type="line"/>
      <point x="302.667" y="296.667"/>
      <point x="261.333" y="273.333"/>
      <point x="218.333" y="264.667" type="curve"/>
      <point x="186.333" y="100.667" type="line" smooth="yes"/>
      <point x="181.333" y="72.6667"/>
      <point x="198" y="47"/>
      <point x="226.667" y="47" type="curve" smooth="yes" name="n07"/>
      <point x="243.667" y="47"/>
      <point x="291" y="61.6667"/>
      <point x="313.333" y="70.6667" type="curve"/>
      <point x="313.333" y="27" type="line"/>
      <point x="282.333" y="13.3333"/>
      <point x="216.333" y="-12"/>
      <point x="167.667" y="-12" type="curve" smooth="yes" name="n14"/>
      <point x="105" y="-12"/>
      <point x="76" y="18.3333"/>
      <point x="76" y="62.6667" type="curve" smooth="yes"/>
      <point x="76" y="73"/>
      <point x="77" y="85"/>
      <point x="80" y="98" type="curve"/>
      <point x="111.333" y="264.667" type="line"/>
      <point x="42.3333" y="274"/>
      <point x="-10" y="310.667"/>
      <point x="-10" y="366.667" type="curve" smooth="yes" name="n24"/>
      <point x="-10" y="429.667"/>
      <point x="43" y="485.333"/>
      <point x="114.667" y="485.333" type="curve" smooth="yes" name="n27"/>
      <point x="126.333" y="485.333"/>
      <point x="150" y="478.667"/>
      <point x="153" y="478" type="curve"/>
      <point x="188.667" y="665.667" type="line"/>
      <point x="101" y="674.333" type="line"/>
      <point x="101" y="706.333" type="line"/>
      <point x="260.333" y="737" type="line" name="n34"/>
      <point x="308.667" y="737" type="line"/>
      <point x="228.333" y="319" type="line"/>
      <point x="256.333" y="326.667"/>
      <point x="277.333" y="336.667"/>
      <point x="309.667" y="368" type="curve"/>
    </contour>
    <contour>
      <point x="142.667" y="424.667" type="line"/>
      <point x="135" y="430.667"/>
      <point x="124" y="434.333"/>
      <point x="112" y="434.333" type="curve" smooth="yes" name="n43"/>
      <point x="77" y="434.333"/>
      <point x="51.3333" y="407"/>
      <point x="51.3333" y="372.333" type="curve" smooth="yes" name="n46"/>
      <point x="51.3333" y="341.333"/>
      <point x="84.3333" y="324.333"/>
      <point x="121.667" y="316.667" type="curve"/>
    </contour>
  </outline>
</glyph>
<glyph name="uni0273" format="2">
  <advance width="545"/>
  <unicode hex="0273"/>
  <outline>
    <contour>
      <point x="566.333" y="-146.333" type="curve" smooth="yes"/>
      <point x="566.333" y="-199"/>
      <point x="507.333" y="-221.667" name="n02"/>
      <point x="459.333" y="-221.667" type="curve" smooth="yes"/>
      <point x="348.667" y="-221.667"/>
      <point x="291.667" y="-176.333"/>
      <point x="291.667" y="-91" type="curve" smooth="yes" name="n06"/>
      <point x="291.667" y="-75"/>
      <point x="296.667" y="-36"/>
      <point x="302.667" y="-6" type="curve" smooth="yes"/>
      <point x="374.667" y="354.667" type="line" smooth="yes"/>
      <point x="384.667" y="406.333"/>
      <point x="359" y="422.333"/>
      <point x="337.333" y="422.333" type="curve" smooth="yes" name="n13"/>
      <point x="305.667" y="422.333"/>
      <point x="242.667" y="382.667"/>
      <point x="199.333" y="337" type="curve"/>
      <point x="129.667" y="0" type="line" name="n17"/>
      <point x="23.3333" y="0" type="line"/>
      <point x="110.667" y="425" type="line"/>
      <point x="26.6667" y="433.667" type="line"/>
      <point x="26.6667" y="464.333" type="line"/>
      <point x="182" y="496" type="line"/>
      <point x="231.667" y="496" type="line"/>
      <point x="215" y="414.667" type="line"/>
      <point x="260.667" y="455.667"/>
      <point x="330.667" y="496"/>
      <point x="392.667" y="496" type="curve" smooth="yes" name="n27"/>
      <point x="474.667" y="496"/>
      <point x="505" y="454.667"/>
      <point x="488.333" y="367" type="curve" smooth="yes"/>
      <point x="417" y="-8.33333" type="line" smooth="yes"/>
      <point x="409" y="-49.3333"/>
      <point x="400.333" y="-99.6667"/>
      <point x="400.333" y="-117.667" type="curve" smooth="yes" name="n34"/>
      <point x="400.333" y="-143.667"/>
      <point x="417" y="-156"/>
      <point x="436.333" y="-162" type="curve"/>
      <point x="520.667" y="-101.333" type="line"/>
      <point x="530" y="-103"/>
      <point x="566.333" y="-110.667"/>
    </contour>
  </outline>
</glyph>
<glyph name="uni0274" format="2">
  <advance width="581"/>
  <unicode hex="0274"/>
  <outline>
    <contour>
      <point x="603.667" y="443.667" type="line"/>
      <point x="554.667" y="439" type="line"/>
      <point x="544.667" y="438.333"/>
      <point x="536.515" y="431.7"/>
      <point x="534.333" y="421.667" type="curve" smooth="yes"/>
      <point x="443" y="0" type="line" name="n05"/>
      <point x="369" y="0" type="line"/>
      <point x="180.667" y="354" type="line"/>
      <point x="116.333" y="63" type="line"/>
      <point x="114.667" y="54"/>
      <point x="120.333" y="46.3333"/>
      <point x="133.667" y="44.6667" type="curve"/>
      <point x="133.667" y="44.6667"/>
      <point x="165.036" y="41.9581"/>
      <point x="184" y="40.3333" type="curve"/>
      <point x="184" y="0" type="line"/>
      <point x="-30" y="0" type="line"/>
      <point x="-30" y="40.3333" type="line"/>
      <point x="-12.698" y="41.8832"/>
      <point x="18.3333" y="44.6667"/>
      <point x="18.3333" y="44.6667" type="curve"/>
      <point x="29.6667" y="45.6667"/>
      <point x="37.3333" y="52.6667"/>
      <point x="39.6667" y="62.3333" type="curve" smooth="yes"/>
      <point x="117.333" y="421.667" type="line"/>
      <point x="119" y="431"/>
      <point x="114.333" y="437.667"/>
      <point x="100.333" y="439.333" type="curve"/>
      <point x="100.333" y="439.333"/>
      <point x="67.731" y="442.096"/>
      <point x="49.6667" y="443.667" type="curve"/>
      <point x="49.6667" y="484" type="line" name="n31"/>
      <point x="232" y="484" type="line"/>
      <point x="232" y="461.333" type="line"/>
      <point x="398.333" y="149" type="line"/>
      <point x="457.667" y="421.667" type="line"/>
      <point x="459.333" y="431"/>
      <point x="454.333" y="437.667"/>
      <point x="441" y="439.333" type="curve"/>
      <point x="441" y="439.333"/>
      <point x="408.448" y="442.077"/>
      <point x="390" y="443.667" type="curve"/>
      <point x="390" y="484" type="line"/>
      <point x="603.667" y="484" type="line"/>
    </contour>
  </outline>
</glyph>
<glyph name="uni0277" format="2">
  <advance width="680"/>
  <unicode hex="0277"/>
  <outline>
    <contour>
      <point x="644.667" y="265" type="curve" smooth="yes" name="n00"/>
      <point x="644.667" y="156.333"/>
      <point x="574.667" y="-12"/>
      <point x="435.667" y="-12" type="curve" smooth="yes" name="n03"/>
      <point x="367.667" y="-12"/>
      <point x="315.667" y="20.6667"/>
      <point x="309.333" y="82.6667" type="curve" name="n06"/>
      <point x="278.667" y="23.6667"/>
      <point x="218.333" y="-12"/>
      <point x="145.667" y="-12" type="curve" smooth="yes"/>
      <point x="58.3333" y="-12"/>
      <point x="21" y="66"/>
      <point x="21" y="141.667" type="curve" smooth="yes" name="n12"/>
      <point x="21" y="339.333"/>
      <point x="187.333" y="496"/>
      <point x="392.667" y="496" type="curve" smooth="yes" name="n15"/>
      <point x="545" y="496"/>
      <point x="644.667" y="412.667"/>
    </contour>
    <contour>
      <point x="532" y="261" type="curve" smooth="yes" name="n18"/>
      <point x="532" y="360.333"/>
      <point x="483" y="447"/>
      <point x="382.667" y="447" type="curve" smooth="yes" name="n21"/>
      <point x="242.333" y="447"/>
      <point x="132" y="276.333"/>
      <point x="132" y="139.667" type="curve" smooth="yes" name="n24"/>
      <point x="132" y="98.6667"/>
      <point x="145" y="50"/>
      <point x="187.333" y="50" type="curve" smooth="yes"/>
      <point x="259.667" y="50"/>
      <point x="297" y="127"/>
      <point x="297" y="189.333" type="curve" smooth="yes" name="n30"/>
      <point x="297" y="211"/>
      <point x="290" y="234.333"/>
      <point x="290" y="255.333" type="curve" smooth="yes" name="n33"/>
      <point x="290" y="295.667"/>
      <point x="317.667" y="357"/>
      <point x="366.333" y="357" type="curve" smooth="yes"/>
      <point x="395.333" y="357"/>
      <point x="409.333" y="325"/>
      <point x="409.333" y="300" type="curve" smooth="yes" name="n39"/>
      <point x="409.333" y="237.333"/>
      <point x="350.667" y="199.333"/>
      <point x="350.667" y="123" type="curve" smooth="yes" name="n42"/>
      <point x="350.667" y="78.3333"/>
      <point x="374" y="50"/>
      <point x="421.667" y="50" type="curve" smooth="yes" name="n45"/>
      <point x="503" y="50"/>
      <point x="532" y="199"/>
    </contour>
  </outline>
</glyph>
